<svg width="57" height="56" viewBox="0 0 57 56" fill="none" xmlns="http://www.w3.org/2000/svg">
<g clip-path="url(#clip0_419_1419)">
<g clip-path="url(#clip1_419_1419)">
<g clip-path="url(#clip2_419_1419)">
<path d="M10.6291 52.7351H46.2729C48.2439 52.7377 50.1353 51.9581 51.532 50.5674C52.9286 49.1767 53.7164 47.2886 53.7222 45.3176V10.6968C53.7161 8.72589 52.9284 6.83792 51.5317 5.44727C50.1351 4.05662 48.2438 3.27692 46.2729 3.2793H10.6299C8.65897 3.2767 6.76752 4.05634 5.37087 5.44703C3.97421 6.83773 3.18649 8.72582 3.18066 10.6968V45.3217C3.18671 47.2926 3.97449 49.1806 5.3711 50.5712C6.76771 51.9619 8.65904 52.7416 10.6299 52.7392L10.6291 52.7351ZM4.58836 10.6951C4.59354 9.09711 5.23265 7.56644 6.36538 6.43921C7.49812 5.31198 9.03189 4.68032 10.6299 4.68292H46.2737C47.8718 4.68032 49.4055 5.31198 50.5383 6.43921C51.671 7.56644 52.3101 9.09711 52.3153 10.6951V45.3201C52.3101 46.9181 51.671 48.4488 50.5383 49.576C49.4055 50.7032 47.8718 51.3349 46.2737 51.3323H10.6291C9.03107 51.3349 7.49731 50.7032 6.36458 49.576C5.23184 48.4488 4.59272 46.9181 4.58754 45.3201L4.58836 10.6951Z" fill="black"/>
<path d="M11.1462 38.3214H45.7605C45.8438 38.3206 45.9261 38.3035 46.0028 38.2709C46.0794 38.2384 46.1489 38.191 46.2073 38.1316C46.2657 38.0722 46.3117 38.0019 46.3429 37.9246C46.3741 37.8474 46.3897 37.7648 46.389 37.6815V11.259C46.3897 11.1757 46.3741 11.0931 46.3429 11.0159C46.3117 10.9387 46.2657 10.8683 46.2073 10.8089C46.1489 10.7495 46.0794 10.7021 46.0028 10.6696C45.9261 10.637 45.8438 10.6199 45.7605 10.6191H11.147C11.0637 10.6199 10.9814 10.637 10.9048 10.6696C10.8281 10.7021 10.7586 10.7495 10.7003 10.8089C10.6419 10.8683 10.5958 10.9387 10.5647 11.0159C10.5335 11.0931 10.5178 11.1757 10.5186 11.259V37.6815C10.5178 37.7648 10.5335 37.8474 10.5647 37.9246C10.5958 38.0019 10.6419 38.0722 10.7003 38.1316C10.7586 38.191 10.8281 38.2384 10.9048 38.2709C10.9814 38.3035 11.0637 38.3206 11.147 38.3214H11.1462ZM11.7706 11.8989H45.1264V37.0408H11.7747L11.7706 11.8989Z" fill="black"/>
<path d="M13.6313 45.3967C14.2469 45.3965 14.8487 45.2138 15.3605 44.8717C15.8723 44.5295 16.2712 44.0433 16.5066 43.4745C16.7421 42.9057 16.8037 42.2798 16.6835 41.676C16.5633 41.0722 16.2667 40.5176 15.8313 40.0824C15.396 39.6471 14.8413 39.3507 14.2375 39.2307C13.6337 39.1106 13.0078 39.1723 12.439 39.4079C11.8703 39.6436 11.3842 40.0426 11.0421 40.5545C10.7001 41.0663 10.5176 41.6682 10.5176 42.2838C10.5176 42.6927 10.5981 43.0975 10.7546 43.4752C10.9111 43.853 11.1405 44.1962 11.4296 44.4852C11.7188 44.7743 12.062 45.0036 12.4398 45.16C12.8176 45.3164 13.2224 45.3968 13.6313 45.3967ZM13.6313 40.4498C13.9938 40.45 14.3482 40.5576 14.6495 40.7592C14.9509 40.9607 15.1857 41.247 15.3243 41.582C15.463 41.917 15.4992 42.2856 15.4283 42.6411C15.3575 42.9967 15.1828 43.3232 14.9264 43.5795C14.67 43.8358 14.3434 44.0103 13.9878 44.081C13.6322 44.1517 13.2637 44.1153 12.9288 43.9765C12.5938 43.8378 12.3076 43.6028 12.1062 43.3014C11.9048 42.9999 11.7973 42.6455 11.7973 42.283C11.7973 42.0422 11.8447 41.8037 11.9369 41.5813C12.0291 41.3588 12.1642 41.1567 12.3345 40.9864C12.5048 40.8162 12.707 40.6812 12.9295 40.5891C13.152 40.4971 13.3905 40.4497 13.6313 40.4498Z" fill="#003D73"/>
<path d="M22.5725 40.1084H19.4963C19.3266 40.1084 19.1639 40.1758 19.0439 40.2958C18.9239 40.4158 18.8564 40.5786 18.8564 40.7483V43.8253C18.8564 43.995 18.9239 44.1577 19.0439 44.2777C19.1639 44.3977 19.3266 44.4651 19.4963 44.4651H22.5725C22.7422 44.4651 22.905 44.3977 23.025 44.2777C23.145 44.1577 23.2124 43.995 23.2124 43.8253V40.7483C23.2124 40.5786 23.145 40.4158 23.025 40.2958C22.905 40.1758 22.7422 40.1084 22.5725 40.1084ZM21.9327 43.1854H20.1394V41.3922H21.9327V43.1854Z" fill="black"/>
<path d="M33.8795 41.6465H25.7961C25.6264 41.6465 25.4637 41.7139 25.3437 41.8339C25.2237 41.9539 25.1563 42.1166 25.1562 42.2863C25.1563 42.456 25.2237 42.6188 25.3437 42.7388C25.4637 42.8588 25.6264 42.9262 25.7961 42.9262H33.8795C34.0492 42.9262 34.212 42.8588 34.332 42.7388C34.452 42.6188 34.5194 42.456 34.5194 42.2863C34.5194 42.1166 34.452 41.9539 34.332 41.8339C34.212 41.7139 34.0492 41.6465 33.8795 41.6465Z" fill="black"/>
<path d="M38.5884 41.6465H37.382C37.2123 41.6465 37.0496 41.7139 36.9296 41.8339C36.8096 41.9539 36.7422 42.1166 36.7422 42.2863C36.7422 42.456 36.8096 42.6188 36.9296 42.7388C37.0496 42.8588 37.2123 42.9262 37.382 42.9262H38.5884C38.7581 42.9262 38.9208 42.8588 39.0408 42.7388C39.1608 42.6188 39.2283 42.456 39.2283 42.2863C39.2283 42.1166 39.1608 41.9539 39.0408 41.8339C38.9208 41.7139 38.7581 41.6465 38.5884 41.6465Z" fill="#003D73"/>
<path d="M41.7817 28.66H31.398C31.2873 28.6605 31.1787 28.6905 31.0834 28.747C30.9881 28.8035 30.9096 28.8843 30.856 28.9812L29.5665 31.2814L27.4007 23.4564C27.3663 23.3279 27.292 23.2136 27.1884 23.1301C27.0848 23.0466 26.9573 22.9981 26.8244 22.9918C26.6915 22.9861 26.5603 23.0234 26.4502 23.0981C26.3401 23.1728 26.2569 23.281 26.2131 23.4067L24.243 28.7864H15.1252C14.9555 28.7864 14.7928 28.8538 14.6728 28.9738C14.5528 29.0938 14.4854 29.2565 14.4854 29.4262C14.4854 29.5959 14.5528 29.7587 14.6728 29.8787C14.7928 29.9987 14.9555 30.0661 15.1252 30.0661H24.6766C24.8052 30.0652 24.9303 30.0249 25.0352 29.9505C25.14 29.8762 25.2194 29.7714 25.2627 29.6504L26.716 25.6833L28.7685 33.1007C28.8008 33.2209 28.8679 33.3287 28.9615 33.4107C29.0551 33.4927 29.1709 33.5451 29.2942 33.5613C29.3194 33.5645 29.3447 33.5661 29.37 33.5662C29.4807 33.5656 29.5893 33.5355 29.6846 33.4791C29.7799 33.4226 29.8584 33.3419 29.9121 33.245L31.7599 29.9471H41.7817C41.9514 29.9471 42.1141 29.8797 42.2341 29.7597C42.3541 29.6397 42.4215 29.4769 42.4215 29.3072C42.4215 29.1375 42.3541 28.9748 42.2341 28.8548C42.1141 28.7348 41.9514 28.6674 41.7817 28.6674V28.66Z" fill="#003D73"/>
<path d="M39.6569 14.3586C38.8128 14.3552 37.9956 14.6559 37.355 15.2055C36.6601 14.6056 35.7594 14.299 34.8429 14.3503C33.9263 14.4015 33.0654 14.8067 32.4418 15.4804C31.8181 16.154 31.4804 17.0435 31.4998 17.9613C31.5192 18.8791 31.8943 19.7535 32.5459 20.4002L34.8102 22.6638C35.1359 22.9913 35.5231 23.2511 35.9497 23.4282C36.3763 23.6053 36.8337 23.6962 37.2955 23.6957H37.3933C37.8579 23.698 38.3183 23.608 38.7477 23.4309C39.1772 23.2537 39.5671 22.993 39.8949 22.6638L42.1617 20.401C42.657 19.9062 42.9944 19.2755 43.1311 18.5888C43.2679 17.9021 43.1978 17.1903 42.9298 16.5434C42.6618 15.8966 42.2079 15.3438 41.6256 14.955C41.0433 14.5662 40.3587 14.359 39.6585 14.3595L39.6569 14.3586ZM41.2561 19.4938L38.9926 21.7574C38.7807 21.9686 38.5289 22.1355 38.2518 22.2483C37.9747 22.3611 37.6778 22.4176 37.3786 22.4143H37.3151C37.0187 22.416 36.7249 22.3588 36.4508 22.246C36.1767 22.1332 35.9277 21.9671 35.7183 21.7574L33.4539 19.4938C33.2387 19.285 33.0671 19.0354 32.9493 18.7596C32.8314 18.4839 32.7695 18.1874 32.7673 17.8875C32.765 17.5876 32.8224 17.2903 32.9362 17.0128C33.0499 16.7353 33.2177 16.4832 33.4297 16.2711C33.6418 16.0591 33.8939 15.8913 34.1714 15.7776C34.4489 15.6638 34.7462 15.6064 35.0461 15.6087C35.346 15.6109 35.6425 15.6728 35.9182 15.7907C36.194 15.9086 36.4435 16.0801 36.6524 16.2953L36.9035 16.5464C37.0234 16.6661 37.1859 16.7333 37.3554 16.7333C37.5249 16.7333 37.6874 16.6661 37.8074 16.5464L38.0593 16.2953C38.491 15.886 39.0632 15.6579 39.6581 15.6579C40.253 15.6579 40.8252 15.886 41.2569 16.2953C41.679 16.7206 41.9159 17.2954 41.9159 17.8946C41.9159 18.4937 41.679 19.0686 41.2569 19.4938H41.2561Z" fill="#003D73"/>
</g>
</g>
</g>
<defs>
<clipPath id="clip0_419_1419">
<rect width="55.4273" height="55.4273" fill="white" transform="translate(0.736328 0.0185547)"/>
</clipPath>
<clipPath id="clip1_419_1419">
<rect width="55.4273" height="55.4273" fill="white" transform="translate(0.736328 0.0185547)"/>
</clipPath>
<clipPath id="clip2_419_1419">
<rect width="55.4273" height="55.4273" fill="white" transform="translate(0.736328 0.0185547)"/>
</clipPath>
</defs>
</svg>
