<svg width="57" height="56" viewBox="0 0 57 56" fill="none" xmlns="http://www.w3.org/2000/svg">
<g clip-path="url(#clip0_419_1810)">
<g clip-path="url(#clip1_419_1810)">
<g clip-path="url(#clip2_419_1810)">
<path opacity="0.31" d="M53.7183 0.260742H3.18165C1.83114 0.260742 0.736328 1.35555 0.736328 2.70606V53.2427C0.736328 54.5932 1.83114 55.688 3.18165 55.688H53.7183C55.0688 55.688 56.1636 54.5932 56.1636 53.2427V2.70606C56.1636 1.35555 55.0688 0.260742 53.7183 0.260742Z" fill="white"/>
<mask id="mask0_419_1810" style="mask-type:luminance" maskUnits="userSpaceOnUse" x="4" y="4" width="49" height="47">
<path d="M52.6999 4.72559H4.81152V50.8288H52.6999V4.72559Z" fill="white"/>
</mask>
<g mask="url(#mask0_419_1810)">
<path d="M51.8719 36.181C50.2756 35.4602 48.7655 34.562 47.3701 33.5034C45.6748 32.1854 43.63 31.3938 41.4891 31.2268C40.3258 31.1485 39.1573 31.2211 38.0127 31.4428C35.2948 31.9287 32.8024 33.2677 30.8968 35.2657C30.4477 35.7559 30.0417 36.2839 29.6831 36.8437C29.6831 36.8437 23.3171 39.3918 20.9672 40.7717C20.284 41.1827 19.7734 41.8278 19.5301 42.587C19.2867 43.3462 19.3273 44.1679 19.6442 44.8994L28.1556 42.8951L32.8425 42.609" stroke="black" stroke-width="1.30417" stroke-linecap="round" stroke-linejoin="round"/>
<path d="M17.0161 43.5805L12.0839 41.374C10.7692 40.7113 9.20579 39.4854 8.05812 39.5514C7.2602 39.5844 6.50235 39.91 5.92906 40.4659C5.66334 40.7325 5.52151 40.9917 5.77256 41.118L16.1961 47.3552C18.6987 48.326 21.2606 49.1362 23.8663 49.781C25.1405 50.1245 26.4897 50.0655 27.7291 49.6123L39.7968 45.2107C40.8937 44.6758 42.098 44.3977 43.3184 44.3977C44.5388 44.3977 45.7432 44.6758 46.8401 45.2107" stroke="black" stroke-width="1.30417" stroke-linecap="round" stroke-linejoin="round"/>
<path d="M17.6978 40.2289L14.6395 38.8514C13.2123 38.1553 11.3563 37.1935 9.84505 36.446C9.47985 36.2657 9.08321 36.1577 8.677 36.1281C8.54495 36.1183 8.40638 36.1094 8.26945 36.1012C7.94195 36.0775 7.613 36.1189 7.30158 36.223C6.99017 36.3271 6.70244 36.4918 6.45502 36.7077C6.41182 36.746 6.37351 36.7892 6.33112 36.825C6.24538 36.9083 6.18097 37.011 6.14333 37.1245C6.10569 37.2379 6.09593 37.3588 6.11488 37.4768C6.13383 37.5948 6.18093 37.7066 6.2522 37.8025C6.32346 37.8985 6.4168 37.9759 6.5243 38.0281L8.12762 38.8106L9.63801 39.9999" stroke="black" stroke-width="1.30417" stroke-linecap="round" stroke-linejoin="round"/>
<path d="M20.1124 38.0478L17.1307 36.7314C11.0011 33.0985 10.627 35.7533 10.627 35.7533V36.8382" stroke="black" stroke-width="1.30417" stroke-linecap="round" stroke-linejoin="round"/>
<path d="M29.6823 36.8424L23.9766 35.8365L17.9122 33.6023L17.8494 33.5909C17.1729 33.466 16.4742 33.556 15.8514 33.8484C15.2287 34.1408 14.7131 34.6208 14.377 35.2211L14.3232 35.3165" stroke="black" stroke-width="1.30417" stroke-linecap="round" stroke-linejoin="round"/>
<path d="M27.5424 6.35797L31.6521 5.63252C31.9516 5.57887 32.2551 5.5516 32.5594 5.55101H32.5667C33.4682 5.54249 34.3561 5.77182 35.1407 6.21588C35.9254 6.65993 36.5791 7.30302 37.0359 8.08029C37.7426 9.35873 38.0986 10.8013 38.0678 12.2618C38.0676 13.8074 37.6642 15.3262 36.8974 16.6683L35.7212 18.7231C35.1601 19.6974 34.818 20.7822 34.7186 21.9021C34.4934 24.4984 33.7033 27.0141 32.4037 29.2731L31.6212 30.6343C31.498 30.8485 31.3076 31.0161 31.0794 31.111C30.8512 31.2059 30.5981 31.2228 30.3594 31.159C30.1206 31.0953 29.9096 30.9545 29.7591 30.7585C29.6086 30.5625 29.5271 30.3222 29.5272 30.0751V27.9249C29.5271 26.8297 29.3316 25.7432 28.9501 24.7166L28.6395 23.8811C28.5529 23.6482 28.3963 23.4477 28.1914 23.3071C27.9864 23.1666 27.7429 23.0928 27.4944 23.0959C27.2459 23.099 27.0044 23.1789 26.803 23.3246C26.6016 23.4702 26.4502 23.6746 26.3694 23.9097L26.0564 24.8144C25.7251 25.7773 25.556 26.7884 25.556 27.8067V30.0751C25.556 30.3222 25.4745 30.5625 25.324 30.7585C25.1735 30.9545 24.9625 31.0953 24.7237 31.159C24.485 31.2228 24.2319 31.2059 24.0037 31.111C23.7755 31.0161 23.5851 30.8485 23.4619 30.6343L22.6794 29.2731C21.3797 27.0131 20.5899 24.4962 20.3654 21.8988C20.2659 20.7789 19.9238 19.6942 19.3628 18.7199L18.1866 16.665C17.4188 15.3224 17.0148 13.8027 17.0144 12.2561C16.9844 10.7937 17.3424 9.34948 18.0521 8.07051C18.5101 7.29588 19.1639 6.65546 19.9478 6.21362C20.7318 5.77178 21.6182 5.5441 22.518 5.55346H22.5254C22.8296 5.55407 23.1332 5.58134 23.4326 5.63497L27.5424 6.36041" stroke="#003D73" stroke-width="1.30417" stroke-linecap="round" stroke-linejoin="round"/>
<path d="M26.6768 9.31214L24.1907 8.76602C23.6544 8.63942 23.0939 8.66073 22.5688 8.82768C22.0437 8.99462 21.5737 9.30095 21.209 9.71399C21.1547 9.77485 21.1039 9.83952 21.0566 9.90798C20.6436 10.4995 20.4285 11.2065 20.442 11.9278" stroke="#003D73" stroke-width="1.30417" stroke-linecap="round" stroke-linejoin="round"/>
</g>
</g>
</g>
</g>
<defs>
<clipPath id="clip0_419_1810">
<rect width="55.4273" height="55.4273" fill="white" transform="translate(0.736328 0.260742)"/>
</clipPath>
<clipPath id="clip1_419_1810">
<rect width="55.4273" height="55.4273" fill="white" transform="translate(0.736328 0.260742)"/>
</clipPath>
<clipPath id="clip2_419_1810">
<rect width="55.4273" height="55.4273" fill="white" transform="translate(0.736328 0.260742)"/>
</clipPath>
</defs>
</svg>
