<svg width="57" height="56" viewBox="0 0 57 56" fill="none" xmlns="http://www.w3.org/2000/svg">
<g clip-path="url(#clip0_419_1510)">
<g clip-path="url(#clip1_419_1510)">
<g clip-path="url(#clip2_419_1510)">
<path d="M53.9517 0.579102H3.41505C2.06453 0.579102 0.969727 1.67391 0.969727 3.02442V53.5611C0.969727 54.9116 2.06453 56.0064 3.41505 56.0064H53.9517C55.3022 56.0064 56.397 54.9116 56.397 53.5611V3.02442C56.397 1.67391 55.3022 0.579102 53.9517 0.579102Z" fill="white"/>
<mask id="mask0_419_1510" style="mask-type:luminance" maskUnits="userSpaceOnUse" x="12" y="4" width="33" height="49">
<path d="M44.9584 4.6543H12.3818V52.3519H44.9584V4.6543Z" fill="white"/>
</mask>
<g mask="url(#mask0_419_1510)">
<path d="M41.1858 8.52734C40.2156 9.75663 39.5458 11.1954 39.2296 12.7292C38.9933 14.396 38.8507 16.0748 38.8025 17.7576C38.8025 20.8493 43.5211 27.7468 43.5211 27.7468C44.2547 29.0721 44.1928 30.2736 42.3702 30.8393C41.9806 30.9599 40.9527 31.1653 40.9527 31.1653C40.9527 31.1653 38.7144 32.1834 40.0365 33.4476C40.208 33.6087 40.3413 33.8062 40.4264 34.0255C40.5115 34.2449 40.5463 34.4806 40.5283 34.7152C40.5103 34.9498 40.44 35.1773 40.3224 35.3812C40.2049 35.585 40.0431 35.7599 39.8491 35.8929C39.3079 36.263 38.1862 36.2548 37.3418 37.1881" fill="white"/>
<path d="M41.1858 8.52734C40.2156 9.75663 39.5458 11.1954 39.2296 12.7292C38.9933 14.396 38.8507 16.0748 38.8025 17.7576C38.8025 20.8493 43.5211 27.7468 43.5211 27.7468C44.2547 29.0721 44.1928 30.2736 42.3702 30.8393C41.9806 30.9599 40.9527 31.1653 40.9527 31.1653C40.9527 31.1653 38.7144 32.1834 40.0365 33.4476C40.208 33.6087 40.3413 33.8062 40.4264 34.0255C40.5115 34.2449 40.5463 34.4806 40.5283 34.7152C40.5103 34.9498 40.44 35.1773 40.3224 35.3812C40.2049 35.585 40.0431 35.7599 39.8491 35.8929C39.3079 36.263 38.1862 36.2548 37.3418 37.1881" stroke="black" stroke-width="1.30417"/>
<path d="M41.1858 8.52734C40.2156 9.75663 39.5458 11.1954 39.2296 12.7292C38.9933 14.396 38.8507 16.0748 38.8025 17.7576C38.8025 20.8493 43.5211 27.7468 43.5211 27.7468C44.2547 29.0721 44.1928 30.2736 42.3702 30.8393C41.9806 30.9599 40.9527 31.1653 40.9527 31.1653C40.9527 31.1653 38.7144 32.1834 40.0365 33.4476C40.208 33.6087 40.3413 33.8062 40.4264 34.0255C40.5115 34.2449 40.5463 34.4806 40.5283 34.7152C40.5103 34.9498 40.44 35.1773 40.3224 35.3812C40.2049 35.585 40.0431 35.7599 39.8491 35.8929C39.3079 36.263 38.1862 36.2548 37.3418 37.1881" stroke="black" stroke-width="1.30417" stroke-linecap="round" stroke-linejoin="round"/>
<path d="M39.903 35.9355C40.2987 36.419 40.5183 37.0226 40.5258 37.6473C40.5258 38.6743 39.0252 39.1406 39.0252 39.7005C39.1341 40.9479 39.0711 42.2044 38.8377 43.4345C38.4627 44.8349 36.3981 46.4211 33.5835 45.7682C30.7689 45.1153 25.2344 43.9945 25.2344 43.9945" stroke="black" stroke-width="1.30417" stroke-linecap="round" stroke-linejoin="round"/>
<path d="M20.4502 23.463C23.3127 23.2297 26.1242 22.5703 28.792 21.5067C32.9548 19.5961 38.5496 16.3406 39.2156 12.7256" stroke="black" stroke-width="1.30417" stroke-linecap="round" stroke-linejoin="round"/>
<path d="M42.4023 5.16797C42.4023 5.16797 45.1256 7.7812 44.2771 11.1419C43.4286 14.5026 41.1797 15.5288 41.1797 15.5288" stroke="black" stroke-width="1.30417" stroke-linecap="round" stroke-linejoin="round"/>
<path d="M29.6918 45.1299C29.6918 45.1299 27.487 47.2646 29.1759 51.8382" stroke="black" stroke-width="1.30417" stroke-linecap="round" stroke-linejoin="round"/>
<path d="M20.7309 25.2552C20.4342 22.6069 19.0689 20.0621 15.9674 20.4909C13.6427 20.812 12.579 22.6917 12.9759 25.3261C13.2205 26.9212 14.0209 27.9426 14.3388 29.1571C14.8197 30.9911 15.2794 32.0279 16.7434 32.0279C18.2668 32.0279 18.7176 31.0775 19.4332 29.885" stroke="black" stroke-width="1.30417" stroke-linecap="round" stroke-linejoin="round"/>
<path d="M18.4139 25.3401C18.4139 25.3401 18.0707 22.5223 16.1821 23.035C14.2935 23.5477 15.4094 25.5969 15.4094 25.5969" stroke="black" stroke-width="1.30417" stroke-linecap="round" stroke-linejoin="round"/>
<path d="M23.0791 18.9822C31.6165 17.8623 33.2117 9.64844 33.2117 9.64844" stroke="black" stroke-width="1.30417" stroke-linecap="round" stroke-linejoin="round"/>
<path d="M29.9265 6.94141C29.9265 6.94141 28.3314 15.1552 19.7939 16.2752" stroke="black" stroke-width="1.30417" stroke-linecap="round" stroke-linejoin="round"/>
<path d="M27.2522 33.219C27.253 33.0454 27.2022 32.8754 27.1063 32.7306C27.0104 32.5859 26.8738 32.4728 26.7136 32.4058C26.5534 32.3388 26.3769 32.3209 26.2065 32.3543C26.0361 32.3876 25.8794 32.4708 25.7564 32.5933C25.6333 32.7158 25.5494 32.8721 25.5152 33.0423C25.481 33.2126 25.4982 33.3891 25.5644 33.5496C25.6307 33.7101 25.7431 33.8473 25.8874 33.9439C26.0317 34.0404 26.2015 34.092 26.3751 34.092C26.6071 34.0924 26.8299 34.0007 26.9943 33.837C27.1588 33.6733 27.2515 33.451 27.2522 33.219Z" fill="#003D73"/>
<path d="M24.7844 35.2381C24.7847 35.0645 24.7335 34.8948 24.6374 34.7504C24.5412 34.6059 24.4043 34.4932 24.2441 34.4266C24.0839 34.36 23.9075 34.3424 23.7372 34.376C23.567 34.4097 23.4105 34.4931 23.2877 34.6157C23.1649 34.7383 23.0812 34.8945 23.0472 35.0647C23.0133 35.2349 23.0305 35.4113 23.0969 35.5717C23.1632 35.732 23.2756 35.8691 23.4199 35.9655C23.5642 36.062 23.7338 36.1135 23.9073 36.1135C24.1394 36.1139 24.3621 36.0222 24.5265 35.8585C24.691 35.6948 24.7837 35.4725 24.7844 35.2405" fill="#003D73"/>
<path d="M24.7844 31.3108C24.7852 31.1372 24.7344 30.9672 24.6385 30.8224C24.5427 30.6777 24.406 30.5646 24.2458 30.4976C24.0856 30.4306 23.9091 30.4127 23.7387 30.446C23.5683 30.4794 23.4117 30.5626 23.2886 30.6851C23.1655 30.8076 23.0816 30.9639 23.0474 31.1341C23.0133 31.3044 23.0304 31.4809 23.0966 31.6414C23.1629 31.8019 23.2753 31.9391 23.4196 32.0357C23.564 32.1322 23.7337 32.1838 23.9073 32.1838C24.1394 32.1842 24.3621 32.0925 24.5265 31.9288C24.691 31.7651 24.7837 31.5428 24.7844 31.3108Z" fill="#003D73"/>
<path d="M33.3498 36.8597C33.3506 36.686 33.2999 36.516 33.204 36.3713C33.1081 36.2265 32.9714 36.1135 32.8112 36.0465C32.651 35.9795 32.4746 35.9615 32.3042 35.9949C32.1338 36.0283 31.9771 36.1115 31.854 36.2339C31.731 36.3564 31.647 36.5127 31.6129 36.683C31.5787 36.8532 31.5958 37.0298 31.6621 37.1903C31.7283 37.3508 31.8407 37.488 31.9851 37.5845C32.1294 37.6811 32.2991 37.7326 32.4727 37.7326C32.7048 37.7331 32.9275 37.6413 33.092 37.4777C33.2564 37.314 33.3492 37.0917 33.3498 36.8597Z" fill="#003D73"/>
<path d="M33.8195 33.219C33.8203 33.0454 33.7696 32.8754 33.6737 32.7306C33.5778 32.5859 33.4411 32.4728 33.2809 32.4058C33.1208 32.3388 32.9443 32.3209 32.7739 32.3543C32.6035 32.3876 32.4468 32.4708 32.3238 32.5933C32.2007 32.7158 32.1168 32.8721 32.0826 33.0423C32.0484 33.2126 32.0655 33.3891 32.1318 33.5496C32.1981 33.7101 32.3105 33.8473 32.4548 33.9439C32.5991 34.0404 32.7688 34.092 32.9425 34.092C33.1745 34.0924 33.3972 34.0007 33.5617 33.837C33.7261 33.6733 33.8189 33.451 33.8195 33.219Z" fill="#003D73"/>
<path d="M28.0021 37.1399C28.0029 36.9663 27.9522 36.7963 27.8563 36.6516C27.7604 36.5068 27.6237 36.3937 27.4636 36.3267C27.3034 36.2597 27.1269 36.2418 26.9565 36.2751C26.7861 36.3085 26.6294 36.3917 26.5064 36.5142C26.3833 36.6367 26.2994 36.793 26.2652 36.9632C26.231 37.1335 26.2482 37.31 26.3144 37.4705C26.3807 37.631 26.4931 37.7683 26.6374 37.8648C26.7817 37.9614 26.9515 38.0129 27.1251 38.0129C27.3571 38.0134 27.5798 37.9216 27.7443 37.7579C27.9088 37.5943 28.0015 37.372 28.0021 37.1399Z" fill="#003D73"/>
<path d="M25.469 39.7532C25.4698 39.5796 25.419 39.4096 25.3231 39.2648C25.2272 39.1201 25.0905 39.007 24.9304 38.94C24.7702 38.873 24.5937 38.8551 24.4233 38.8884C24.2529 38.9218 24.0962 39.005 23.9732 39.1275C23.8501 39.25 23.7662 39.4063 23.732 39.5765C23.6978 39.7468 23.715 39.9233 23.7812 40.0838C23.8475 40.2443 23.9599 40.3815 24.1042 40.4781C24.2485 40.5746 24.4183 40.6262 24.5919 40.6262C24.8239 40.6266 25.0467 40.5349 25.2111 40.3712C25.3756 40.2075 25.4683 39.9852 25.469 39.7532Z" fill="#003D73"/>
<path d="M30.882 38.8782C30.8828 38.7046 30.8321 38.5346 30.7362 38.3898C30.6403 38.2451 30.5036 38.132 30.3434 38.065C30.1833 37.998 30.0068 37.98 29.8364 38.0134C29.666 38.0468 29.5093 38.13 29.3863 38.2525C29.2632 38.375 29.1793 38.5313 29.1451 38.7015C29.1109 38.8718 29.128 39.0483 29.1943 39.2088C29.2606 39.3693 29.373 39.5065 29.5173 39.6031C29.6616 39.6996 29.8313 39.7512 30.005 39.7512C30.237 39.7516 30.4597 39.6599 30.6242 39.4962C30.7886 39.3325 30.8814 39.1102 30.882 38.8782Z" fill="#003D73"/>
<path d="M30.882 34.9505C30.8828 34.7768 30.8321 34.6069 30.7362 34.4621C30.6403 34.3173 30.5036 34.2043 30.3434 34.1373C30.1833 34.0703 30.0068 34.0523 29.8364 34.0857C29.666 34.1191 29.5093 34.2023 29.3863 34.3248C29.2632 34.4473 29.1793 34.6035 29.1451 34.7738C29.1109 34.944 29.128 35.1206 29.1943 35.2811C29.2606 35.4416 29.373 35.5788 29.5173 35.6754C29.6616 35.7719 29.8313 35.8234 30.005 35.8234C30.237 35.8239 30.4597 35.7322 30.6242 35.5685C30.7886 35.4048 30.8814 35.1825 30.882 34.9505Z" fill="#003D73"/>
<path d="M30.0383 31.3108C30.0391 31.1372 29.9883 30.9672 29.8925 30.8224C29.7966 30.6777 29.6599 30.5646 29.4997 30.4976C29.3395 30.4306 29.163 30.4127 28.9926 30.446C28.8222 30.4794 28.6656 30.5626 28.5425 30.6851C28.4194 30.8076 28.3355 30.9639 28.3013 31.1341C28.2672 31.3044 28.2843 31.4809 28.3505 31.6414C28.4168 31.8019 28.5292 31.9391 28.6735 32.0357C28.8179 32.1322 28.9876 32.1838 29.1612 32.1838C29.3933 32.1842 29.616 32.0925 29.7804 31.9288C29.9449 31.7651 30.0376 31.5428 30.0383 31.3108Z" fill="#003D73"/>
<path d="M27.5051 28.9768C27.5059 28.8032 27.4551 28.6332 27.3592 28.4885C27.2634 28.3437 27.1267 28.2306 26.9665 28.1636C26.8063 28.0966 26.6298 28.0787 26.4594 28.1121C26.289 28.1454 26.1324 28.2286 26.0093 28.3511C25.8862 28.4736 25.8023 28.6299 25.7681 28.8002C25.734 28.9704 25.7511 29.1469 25.8174 29.3074C25.8836 29.4679 25.996 29.6052 26.1403 29.7017C26.2847 29.7983 26.4544 29.8498 26.628 29.8498C26.8601 29.8502 27.0828 29.7585 27.2472 29.5948C27.4117 29.4312 27.5044 29.2089 27.5051 28.9768Z" fill="#003D73"/>
</g>
</g>
</g>
</g>
<defs>
<clipPath id="clip0_419_1510">
<rect width="55.4273" height="55.4273" fill="white" transform="translate(0.969727 0.579102)"/>
</clipPath>
<clipPath id="clip1_419_1510">
<rect width="55.4273" height="55.4273" fill="white" transform="translate(0.969727 0.579102)"/>
</clipPath>
<clipPath id="clip2_419_1510">
<rect width="55.4273" height="55.4273" fill="white" transform="translate(0.969727 0.579102)"/>
</clipPath>
</defs>
</svg>
