<svg width="57" height="56" viewBox="0 0 57 56" fill="none" xmlns="http://www.w3.org/2000/svg">
<g clip-path="url(#clip0_419_1568)">
<g clip-path="url(#clip1_419_1568)">
<g clip-path="url(#clip2_419_1568)">
<path opacity="0.31" d="M53.6514 0.579102H3.11475C1.76424 0.579102 0.669434 1.67391 0.669434 3.02442V53.5611C0.669434 54.9116 1.76424 56.0064 3.11475 56.0064H53.6514C55.0019 56.0064 56.0967 54.9116 56.0967 53.5611V3.02442C56.0967 1.67391 55.0019 0.579102 53.6514 0.579102Z" fill="white"/>
<mask id="mask0_419_1568" style="mask-type:luminance" maskUnits="userSpaceOnUse" x="7" y="10" width="43" height="36">
<path d="M49.1411 10.9375H7.08154V45.3089H49.1411V10.9375Z" fill="white"/>
</mask>
<g mask="url(#mask0_419_1568)">
<path d="M38.9107 45.3089C37.9069 45.3085 36.9236 45.0251 36.0735 44.4911C35.2235 43.9572 34.5412 43.1944 34.105 42.2903C33.6688 41.3862 33.4964 40.3774 33.6075 39.3797C33.7187 38.3821 34.1088 37.436 34.7333 36.65C34.7859 36.5782 34.8525 36.5178 34.9291 36.4723C35.0057 36.4268 35.0908 36.3973 35.179 36.3854C35.2673 36.3736 35.3569 36.3797 35.4427 36.4033C35.5286 36.4269 35.6088 36.4677 35.6785 36.523C35.7483 36.5784 35.8062 36.6473 35.8487 36.7255C35.8912 36.8038 35.9174 36.8898 35.9259 36.9784C35.9344 37.0671 35.9249 37.1565 35.898 37.2414C35.8711 37.3263 35.8273 37.4049 35.7693 37.4725C35.3676 37.9791 35.0942 38.5753 34.9723 39.2103C34.8503 39.8453 34.8834 40.5003 35.0688 41.1198C35.2542 41.7392 35.5865 42.3047 36.0373 42.7683C36.4881 43.2319 37.044 43.5797 37.658 43.7824C38.272 43.985 38.9261 44.0365 39.5642 43.9323C40.2024 43.8281 40.8059 43.5714 41.3236 43.184C41.8413 42.7966 42.2577 42.29 42.5377 41.7072C42.8177 41.1243 42.9529 40.4825 42.9317 39.8363C42.9235 39.5893 42.8921 39.3437 42.838 39.1027C42.8194 39.0174 42.818 38.9293 42.8336 38.8434C42.8492 38.7576 42.8817 38.6757 42.9291 38.6024C42.9765 38.5292 43.0379 38.466 43.1098 38.4166C43.1817 38.3672 43.2628 38.3325 43.3482 38.3145C44.0878 38.1596 44.7755 37.818 45.3456 37.3221C45.9157 36.8262 46.3492 36.1926 46.6051 35.4816C46.8609 34.7707 46.9306 34.006 46.8072 33.2606C46.6839 32.5151 46.3715 31.8136 45.9002 31.223C45.7912 31.0857 45.7412 30.9107 45.7611 30.7365C45.781 30.5623 45.8691 30.4031 46.0063 30.2938C46.6383 29.7932 47.1334 29.1408 47.4454 28.3974C47.7575 27.6539 47.8762 26.8436 47.7909 26.0419C47.7056 25.2401 47.4188 24.473 46.9573 23.812C46.4957 23.1509 45.8744 22.6173 45.1512 22.2609C44.9998 22.186 44.883 22.056 44.8244 21.8977C44.7658 21.7393 44.7697 21.5646 44.8357 21.4091C45.1092 20.7722 45.2397 20.083 45.218 19.3901C45.1981 18.7618 45.0546 18.1436 44.7957 17.5708C44.5369 16.998 44.1679 16.4817 43.7096 16.0515C43.2513 15.6214 42.7126 15.2857 42.1246 15.0636C41.5365 14.8416 40.9105 14.7375 40.2822 14.7575C39.6539 14.7774 39.0356 14.9208 38.4627 15.1797C37.8899 15.4385 37.3738 15.8076 36.9436 16.2659C36.5134 16.7243 36.1778 17.2629 35.9557 17.8509C35.7337 18.439 35.6296 19.0651 35.6495 19.6933C35.6599 20.0185 35.703 20.3419 35.7782 20.6584C35.8191 20.829 35.7905 21.0088 35.6988 21.1583C35.6071 21.3078 35.4598 21.4147 35.2893 21.4556C35.1187 21.4965 34.9389 21.4679 34.7894 21.3762C34.6399 21.2845 34.5329 21.1371 34.4921 20.9665C34.2869 20.1331 34.2595 19.2658 34.4117 18.4211C34.5639 17.5763 34.8921 16.7731 35.3752 16.0637C35.8584 15.3543 36.4855 14.7545 37.2158 14.3035C37.9461 13.8525 38.7633 13.5604 39.614 13.4461C40.4646 13.3317 41.3298 13.3979 42.1532 13.6401C42.9767 13.8823 43.7399 14.2952 44.3932 14.8519C45.0465 15.4087 45.5752 16.0967 45.945 16.8713C46.3147 17.6459 46.5173 18.4897 46.5394 19.3477C46.5619 20.0314 46.4676 20.7139 46.2606 21.3659C47.0464 21.8544 47.7109 22.5152 48.2036 23.2984C48.6964 24.0815 49.0044 24.9664 49.1047 25.8863C49.205 26.8061 49.0947 27.7366 48.7823 28.6076C48.4699 29.4785 47.9635 30.267 47.3014 30.9133C47.7682 31.6526 48.0604 32.4886 48.1555 33.3578C48.2505 34.227 48.1459 35.1064 47.8498 35.9291C47.5537 36.7518 47.074 37.4961 46.4469 38.1053C45.8197 38.7146 45.0619 39.1728 44.231 39.445C44.2429 39.5613 44.2509 39.676 44.2547 39.789C44.277 40.4901 44.1609 41.1887 43.9132 41.8449C43.6654 42.5012 43.2908 43.1022 42.8107 43.6136C42.3307 44.1251 41.7547 44.537 41.1154 44.8257C40.4762 45.1145 39.7863 45.2745 39.0852 45.2967C39.0271 45.2967 38.9688 45.2967 38.9107 45.2967" fill="black"/>
<path d="M33.2324 36.5628C33.1437 36.5628 33.0559 36.545 32.9743 36.5104C32.8926 36.4758 32.8188 36.4252 32.7572 36.3615C32.0781 35.6588 31.6273 34.7673 31.464 33.8038C31.3008 32.8404 31.4328 31.8501 31.8425 30.963C31.9196 30.8092 32.0535 30.6915 32.2159 30.6347C32.3782 30.578 32.5563 30.5866 32.7124 30.6589C32.8685 30.7312 32.9903 30.8614 33.0521 31.0219C33.1138 31.1824 33.1105 31.3607 33.0431 31.5189C32.7455 32.1635 32.65 32.883 32.7687 33.583C32.8874 34.283 33.2149 34.9307 33.7084 35.4412C33.7986 35.5346 33.8592 35.6525 33.8829 35.7802C33.9066 35.9079 33.8924 36.0396 33.8417 36.1592C33.7911 36.2787 33.7063 36.3807 33.5981 36.4525C33.4899 36.5243 33.3622 36.5626 33.2324 36.5628Z" fill="black"/>
<path d="M33.9353 30.1671C33.8116 30.1671 33.6903 30.1324 33.5853 30.067C33.4803 30.0015 33.3957 29.9081 33.3411 29.797C33.039 29.1835 32.8489 28.521 32.7795 27.8407C32.768 27.7529 32.7743 27.6637 32.7978 27.5784C32.8214 27.493 32.8619 27.4133 32.9169 27.3438C32.9718 27.2744 33.0402 27.2167 33.1178 27.1742C33.1955 27.1316 33.2809 27.1051 33.369 27.0962C33.4571 27.0872 33.546 27.096 33.6307 27.122C33.7153 27.1481 33.7937 27.1909 33.8615 27.2479C33.9293 27.3049 33.985 27.3748 34.0253 27.4537C34.0655 27.5325 34.0896 27.6187 34.0959 27.707C34.1492 28.2317 34.2958 28.7427 34.5288 29.2158C34.5783 29.3166 34.6014 29.4284 34.5958 29.5406C34.5902 29.6528 34.5561 29.7616 34.4967 29.857C34.4373 29.9524 34.3545 30.031 34.2563 30.0856C34.1581 30.1401 34.0477 30.1687 33.9353 30.1686" fill="#003D73"/>
<path d="M33.438 28.4332C33.2741 28.433 33.1162 28.3719 32.9948 28.2618C32.8734 28.1517 32.7972 28.0005 32.7811 27.8374C32.768 27.7086 32.7593 27.5781 32.755 27.4461C32.7095 26.1559 33.1042 24.8886 33.8742 23.8523C33.9258 23.7825 33.9906 23.7235 34.065 23.6787C34.1394 23.6339 34.2219 23.6042 34.3078 23.5913C34.3937 23.5784 34.4812 23.5825 34.5655 23.6035C34.6498 23.6244 34.7291 23.6617 34.7989 23.7133C34.8688 23.7649 34.9277 23.8298 34.9725 23.9042C35.0173 23.9786 35.0469 24.0611 35.0598 24.1469C35.0727 24.2328 35.0686 24.3204 35.0477 24.4047C35.0268 24.4889 34.9894 24.5682 34.9378 24.6381C34.3453 25.4355 34.0418 26.4108 34.0772 27.4037C34.0772 27.5048 34.0869 27.6067 34.0967 27.7062C34.1053 27.7926 34.0969 27.8799 34.0718 27.9631C34.0467 28.0463 34.0054 28.1236 33.9504 28.1908C33.8954 28.2581 33.8276 28.3138 33.751 28.3548C33.6744 28.3958 33.5905 28.4214 33.504 28.4299C33.482 28.4299 33.46 28.4299 33.4372 28.4299" fill="#003D73"/>
<path d="M37.2122 24.6077C37.0715 24.6077 36.9345 24.5629 36.821 24.4798C36.3286 24.1179 35.8927 23.6846 35.528 23.1943C35.4734 23.125 35.4332 23.0453 35.4098 22.9602C35.3864 22.875 35.3804 22.7861 35.3919 22.6985C35.4035 22.6109 35.4324 22.5266 35.4771 22.4504C35.5218 22.3743 35.5814 22.3079 35.6522 22.2551C35.723 22.2023 35.8037 22.1642 35.8894 22.1431C35.9752 22.1221 36.0643 22.1184 36.1515 22.1323C36.2387 22.1462 36.3224 22.1775 36.3973 22.2242C36.4722 22.271 36.5369 22.3323 36.5877 22.4045C36.874 22.7891 37.2161 23.1289 37.6026 23.4128C37.7149 23.4954 37.7981 23.6114 37.8406 23.7442C37.8831 23.8769 37.8827 24.0197 37.8392 24.1522C37.7958 24.2847 37.7115 24.4 37.5986 24.4818C37.4858 24.5636 37.35 24.6077 37.2106 24.6077" fill="black"/>
<path d="M36.0581 23.4597C35.9548 23.46 35.8529 23.436 35.7606 23.3897C35.6683 23.3434 35.5881 23.2761 35.5266 23.1932C35.0456 22.5483 34.6982 21.814 34.5045 21.0331C34.4835 20.9488 34.4793 20.8612 34.4921 20.7753C34.505 20.6894 34.5347 20.6069 34.5795 20.5324C34.6243 20.458 34.6832 20.3931 34.753 20.3415C34.8229 20.2899 34.9024 20.2525 34.9867 20.2315C35.071 20.2105 35.1585 20.2063 35.2444 20.2192C35.3303 20.2321 35.4129 20.2618 35.4874 20.3065C35.5618 20.3513 35.6266 20.4103 35.6782 20.4802C35.7298 20.55 35.7673 20.6293 35.7882 20.7136C35.94 21.3244 36.2118 21.8988 36.5878 22.4033C36.6621 22.5016 36.7075 22.6187 36.7188 22.7414C36.7301 22.864 36.7068 22.9874 36.6517 23.0976C36.5966 23.2077 36.5118 23.3004 36.4069 23.3649C36.302 23.4295 36.1813 23.4634 36.0581 23.463" fill="black"/>
<path d="M43.9319 24.3885C43.7963 24.3883 43.6639 24.3464 43.5529 24.2686C43.4418 24.1907 43.3573 24.0806 43.3109 23.9532C43.2644 23.8257 43.2584 23.6871 43.2934 23.556C43.3283 23.425 43.4028 23.3078 43.5065 23.2205C44.161 22.6716 44.6566 21.9575 44.9419 21.1524C45.2272 20.3473 45.2918 19.4805 45.1289 18.642C44.9661 17.8035 44.5817 17.0239 44.0157 16.3841C43.4498 15.7443 42.7229 15.2677 41.9105 15.0037C41.0981 14.7398 40.23 14.6981 39.3961 14.8831C38.5622 15.068 37.7929 15.4728 37.1683 16.0555C36.5437 16.6381 36.0864 17.3773 35.844 18.1964C35.6016 19.0154 35.5829 19.8844 35.7898 20.7132C35.8266 20.8814 35.7963 21.0573 35.7055 21.2035C35.6146 21.3498 35.4705 21.4549 35.3035 21.4966C35.1364 21.5382 34.9596 21.5132 34.8107 21.4267C34.6619 21.3403 34.5527 21.1992 34.5061 21.0335C34.24 19.9743 34.2624 18.8631 34.5712 17.8155C34.8799 16.7679 35.4638 15.8222 36.2619 15.0766C37.06 14.3311 38.0432 13.8129 39.1094 13.5761C40.1755 13.3393 41.2857 13.3924 42.3244 13.73C43.3631 14.0675 44.2924 14.6772 45.0157 15.4955C45.739 16.3139 46.2298 17.311 46.4372 18.3833C46.6445 19.4556 46.5608 20.5639 46.1948 21.5929C45.8287 22.6219 45.1938 23.534 44.3558 24.2344C44.237 24.3346 44.0866 24.3895 43.9312 24.3893" fill="black"/>
<path d="M42.4264 39.7476C42.0631 39.7478 41.7006 39.7137 41.3438 39.6457C41.2582 39.6299 41.1766 39.5974 41.1036 39.5501C41.0306 39.5027 40.9676 39.4413 40.9183 39.3696C40.8691 39.2978 40.8344 39.217 40.8164 39.1319C40.7985 39.0467 40.7976 38.9588 40.8137 38.8733C40.8298 38.7877 40.8627 38.7062 40.9104 38.6334C40.9581 38.5605 41.0197 38.4978 41.0917 38.4489C41.1636 38.3999 41.2444 38.3657 41.3297 38.3481C41.4149 38.3305 41.5029 38.3299 41.5884 38.3464C42.7361 38.5604 43.922 38.3135 44.889 37.6593C45.856 37.005 46.5262 35.996 46.7544 34.8511C46.9827 33.7061 46.7506 32.5172 46.1085 31.5422C45.4663 30.5671 44.4657 29.8844 43.3237 29.6419C43.1562 29.6022 43.0108 29.4988 42.9183 29.3537C42.8258 29.2085 42.7935 29.0331 42.8281 28.8645C42.8628 28.6959 42.9617 28.5474 43.104 28.4506C43.2463 28.3538 43.4208 28.3162 43.5903 28.3458C44.972 28.6305 46.2012 29.4123 47.0448 30.543C47.8884 31.6737 48.2877 33.0746 48.1671 34.4801C48.0465 35.8857 47.4144 37.1982 46.3905 38.1686C45.3666 39.139 44.0222 39.7 42.6122 39.7451C42.5511 39.7451 42.4883 39.7451 42.4272 39.7451" fill="black"/>
<path d="M36.246 37.8482C35.8574 37.8483 35.4701 37.8017 35.0926 37.7096C35.0083 37.6889 34.9288 37.6519 34.8588 37.6006C34.7888 37.5493 34.7295 37.4847 34.6845 37.4105C34.6394 37.3362 34.6094 37.2539 34.5961 37.1681C34.5829 37.0823 34.5867 36.9947 34.6073 36.9104C34.6279 36.826 34.6648 36.7466 34.7161 36.6765C34.7674 36.6065 34.8321 36.5472 34.9064 36.5021C34.9806 36.457 35.0629 36.427 35.1487 36.4138C35.2346 36.4005 35.3221 36.4044 35.4064 36.425C35.7185 36.5002 36.0392 36.5333 36.3601 36.5236C37.1518 36.5002 37.9125 36.2103 38.519 35.7008C39.1255 35.1914 39.5424 34.4922 39.7021 33.7164C39.7377 33.5447 39.8402 33.394 39.9868 33.2978C40.1335 33.2016 40.3124 33.1676 40.4841 33.2033C40.6559 33.239 40.8064 33.3414 40.9026 33.4881C40.9989 33.6347 41.0328 33.8136 40.9972 33.9854C40.7779 35.0527 40.2048 36.0147 39.3703 36.7153C38.5359 37.416 37.4892 37.8143 36.4001 37.8457C36.3479 37.8457 36.2958 37.8457 36.2444 37.8457" fill="black"/>
<path d="M33.2323 36.5666C33.1434 36.5667 33.0556 36.5488 32.9738 36.5141C32.892 36.4793 32.8179 36.4284 32.7563 36.3644C32.022 35.6032 31.5565 34.6231 31.4305 33.5729C31.3046 32.5228 31.5251 31.4603 32.0586 30.547C32.1511 30.4037 32.2952 30.3017 32.4612 30.2622C32.6271 30.2226 32.8019 30.2487 32.9491 30.3349C33.0963 30.4211 33.2045 30.5608 33.2512 30.7248C33.2979 30.8889 33.2794 31.0646 33.1997 31.2154C32.8123 31.8795 32.6523 32.652 32.7439 33.4154C32.8356 34.1788 33.1739 34.8914 33.7075 35.445C33.7978 35.5384 33.8587 35.6562 33.8824 35.7839C33.9062 35.9116 33.8918 36.0436 33.841 36.1631C33.7903 36.2827 33.7053 36.3846 33.5969 36.4563C33.4885 36.5279 33.3614 36.566 33.2315 36.5658" fill="#003D73"/>
<path d="M33.9364 30.167C33.8004 30.1673 33.6677 30.1257 33.5563 30.0478C33.4448 29.9699 33.3601 29.8595 33.3137 29.7317C33.2673 29.6039 33.2613 29.4649 33.2968 29.3336C33.3322 29.2023 33.4072 29.0852 33.5117 28.9982C33.8677 28.6747 34.2892 28.4313 34.7473 28.2845C35.2054 28.1377 35.6896 28.0908 36.1674 28.1472C36.254 28.154 36.3383 28.1779 36.4157 28.2174C36.4931 28.2569 36.5619 28.3111 36.6183 28.3772C36.6747 28.4433 36.7176 28.5198 36.7445 28.6025C36.7713 28.6851 36.7816 28.7722 36.7747 28.8588C36.7679 28.9454 36.7439 29.0298 36.7045 29.1071C36.665 29.1845 36.6107 29.2534 36.5447 29.3098C36.4786 29.3662 36.402 29.409 36.3194 29.4358C36.2368 29.4626 36.1497 29.4729 36.0631 29.466C35.7566 29.424 35.4446 29.4512 35.1501 29.5457C34.8555 29.6403 34.5858 29.7997 34.361 30.0122C34.242 30.1119 34.0916 30.1673 33.9364 30.167Z" fill="#003D73"/>
<path d="M34.7727 21.5596C32.2712 21.5596 29.1909 19.0115 28.8274 18.7067C28.7542 18.6446 28.6954 18.5673 28.6551 18.4801C28.6149 18.393 28.5941 18.2981 28.5942 18.2021V11.599C28.5942 11.4235 28.6639 11.2553 28.788 11.1312C28.912 11.0072 29.0803 10.9375 29.2557 10.9375C29.4311 10.9375 29.5993 11.0072 29.7234 11.1312C29.8474 11.2553 29.9172 11.4235 29.9172 11.599V17.8859C31.0103 18.758 33.4955 20.438 35.0523 20.2179C35.1383 20.2057 35.2258 20.2105 35.3099 20.2322C35.394 20.2538 35.4729 20.2918 35.5423 20.3439C35.6118 20.3961 35.6702 20.4614 35.7144 20.5361C35.7586 20.6108 35.7876 20.6936 35.7998 20.7795C35.812 20.8655 35.8071 20.953 35.7855 21.0371C35.7639 21.1211 35.7259 21.2001 35.6738 21.2695C35.6216 21.339 35.5563 21.3974 35.4816 21.4416C35.4068 21.4857 35.3241 21.5148 35.2382 21.527C35.0826 21.5486 34.9257 21.5592 34.7686 21.5588" fill="black"/>
<path d="M32.157 28.6808C31.0638 28.6394 29.9881 28.3924 28.9863 27.9529C28.8695 27.9009 28.7704 27.8162 28.7008 27.709C28.6312 27.6018 28.5942 27.4767 28.5942 27.3489V22.8087C28.5943 22.6706 28.6376 22.5361 28.718 22.4238C28.7984 22.3116 28.9119 22.2273 29.0426 22.1827C30.3647 21.7328 33.3015 21.5053 34.9496 23.8683C34.9993 23.9396 35.0345 24.0199 35.0531 24.1048C35.0717 24.1896 35.0734 24.2772 35.0582 24.3627C35.0429 24.4482 35.011 24.5299 34.9642 24.603C34.9173 24.6761 34.8566 24.7393 34.7853 24.789C34.7141 24.8387 34.6339 24.8738 34.549 24.8924C34.4642 24.9111 34.3765 24.9128 34.291 24.8976C34.2055 24.8823 34.1239 24.8504 34.0507 24.8036C33.9776 24.7568 33.9143 24.696 33.8647 24.6248C33.4094 24.0415 32.7913 23.6062 32.0887 23.3741C31.386 23.1419 30.6304 23.1233 29.9172 23.3206V26.9006C30.7576 27.2054 32.2623 27.5926 33.1605 27.1736C33.2392 27.1368 33.3243 27.1158 33.4111 27.1119C33.4978 27.108 33.5845 27.1212 33.6662 27.1508C33.7478 27.1804 33.8229 27.2258 33.8871 27.2844C33.9512 27.343 34.0032 27.4137 34.04 27.4923C34.0768 27.571 34.0978 27.6562 34.1017 27.7429C34.1056 27.8297 34.0924 27.9164 34.0628 27.9981C34.0332 28.0798 33.9877 28.1548 33.9291 28.2189C33.8706 28.283 33.8 28.335 33.7213 28.3718C33.229 28.588 32.6953 28.6937 32.1578 28.6816" fill="#003D73"/>
<path d="M31.2923 37.1284C30.4471 37.1241 29.6185 36.8927 28.8934 36.4583C28.8015 36.3982 28.726 36.3162 28.6737 36.2195C28.6215 36.1229 28.5942 36.0148 28.5942 35.9049V31.8196C28.5942 31.6827 28.6367 31.5491 28.7157 31.4373C29.1915 30.8125 29.8485 30.3499 30.5971 30.1127C31.3457 29.8755 32.1493 29.8752 32.898 30.1119C33.0665 30.1611 33.2086 30.2752 33.2929 30.4291C33.3773 30.583 33.3971 30.7643 33.348 30.9328C33.2988 31.1013 33.1847 31.2433 33.0308 31.3277C32.8768 31.4121 32.6957 31.4319 32.5272 31.3827C32.0732 31.2349 31.5863 31.22 31.1241 31.3398C30.662 31.4597 30.2437 31.7094 29.9188 32.0592V35.5079C30.3898 35.7278 30.9078 35.8281 31.4268 35.7996C31.9458 35.7712 32.4498 35.615 32.8939 35.3449C33.0436 35.2568 33.222 35.231 33.3906 35.2732C33.5591 35.3154 33.7042 35.4221 33.7947 35.5704C33.8852 35.7187 33.9138 35.8966 33.8743 36.0658C33.8348 36.235 33.7303 36.3818 33.5835 36.4747C32.8969 36.9034 32.1041 37.1315 31.2947 37.1333" fill="#003D73"/>
<path d="M29.2553 45.3136C29.1685 45.3136 29.0825 45.2965 29.0023 45.2633C28.9221 45.23 28.8493 45.1814 28.7879 45.12C28.7265 45.0586 28.6778 44.9857 28.6446 44.9055C28.6114 44.8252 28.5942 44.7393 28.5942 44.6525V39.0903C28.5941 38.949 28.6391 38.8113 28.7229 38.6976C28.8067 38.5839 28.9248 38.5001 29.0597 38.4584C29.2089 38.4111 32.7472 37.3361 34.6839 38.8725C34.8214 38.9815 34.9099 39.1407 34.9301 39.3149C34.9503 39.4892 34.9005 39.6642 34.7915 39.8017C34.6826 39.9392 34.5234 40.0279 34.3491 40.048C34.1749 40.0682 33.9998 40.0183 33.8623 39.9093C32.8793 39.1301 30.9743 39.3544 29.9155 39.5989V44.6525C29.9155 44.7394 29.8984 44.8254 29.8652 44.9057C29.8319 44.9859 29.783 45.0588 29.7216 45.1202C29.6601 45.1816 29.5872 45.2303 29.5069 45.2635C29.4266 45.2966 29.3405 45.3137 29.2536 45.3136" fill="black"/>
<path d="M17.3109 45.3107C17.2538 45.3107 17.1967 45.3107 17.1389 45.3107C16.4378 45.2881 15.748 45.1277 15.1089 44.8385C14.4698 44.5493 13.894 44.1371 13.4142 43.6254C12.9345 43.1136 12.5602 42.5123 12.3129 41.8559C12.0656 41.1995 11.95 40.5008 11.9727 39.7997C11.9765 39.6867 11.9844 39.572 11.9964 39.4558C11.1651 39.184 10.4068 38.7261 9.77925 38.1171C9.15168 37.508 8.67136 36.7637 8.37487 35.941C8.07837 35.1182 7.97352 34.2387 8.06829 33.3693C8.16307 32.4999 8.45497 31.6636 8.92177 30.924C8.25968 30.2777 7.75326 29.4892 7.44084 28.6183C7.12842 27.7474 7.01818 26.8168 7.11846 25.897C7.21874 24.9772 7.52692 24.0922 8.01967 23.3091C8.51243 22.526 9.17685 21.8652 9.96266 21.3767C9.75598 20.7246 9.66171 20.0421 9.6839 19.3585C9.70596 18.5004 9.90847 17.6567 10.2782 16.8821C10.648 16.1075 11.1767 15.4194 11.83 14.8627C12.4833 14.306 13.2465 13.893 14.07 13.6508C14.8934 13.4086 15.7586 13.3425 16.6093 13.4568C17.46 13.5711 18.2771 13.8633 19.0074 14.3143C19.7377 14.7653 20.3648 15.365 20.8479 16.0744C21.3311 16.7839 21.6595 17.5871 21.8116 18.4318C21.9638 19.2765 21.9364 20.1438 21.7312 20.9773C21.7109 21.0617 21.6743 21.1414 21.6233 21.2117C21.5723 21.282 21.5079 21.3415 21.4339 21.3869C21.3599 21.4323 21.2776 21.4627 21.1918 21.4763C21.1061 21.49 21.0185 21.4866 20.934 21.4663C20.8495 21.4461 20.7699 21.4094 20.6996 21.3584C20.6293 21.3074 20.5698 21.2431 20.5244 21.169C20.479 21.095 20.4486 21.0128 20.4349 20.927C20.4213 20.8412 20.4247 20.7536 20.4449 20.6692C20.6005 20.0184 20.6178 19.3422 20.4958 18.6842C20.3738 18.0263 20.1152 17.4013 19.7367 16.8495C19.3582 16.2977 18.8682 15.8313 18.2984 15.4806C17.7285 15.1299 17.0915 14.9026 16.4283 14.8133C15.7651 14.724 15.0906 14.7748 14.4483 14.9623C13.806 15.1498 13.2101 15.4699 12.6992 15.902C12.1882 16.3341 11.7735 16.8685 11.4819 17.4707C11.1903 18.0729 11.0281 18.7297 11.006 19.3984C10.9842 20.0912 11.1144 20.7804 11.3875 21.4174C11.4537 21.5728 11.4579 21.7477 11.3992 21.9061C11.3405 22.0645 11.2235 22.1944 11.072 22.2692C10.3486 22.6255 9.72716 23.1591 9.26548 23.8203C8.80381 24.4815 8.51694 25.2487 8.4316 26.0505C8.34626 26.8524 8.46521 27.6628 8.77738 28.4064C9.08955 29.1499 9.58478 29.8023 10.217 30.3029C10.3541 30.412 10.4422 30.5711 10.4621 30.7452C10.482 30.9193 10.4319 31.0941 10.3229 31.2313C9.85187 31.8221 9.53988 32.5236 9.41667 33.269C9.29346 34.0145 9.36313 34.7791 9.61906 35.49C9.87498 36.2009 10.3086 36.8344 10.8787 37.3303C11.4488 37.8261 12.1363 38.1678 12.8759 38.3228C12.9611 38.3409 13.042 38.3758 13.1137 38.4253C13.1855 38.4748 13.2468 38.5379 13.2941 38.6111C13.3415 38.6844 13.3739 38.7662 13.3895 38.852C13.4052 38.9377 13.4037 39.0257 13.3853 39.111C13.3322 39.3505 13.3011 39.5944 13.2924 39.8397C13.2585 40.9047 13.6492 41.9395 14.3783 42.7165C15.1075 43.4935 16.1154 43.949 17.1804 43.9829C18.2453 44.0141 19.2793 43.6236 20.0578 42.8963C20.7928 42.207 21.2417 41.2665 21.3152 40.2615C21.3887 39.2566 21.0816 38.2607 20.4547 37.4718C20.3967 37.4042 20.353 37.3256 20.3261 37.2407C20.2992 37.1559 20.2897 37.0664 20.2981 36.9778C20.3066 36.8891 20.3329 36.8031 20.3754 36.7249C20.4179 36.6466 20.4757 36.5777 20.5455 36.5224C20.6152 36.467 20.6954 36.4263 20.7813 36.4026C20.8671 36.379 20.9569 36.3729 21.0451 36.3848C21.1334 36.3966 21.2183 36.4262 21.2949 36.4716C21.3715 36.5171 21.4381 36.5775 21.4907 36.6493C22.1153 37.4355 22.5055 38.3818 22.6166 39.3797C22.7276 40.3775 22.555 41.3865 22.1185 42.2907C21.6821 43.1949 20.9994 43.9577 20.149 44.4914C19.2986 45.0252 18.3149 45.3083 17.3109 45.3082" fill="black"/>
<path d="M22.9905 36.5639C22.8606 36.5637 22.7338 36.5253 22.6256 36.4535C22.5174 36.3818 22.4327 36.2798 22.382 36.1602C22.3314 36.0407 22.317 35.9089 22.3407 35.7812C22.3644 35.6536 22.4251 35.5357 22.5152 35.4423C23.1234 34.8139 23.4754 33.9811 23.5024 33.1069C23.5202 32.5599 23.4084 32.0165 23.1763 31.5208C23.1398 31.442 23.119 31.3568 23.1154 31.2701C23.1118 31.1833 23.1254 31.0966 23.1552 31.0151C23.1851 30.9335 23.2308 30.8586 23.2896 30.7947C23.3483 30.7307 23.4191 30.6791 23.4979 30.6425C23.5767 30.606 23.6619 30.5853 23.7486 30.5816C23.8354 30.578 23.9221 30.5916 24.0037 30.6214C24.0852 30.6513 24.16 30.6969 24.224 30.7557C24.2879 30.8145 24.3396 30.8853 24.3762 30.9641C24.6945 31.6476 24.8467 32.3967 24.8204 33.1502C24.7831 34.3528 24.2986 35.4982 23.4616 36.3625C23.4 36.4262 23.3261 36.477 23.2445 36.5116C23.1628 36.5461 23.075 36.564 22.9864 36.5639" fill="black"/>
<path d="M22.2853 30.1666C22.173 30.1664 22.0627 30.1377 21.9646 30.0831C21.8665 30.0286 21.7839 29.95 21.7246 29.8547C21.6652 29.7594 21.6311 29.6506 21.6254 29.5385C21.6197 29.4264 21.6426 29.3146 21.6919 29.2138C21.925 28.741 22.0716 28.2302 22.1248 27.7058C22.1423 27.5312 22.2283 27.3708 22.3642 27.2597C22.5 27.1487 22.6744 27.0961 22.8489 27.1137C23.0235 27.1312 23.1839 27.2173 23.295 27.3532C23.406 27.489 23.4587 27.6634 23.4411 27.8379C23.3722 28.5183 23.1819 29.1808 22.8795 29.7941C22.825 29.9052 22.7404 29.9988 22.6354 30.0642C22.5303 30.1297 22.409 30.1644 22.2853 30.1642" fill="#003D73"/>
<path d="M22.785 28.435C22.7624 28.4363 22.7398 28.4363 22.7173 28.435C22.6309 28.4262 22.5471 28.4005 22.4706 28.3594C22.3942 28.3182 22.3266 28.2624 22.2717 28.1951C22.2169 28.1278 22.1758 28.0503 22.1508 27.9672C22.1259 27.884 22.1176 27.7967 22.1264 27.7103C22.1361 27.6117 22.1435 27.5114 22.146 27.4103C22.1814 26.4172 21.8778 25.4416 21.2852 24.6439C21.181 24.5029 21.137 24.3262 21.1631 24.1528C21.1892 23.9794 21.2831 23.8234 21.4242 23.7192C21.5652 23.615 21.7419 23.5711 21.9153 23.5972C22.0887 23.6233 22.2446 23.7171 22.3488 23.8582C23.119 24.894 23.5137 26.1612 23.468 27.4511C23.468 27.5832 23.455 27.7153 23.442 27.8449C23.4252 28.0076 23.3489 28.1583 23.2275 28.268C23.1062 28.3778 22.9485 28.4387 22.785 28.4391" fill="#003D73"/>
<path d="M19.0107 24.6067C18.8713 24.6067 18.7355 24.5626 18.6226 24.4808C18.5097 24.399 18.4256 24.2837 18.3821 24.1512C18.3386 24.0188 18.3381 23.876 18.3806 23.7432C18.4231 23.6104 18.5064 23.4944 18.6187 23.4118C19.0054 23.1282 19.3474 22.7884 19.6335 22.4035C19.6843 22.3313 19.7491 22.27 19.8241 22.2233C19.899 22.1765 19.9825 22.1452 20.0697 22.1313C20.1569 22.1174 20.2461 22.1211 20.3318 22.1422C20.4176 22.1633 20.4983 22.2013 20.5691 22.2541C20.6399 22.3069 20.6994 22.3733 20.7441 22.4495C20.7888 22.5256 20.8178 22.61 20.8294 22.6975C20.8409 22.7851 20.8348 22.8741 20.8114 22.9592C20.788 23.0444 20.7478 23.124 20.6931 23.1933C20.3284 23.6839 19.8924 24.1172 19.3995 24.4788C19.2863 24.5619 19.1496 24.6068 19.0091 24.6067" fill="black"/>
<path d="M20.163 23.4603C20.0399 23.4606 19.9191 23.4266 19.8142 23.362C19.7094 23.2974 19.6247 23.2049 19.5696 23.0948C19.5144 22.9847 19.4911 22.8614 19.5022 22.7388C19.5133 22.6162 19.5584 22.4991 19.6324 22.4007C20.0089 21.896 20.2811 21.3213 20.4328 20.7101C20.4517 20.6236 20.4878 20.5418 20.5389 20.4694C20.59 20.3971 20.6551 20.3358 20.7303 20.289C20.8056 20.2423 20.8894 20.2112 20.9769 20.1974C21.0644 20.1837 21.1538 20.1877 21.2397 20.2091C21.3256 20.2306 21.4064 20.2691 21.4772 20.3223C21.548 20.3755 21.6073 20.4424 21.6518 20.519C21.6963 20.5956 21.725 20.6803 21.7361 20.7681C21.7472 20.856 21.7406 20.9452 21.7166 21.0305C21.5224 21.811 21.1746 22.545 20.6936 23.1897C20.6321 23.2726 20.5519 23.3399 20.4596 23.3862C20.3673 23.4325 20.2654 23.4565 20.1622 23.4562" fill="black"/>
<path d="M12.2915 24.3894C12.1361 24.3894 11.9857 24.3346 11.8668 24.2345C11.0702 23.57 10.4558 22.7138 10.0814 21.7464C9.70707 20.7789 9.58503 19.7322 9.7268 18.7045C9.86858 17.6769 10.2695 16.7023 10.8919 15.8724C11.5142 15.0425 12.3375 14.3846 13.2842 13.9606C14.231 13.5367 15.27 13.3606 16.3036 13.449C17.3372 13.5374 18.3313 13.8873 19.1923 14.4659C20.0533 15.0444 20.7529 15.8325 21.2253 16.7561C21.6977 17.6796 21.9274 18.7081 21.8926 19.7449C21.8786 20.1793 21.8188 20.611 21.7141 21.0328C21.6931 21.1171 21.6557 21.1964 21.6041 21.2662C21.5525 21.3361 21.4876 21.3951 21.4131 21.4399C21.3387 21.4846 21.2561 21.5143 21.1702 21.5272C21.0843 21.5401 20.9967 21.5359 20.9124 21.5149C20.8281 21.4939 20.7488 21.4565 20.679 21.4049C20.6091 21.3533 20.5501 21.2884 20.5053 21.2139C20.4606 21.1395 20.4309 21.057 20.418 20.9711C20.4052 20.8851 20.4093 20.7975 20.4303 20.7133C20.5936 20.0616 20.6178 19.383 20.5016 18.7214C20.3853 18.0597 20.1311 17.43 19.7555 16.8731C19.3798 16.3162 18.8912 15.8445 18.3214 15.4889C17.7515 15.1332 17.1132 14.9014 16.4478 14.8087C15.7825 14.7159 15.1051 14.7642 14.4597 14.9504C13.8143 15.1366 13.2153 15.4565 12.7016 15.8894C12.188 16.3223 11.7712 16.8585 11.4784 17.4631C11.1855 18.0676 11.0232 18.7271 11.002 19.3985C10.9772 20.1237 11.1186 20.8451 11.4153 21.5073C11.7119 22.1696 12.1561 22.7553 12.7137 23.2197C12.8174 23.3071 12.8918 23.4242 12.9267 23.5553C12.9617 23.6863 12.9556 23.825 12.9091 23.9524C12.8627 24.0799 12.7783 24.19 12.6672 24.2678C12.5561 24.3457 12.4238 24.3876 12.2882 24.3877" fill="black"/>
<path d="M13.7966 39.7471C13.7347 39.7471 13.6727 39.7471 13.6108 39.7471C12.2008 39.702 10.8564 39.141 9.83246 38.1705C8.80856 37.2001 8.17637 35.8877 8.05577 34.4822C7.93516 33.0766 8.33453 31.6756 9.17814 30.5449C10.0217 29.4142 11.2509 28.6324 12.6326 28.3478C12.8022 28.3181 12.9766 28.3558 13.1189 28.4526C13.2612 28.5495 13.3602 28.6979 13.3949 28.8665C13.4295 29.035 13.3972 29.2106 13.3046 29.3557C13.2121 29.5008 13.0667 29.6042 12.8992 29.6439C11.7448 29.874 10.7291 30.5533 10.0755 31.5323C9.42194 32.5113 9.18406 33.7097 9.41418 34.8641C9.64431 36.0185 10.3236 37.0343 11.3026 37.6879C12.2816 38.3414 13.4801 38.5793 14.6345 38.3491C14.72 38.3327 14.8079 38.3332 14.8932 38.3508C14.9784 38.3684 15.0593 38.4027 15.1313 38.4516C15.2033 38.5006 15.2649 38.5633 15.3126 38.6361C15.3603 38.7089 15.3931 38.7904 15.4092 38.876C15.4253 38.9615 15.4244 39.0494 15.4064 39.1346C15.3885 39.2198 15.3539 39.3006 15.3046 39.3724C15.2553 39.4442 15.1924 39.5055 15.1194 39.5529C15.0463 39.6003 14.9647 39.6327 14.8791 39.6484C14.5223 39.7164 14.1598 39.7505 13.7966 39.7503" fill="black"/>
<path d="M19.9774 37.8478C19.9252 37.8478 19.8731 37.8478 19.8209 37.8478C18.7318 37.8163 17.6852 37.4179 16.8508 36.7173C16.0164 36.0166 15.443 35.0546 15.2237 33.9874C15.195 33.8184 15.233 33.645 15.3296 33.5035C15.4262 33.362 15.5739 33.2635 15.7416 33.2287C15.9094 33.1938 16.0841 33.2254 16.2291 33.3167C16.374 33.4081 16.4779 33.5521 16.5189 33.7184C16.6786 34.4942 17.0954 35.1935 17.7019 35.703C18.3084 36.2124 19.0691 36.5022 19.8608 36.5256C20.1817 36.5341 20.5022 36.501 20.8145 36.427C20.8989 36.4064 20.9864 36.4026 21.0723 36.4159C21.1581 36.4291 21.2404 36.4592 21.3146 36.5042C21.3889 36.5493 21.4535 36.6085 21.5048 36.6786C21.5561 36.7486 21.5931 36.828 21.6137 36.9124C21.6343 36.9967 21.6381 37.0844 21.6249 37.1702C21.6116 37.256 21.5816 37.3384 21.5365 37.4126C21.4915 37.4868 21.4322 37.5514 21.3622 37.6027C21.2921 37.654 21.2127 37.6911 21.1283 37.7117C20.7508 37.8038 20.3635 37.8502 19.9749 37.8502" fill="black"/>
<path d="M22.9907 36.5665C22.8608 36.5667 22.7337 36.5286 22.6253 36.457C22.5169 36.3854 22.432 36.2835 22.3812 36.1639C22.3304 36.0443 22.316 35.9124 22.3397 35.7847C22.3635 35.657 22.4243 35.539 22.5147 35.4457C23.0482 34.8921 23.3866 34.1796 23.4782 33.4162C23.5699 32.6528 23.4099 31.8803 23.0225 31.2161C22.9786 31.1412 22.9499 31.0584 22.938 30.9724C22.9262 30.8863 22.9314 30.7989 22.9534 30.7148C22.9753 30.6308 23.0136 30.5519 23.066 30.4827C23.1184 30.4135 23.184 30.3553 23.2589 30.3114C23.3338 30.2675 23.4167 30.2388 23.5027 30.2269C23.5887 30.215 23.6762 30.2203 23.7602 30.2422C23.8442 30.2642 23.9231 30.3024 23.9923 30.3549C24.0616 30.4073 24.1198 30.4729 24.1637 30.5478C24.697 31.4611 24.9175 32.5235 24.7915 33.5736C24.6656 34.6237 24.2001 35.6039 23.4659 36.3652C23.4043 36.4292 23.3304 36.4801 23.2486 36.5148C23.1668 36.5496 23.0787 36.5675 22.9899 36.5674" fill="#003D73"/>
<path d="M22.2851 30.1667C22.1299 30.167 21.9795 30.1125 21.8605 30.0127C21.6357 29.8001 21.3661 29.6407 21.0715 29.5462C20.777 29.4516 20.465 29.4244 20.1585 29.4666C20.0719 29.4734 19.9848 29.4631 19.9022 29.4363C19.8196 29.4095 19.743 29.3667 19.6769 29.3103C19.6109 29.254 19.5565 29.185 19.517 29.1077C19.4776 29.0303 19.4537 28.9459 19.4469 28.8593C19.44 28.7727 19.4503 28.6856 19.4771 28.603C19.5039 28.5204 19.5467 28.4438 19.6031 28.3777C19.6595 28.3117 19.7284 28.2574 19.8058 28.2179C19.8832 28.1785 19.9675 28.1546 20.0541 28.1478C20.5319 28.0906 21.0164 28.137 21.4747 28.2838C21.933 28.4306 22.3542 28.6745 22.7098 28.9987C22.8139 29.0858 22.8887 29.2029 22.9239 29.334C22.9592 29.4652 22.9532 29.6039 22.9068 29.7315C22.8604 29.8591 22.7759 29.9694 22.6646 30.0472C22.5534 30.1251 22.4209 30.1668 22.2851 30.1667Z" fill="#003D73"/>
<path d="M21.4495 21.5592C21.2927 21.5599 21.136 21.5492 20.9808 21.5274C20.8948 21.5152 20.8121 21.4862 20.7374 21.442C20.6626 21.3979 20.5973 21.3394 20.5451 21.27C20.493 21.2006 20.455 21.1216 20.4334 21.0375C20.4118 20.9534 20.407 20.8659 20.4192 20.78C20.4314 20.694 20.4604 20.6113 20.5045 20.5366C20.5487 20.4618 20.6072 20.3965 20.6766 20.3444C20.746 20.2922 20.825 20.2542 20.9091 20.2326C20.9932 20.211 21.0807 20.2062 21.1666 20.2184C22.7218 20.4393 25.212 18.7577 26.3018 17.8863V11.5986C26.3078 11.4272 26.3801 11.2648 26.5035 11.1457C26.6269 11.0265 26.7917 10.96 26.9632 10.96C27.1347 10.96 27.2996 11.0265 27.423 11.1457C27.5464 11.2648 27.6187 11.4272 27.6247 11.5986V18.201C27.6246 18.297 27.6037 18.3919 27.5633 18.479C27.5229 18.5661 27.464 18.6434 27.3908 18.7055C27.028 19.0136 23.947 21.5584 21.4454 21.5584" fill="black"/>
<path d="M24.0663 28.6815C23.5289 28.6937 22.9953 28.5879 22.503 28.3718C22.4243 28.335 22.3536 28.283 22.295 28.2189C22.2364 28.1547 22.1911 28.0797 22.1615 27.9981C22.1319 27.9164 22.1187 27.8297 22.1226 27.7429C22.1265 27.6561 22.1475 27.571 22.1843 27.4923C22.2211 27.4136 22.273 27.3429 22.3371 27.2844C22.4013 27.2258 22.4764 27.1804 22.558 27.1508C22.6397 27.1212 22.7264 27.108 22.8131 27.1119C22.8999 27.1158 22.9851 27.1367 23.0638 27.1736C23.9604 27.595 25.4676 27.207 26.3063 26.9022V23.3214C25.5932 23.1253 24.8379 23.1445 24.1356 23.3765C23.4333 23.6086 22.8154 24.0431 22.3595 24.6256C22.3099 24.6968 22.2466 24.7575 22.1735 24.8044C22.1003 24.8512 22.0187 24.8831 21.9332 24.8983C21.8477 24.9136 21.7601 24.9119 21.6753 24.8933C21.5904 24.8746 21.5101 24.8394 21.4388 24.7898C21.3676 24.7401 21.3068 24.6769 21.26 24.6038C21.2132 24.5306 21.1813 24.449 21.166 24.3635C21.1508 24.278 21.1526 24.1903 21.1712 24.1055C21.1898 24.0207 21.2249 23.9404 21.2746 23.8692C22.9219 21.5053 25.858 21.7344 27.1817 22.1835C27.3124 22.2281 27.4259 22.3124 27.5063 22.4246C27.5867 22.5369 27.6299 22.6715 27.63 22.8095V27.3496C27.63 27.4774 27.593 27.6025 27.5234 27.7097C27.4538 27.8169 27.3547 27.9016 27.2379 27.9536C26.2361 28.3932 25.1596 28.6401 24.0663 28.6815Z" fill="#003D73"/>
<path d="M24.9344 37.1326C24.1249 37.1309 23.3321 36.9027 22.6456 36.4739C22.4988 36.3811 22.3943 36.2343 22.3547 36.0651C22.3152 35.8959 22.3438 35.7181 22.4343 35.5698C22.5249 35.4215 22.6701 35.3148 22.8386 35.2726C23.0071 35.2304 23.1854 35.2561 23.3351 35.3442C23.7795 35.6135 24.2835 35.7693 24.8024 35.7977C25.3212 35.8262 25.8391 35.7264 26.3103 35.5073V32.0594C25.9852 31.7097 25.567 31.4602 25.1048 31.3403C24.6427 31.2205 24.1559 31.2352 23.7019 31.3828C23.5356 31.4254 23.3593 31.4017 23.2102 31.3166C23.061 31.2316 22.9507 31.092 22.9026 30.9272C22.8545 30.7624 22.8722 30.5853 22.9521 30.4334C23.0321 30.2814 23.168 30.1665 23.331 30.1129C24.0798 29.8761 24.8834 29.8765 25.632 30.1137C26.3806 30.3509 27.0376 30.8135 27.5133 31.4382C27.5925 31.55 27.635 31.6836 27.6348 31.8205V35.9059C27.6349 36.0157 27.6076 36.1238 27.5553 36.2204C27.5031 36.317 27.4276 36.3992 27.3356 36.4593C26.6105 36.8936 25.782 37.125 24.9368 37.1294" fill="#003D73"/>
<path d="M26.9673 45.3098C26.8804 45.3099 26.7943 45.2928 26.714 45.2596C26.6337 45.2264 26.5608 45.1779 26.4993 45.1165C26.4378 45.0551 26.3891 44.9821 26.3558 44.9018C26.3226 44.8216 26.3055 44.7356 26.3055 44.6487V39.5951C25.2458 39.3505 23.3425 39.1273 22.3595 39.9057C22.2915 39.9596 22.2134 39.9995 22.1299 40.0233C22.0465 40.0471 21.9592 40.0544 21.8729 40.0444C21.7867 40.0344 21.7032 40.0076 21.6274 39.9654C21.5515 39.9232 21.4846 39.8665 21.4307 39.7984C21.3767 39.7304 21.3368 39.6525 21.3129 39.569C21.2891 39.4855 21.282 39.3981 21.292 39.3119C21.3019 39.2256 21.3288 39.1422 21.371 39.0663C21.4132 38.9904 21.4698 38.9237 21.5378 38.8697C23.477 37.3349 27.0137 38.4091 27.1621 38.4548C27.2968 38.4965 27.4147 38.5803 27.4985 38.6938C27.5822 38.8073 27.6274 38.9446 27.6275 39.0856V44.6479C27.6275 44.8232 27.5579 44.9914 27.4339 45.1153C27.3099 45.2393 27.1418 45.309 26.9665 45.309" fill="black"/>
</g>
</g>
</g>
</g>
<defs>
<clipPath id="clip0_419_1568">
<rect width="55.4273" height="55.4273" fill="white" transform="translate(0.669434 0.579102)"/>
</clipPath>
<clipPath id="clip1_419_1568">
<rect width="55.4273" height="55.4273" fill="white" transform="translate(0.669434 0.579102)"/>
</clipPath>
<clipPath id="clip2_419_1568">
<rect width="55.4273" height="55.4273" fill="white" transform="translate(0.669434 0.579102)"/>
</clipPath>
</defs>
</svg>
