<svg width="57" height="56" viewBox="0 0 57 56" fill="none" xmlns="http://www.w3.org/2000/svg">
<g clip-path="url(#clip0_419_1829)">
<g clip-path="url(#clip1_419_1829)">
<g clip-path="url(#clip2_419_1829)">
<path d="M9.06903 36.7154H12.2479L12.737 38.6497C12.8739 39.2047 13.4144 39.2325 13.8847 39.2031C13.5195 39.4558 12.9881 39.7737 13.1511 40.3076L13.7771 42.7945C13.8094 42.9226 13.8758 43.0397 13.9692 43.1332C14.0626 43.2268 14.1796 43.2934 14.3077 43.3259C14.8783 43.4678 15.5002 43.5974 16.145 43.7335C19.6499 44.4565 22.33 45.1811 22.33 47.3273C22.3296 47.5135 22.4 47.693 22.527 47.8292C22.654 47.9654 22.8281 48.0483 23.0139 48.0609C24.6255 48.1293 26.2396 48.1097 27.8491 48.0022C28.1523 48.6869 27.8312 50.185 28.8745 50.2633C28.9787 50.263 29.0816 50.2403 29.1763 50.1967C29.2709 50.1531 29.3551 50.0896 29.4231 50.0106C29.4916 49.9311 29.5424 49.838 29.5722 49.7374C29.602 49.6368 29.6101 49.531 29.5959 49.427C28.6267 42.4807 24.6555 39.4754 21.6078 38.1785C30.1575 37.7033 33.6893 46.0231 34.2599 49.6422C34.2968 49.8268 34.4039 49.99 34.5586 50.0974C34.7133 50.2048 34.9036 50.248 35.0895 50.2181C35.2754 50.1881 35.4425 50.0873 35.5556 49.9367C35.6687 49.7861 35.7191 49.5976 35.6961 49.4107C35.5201 48.449 35.2633 47.504 34.9283 46.5855C35.622 46.2285 37.0011 45.9155 36.5137 44.9105C35.9276 44.0595 35.106 45.014 34.3822 45.217C31.6923 38.7638 25.3638 35.2531 17.7206 37.2289C17.548 37.2685 17.3957 37.3692 17.2915 37.5123C17.1874 37.6554 17.1385 37.8314 17.1539 38.0077C17.1693 38.1841 17.2479 38.3489 17.3752 38.4718C17.5026 38.5947 17.6701 38.6674 17.8469 38.6766C20.0385 38.8964 22.1159 39.7607 23.8168 41.1602C25.5248 42.566 26.7826 44.4422 27.4342 46.5562C25.8456 46.6524 24.4754 46.6377 23.7214 46.6173C23.1215 43.2387 18.2602 42.739 15.0756 42.0038L14.6802 40.4315L16.5623 39.0654C16.6882 38.9749 16.7823 38.8469 16.8309 38.6997C16.8796 38.5524 16.8803 38.3936 16.8331 38.2459C16.7858 38.0982 16.693 37.9693 16.5679 37.8777C16.4428 37.7861 16.2919 37.7364 16.1368 37.7359H14.0053L13.5163 35.8017C13.4764 35.6445 13.3856 35.5049 13.2581 35.4047C13.1305 35.3046 12.9734 35.2496 12.8112 35.2482H9.06821C8.90422 35.248 8.74304 35.2055 8.60026 35.1248C8.45747 35.0442 8.33791 34.928 8.25311 34.7877C8.17203 34.6599 8.12551 34.5132 8.11808 34.3621C8.11065 34.2109 8.14257 34.0604 8.21072 33.9253C9.8229 30.7079 10.5207 27.1097 10.2281 23.5229C10.3911 16.447 18.0531 6.46842 28.0439 7.8272C30.2042 8.10317 32.2849 8.81926 34.1575 9.93123C36.0301 11.0432 37.6547 12.5274 38.931 14.2921C40.2072 16.0568 41.108 18.0646 41.5775 20.1912C42.0471 22.3178 42.0756 24.5181 41.6611 26.6562C41.6338 26.7528 41.6269 26.8541 41.6406 26.9535C41.6544 27.053 41.6885 27.1486 41.741 27.2342C41.7934 27.3199 41.8629 27.3938 41.9453 27.4513C42.0276 27.5088 42.1209 27.5486 42.2194 27.5683C42.3179 27.588 42.4194 27.5872 42.5175 27.5658C42.6156 27.5445 42.7083 27.5031 42.7896 27.4442C42.871 27.3853 42.9393 27.3103 42.9903 27.2238C43.0413 27.1373 43.0738 27.0411 43.0859 26.9415C43.712 23.8098 43.4621 20.5661 42.3638 17.5673C41.2656 14.5684 39.3615 11.9306 36.8609 9.94403C34.3699 7.97165 31.3774 6.73454 28.2208 6.37223C17.0978 4.92134 8.57671 15.9179 8.79434 24.0454C8.9973 27.2333 8.34531 30.4175 6.90574 33.2691C6.73314 33.6374 6.65561 34.0431 6.68025 34.449C6.70488 34.855 6.83089 35.2483 7.04675 35.593C7.26097 35.9362 7.55882 36.2194 7.91239 36.416C8.26596 36.6126 8.66366 36.7162 9.06821 36.717L9.06903 36.7154Z" fill="black"/>
<path d="M27.188 21.0977C27.0923 21.0977 26.9975 21.1168 26.9093 21.1537C26.821 21.1907 26.7409 21.2447 26.6736 21.3128C26.5369 21.4507 26.4604 21.6371 26.4609 21.8312V31.0069L23.8265 28.3497C23.6897 28.2168 23.5059 28.1434 23.3152 28.1454C23.1246 28.1474 22.9424 28.2246 22.8084 28.3603C22.6738 28.4967 22.5976 28.6801 22.5957 28.8718C22.5939 29.0634 22.6667 29.2483 22.7986 29.3873L26.6736 33.2998C26.8102 33.4361 26.9954 33.5127 27.1884 33.5127C27.3814 33.5127 27.5665 33.4361 27.7031 33.2998L31.5781 29.3873C31.7101 29.2483 31.7829 29.0634 31.781 28.8718C31.7792 28.6801 31.7029 28.4967 31.5684 28.3603C31.4342 28.2247 31.252 28.1476 31.0613 28.1458C30.8707 28.144 30.687 28.2175 30.5503 28.3505L27.9159 31.0077V21.8312C27.9163 21.6371 27.8398 21.4507 27.7031 21.3128C27.6359 21.2447 27.5558 21.1907 27.4675 21.1537C27.3792 21.1168 27.2845 21.0977 27.1888 21.0977H27.188Z" fill="#003D73"/>
<path d="M41.9635 28.25C40.8158 28.2521 39.6799 28.4813 38.6212 28.9243C37.5625 29.3674 36.6019 30.0156 35.7948 30.8315C34.156 32.488 33.2363 34.7238 33.2354 37.054C33.7146 48.7328 50.2124 48.7296 50.6901 37.054C50.6891 34.7238 49.7694 32.488 48.1306 30.8315C47.3237 30.0157 46.3634 29.3677 45.305 28.9246C44.2465 28.4816 43.1109 28.2523 41.9635 28.25ZM41.9635 44.3891C41.0072 44.3873 40.0607 44.1963 39.1786 43.8272C38.2964 43.458 37.496 42.9179 36.8235 42.2381C35.4577 40.8579 34.6913 38.9949 34.6903 37.0532C35.0897 27.3208 48.8381 27.3232 49.2359 37.0532C49.2352 38.9947 48.469 40.8577 47.1036 42.2381C46.4311 42.918 45.6307 43.4583 44.7486 43.8276C43.8664 44.1969 42.9199 44.3872 41.9635 44.3891Z" fill="black"/>
<path d="M44.873 36.3184H42.6909V34.1176C42.6846 33.9289 42.6052 33.75 42.4695 33.6187C42.3337 33.4874 42.1523 33.4141 41.9634 33.4141C41.7746 33.4141 41.5931 33.4874 41.4574 33.6187C41.3217 33.75 41.2423 33.9289 41.2359 34.1176V36.3184H39.0539C38.8593 36.3184 38.6728 36.3957 38.5352 36.5332C38.3976 36.6708 38.3203 36.8574 38.3203 37.052C38.3203 37.2465 38.3976 37.4331 38.5352 37.5707C38.6728 37.7083 38.8593 37.7856 39.0539 37.7856H41.2376V39.9864C41.2376 40.1793 41.3142 40.3643 41.4506 40.5008C41.5871 40.6372 41.7721 40.7139 41.9651 40.7139C42.158 40.7139 42.343 40.6372 42.4795 40.5008C42.6159 40.3643 42.6925 40.1793 42.6925 39.9864V37.7856H44.8746C45.0691 37.7856 45.2557 37.7083 45.3933 37.5707C45.5309 37.4331 45.6082 37.2465 45.6082 37.052C45.6082 36.8574 45.5309 36.6708 45.3933 36.5332C45.2557 36.3957 45.0691 36.3184 44.8746 36.3184H44.873Z" fill="#003D73"/>
</g>
</g>
</g>
<defs>
<clipPath id="clip0_419_1829">
<rect width="55.4273" height="55.4273" fill="white" transform="translate(0.969727 0.536133)"/>
</clipPath>
<clipPath id="clip1_419_1829">
<rect width="55.4273" height="55.4273" fill="white" transform="translate(0.969727 0.536133)"/>
</clipPath>
<clipPath id="clip2_419_1829">
<rect width="55.4273" height="55.4273" fill="white" transform="translate(0.969727 0.536133)"/>
</clipPath>
</defs>
</svg>
