<svg width="56" height="56" viewBox="0 0 56 56" fill="none" xmlns="http://www.w3.org/2000/svg">
<g clip-path="url(#clip0_419_1451)">
<g clip-path="url(#clip1_419_1451)">
<g clip-path="url(#clip2_419_1451)">
<path d="M33.478 34.824C33.5979 34.9631 33.7441 35.0773 33.9081 35.1599C34.0722 35.2426 34.251 35.2921 34.4342 35.3057C34.6174 35.3193 34.8015 35.2967 34.9759 35.2391C35.1504 35.1816 35.3118 35.0902 35.4509 34.9703C35.5901 34.8503 35.7043 34.7041 35.7869 34.5401C35.8696 34.376 35.9191 34.1973 35.9327 34.0141C35.9463 33.8309 35.9237 33.6468 35.8661 33.4723C35.8085 33.2979 35.7172 33.1365 35.5972 32.9973C35.351 32.7243 35.0092 32.5565 34.6426 32.5286C34.276 32.5006 33.9127 32.6147 33.628 32.8473C33.3475 33.0906 33.1746 33.435 33.147 33.8052C33.1193 34.1755 33.2392 34.5417 33.4804 34.824H33.478ZM34.2328 33.5556C34.3167 33.4823 34.4245 33.442 34.536 33.4423C34.6312 33.4428 34.724 33.4723 34.802 33.5268C34.8801 33.5814 34.9396 33.6585 34.9726 33.7478C35.0056 33.8371 35.0107 33.9344 34.987 34.0266C34.9633 34.1189 34.912 34.2016 34.84 34.264C34.7562 34.3369 34.6487 34.3769 34.5376 34.3764C34.4421 34.3766 34.3489 34.3475 34.2704 34.2931C34.192 34.2386 34.1321 34.1614 34.0989 34.0719C34.0656 33.9823 34.0607 33.8848 34.0846 33.7923C34.1086 33.6999 34.1603 33.617 34.2328 33.5548V33.5556Z" fill="#003D73"/>
<path d="M36.787 37.2898C36.907 37.4289 37.0531 37.5431 37.2172 37.6258C37.3813 37.7084 37.56 37.758 37.7432 37.7716C37.9264 37.7851 38.1105 37.7625 38.285 37.705C38.4594 37.6474 38.6208 37.556 38.76 37.4361C38.8991 37.3161 39.0133 37.17 39.096 37.0059C39.1786 36.8419 39.2282 36.6631 39.2418 36.4799C39.2554 36.2967 39.2327 36.1126 39.1752 35.9382C39.1176 35.7637 39.0262 35.6023 38.9063 35.4631C38.66 35.1901 38.3182 35.0223 37.9516 34.9944C37.5851 34.9665 37.2218 35.0806 36.937 35.3131C36.6565 35.5564 36.4834 35.9006 36.4556 36.2709C36.4278 36.6412 36.5475 37.0074 36.7887 37.2898H36.787ZM37.5418 36.0215C37.6258 35.9481 37.7336 35.9079 37.845 35.9082C37.9403 35.9086 38.0331 35.9381 38.1111 35.9927C38.1891 36.0473 38.2486 36.1244 38.2817 36.2137C38.3147 36.303 38.3197 36.4002 38.296 36.4924C38.2723 36.5847 38.2211 36.6675 38.1491 36.7298C38.0653 36.8027 37.9578 36.8427 37.8467 36.8423C37.7512 36.8425 37.6579 36.8133 37.5795 36.7589C37.501 36.7044 37.4411 36.6272 37.4079 36.5377C37.3747 36.4482 37.3697 36.3506 37.3937 36.2582C37.4176 36.1657 37.4693 36.0836 37.5418 36.0215Z" fill="#003D73"/>
<path d="M32.6469 38.5225C32.7668 38.6616 32.913 38.7758 33.0771 38.8585C33.2411 38.9411 33.4199 38.9907 33.6031 39.0043C33.7863 39.0179 33.9704 38.9952 34.1448 38.9377C34.3193 38.8801 34.4807 38.7887 34.6199 38.6688C34.759 38.5489 34.8732 38.4027 34.9558 38.2386C35.0385 38.0746 35.088 37.8958 35.1016 37.7126C35.1152 37.5294 35.0926 37.3453 35.035 37.1709C34.9775 36.9964 34.8861 36.835 34.7662 36.6958C34.52 36.4227 34.1782 36.2547 33.8115 36.2268C33.4449 36.1989 33.0816 36.3131 32.7969 36.5459C32.5164 36.7892 32.3436 37.1335 32.3159 37.5038C32.2883 37.874 32.4081 38.2402 32.6493 38.5225H32.6469ZM33.4017 37.2542C33.4856 37.1808 33.5934 37.1406 33.7049 37.1409C33.8001 37.1413 33.8929 37.1708 33.971 37.2254C34.049 37.28 34.1085 37.3571 34.1415 37.4464C34.1746 37.5357 34.1796 37.6329 34.1559 37.7252C34.1322 37.8174 34.0809 37.9002 34.0089 37.9625C33.9252 38.0355 33.8177 38.0755 33.7065 38.075C33.611 38.0752 33.5178 38.0461 33.4393 37.9916C33.3609 37.9371 33.301 37.8599 33.2678 37.7704C33.2346 37.6809 33.2296 37.5833 33.2535 37.4909C33.2775 37.3984 33.3292 37.3163 33.4017 37.2542Z" fill="#003D73"/>
<path d="M39.5767 33.3255C39.8578 33.0826 40.0313 32.7384 40.0592 32.368C40.0872 31.9976 39.9673 31.6312 39.7259 31.3489C39.4796 31.0759 39.1378 30.908 38.7712 30.8801C38.4047 30.8522 38.0414 30.9663 37.7566 31.1989C37.613 31.3171 37.4943 31.4629 37.4077 31.6275C37.321 31.7922 37.268 31.9725 37.2519 32.1578C37.2357 32.3432 37.2567 32.5299 37.3135 32.7071C37.3704 32.8842 37.462 33.0483 37.583 33.1896C37.704 33.331 37.852 33.4467 38.0183 33.5302C38.1846 33.6137 38.3659 33.6631 38.5515 33.6757C38.7372 33.6883 38.9235 33.6637 39.0995 33.6035C39.2755 33.5432 39.4378 33.4484 39.5767 33.3247V33.3255ZM38.363 31.908C38.447 31.8347 38.5548 31.7944 38.6663 31.7947C38.7615 31.7952 38.8543 31.8247 38.9323 31.8792C39.0103 31.9338 39.0699 32.0109 39.1029 32.1002C39.1359 32.1895 39.1409 32.2868 39.1173 32.379C39.0936 32.4712 39.0423 32.5541 38.9703 32.6164C38.8865 32.6893 38.779 32.7293 38.6679 32.7289C38.5724 32.729 38.4791 32.6999 38.4007 32.6454C38.3223 32.591 38.2624 32.5138 38.2292 32.4243C38.1959 32.3347 38.191 32.2372 38.2149 32.1447C38.2388 32.0523 38.2905 31.9694 38.363 31.9072V31.908Z" fill="#003D73"/>
<path d="M35.7465 26.6899C35.2577 26.7001 34.7923 26.9014 34.4502 27.2507C34.1081 27.6001 33.9165 28.0695 33.9165 28.5585C33.9165 29.0474 34.1081 29.5169 34.4502 29.8662C34.7923 30.2156 35.2577 30.4169 35.7465 30.4271C35.9952 30.4323 36.2424 30.3878 36.4737 30.2963C36.7049 30.2047 36.9156 30.0679 37.0933 29.8938C37.271 29.7198 37.4122 29.512 37.5086 29.2827C37.6049 29.0534 37.6546 28.8072 37.6546 28.5585C37.6546 28.3097 37.6049 28.0635 37.5086 27.8342C37.4122 27.6049 37.271 27.3972 37.0933 27.2232C36.9156 27.0491 36.7049 26.9123 36.4737 26.8207C36.2424 26.7292 35.9952 26.6847 35.7465 26.6899ZM36.3538 29.2672C36.2029 29.3972 36.0145 29.4756 35.8159 29.4911C35.6174 29.5065 35.4191 29.4581 35.25 29.353C35.0808 29.2479 34.9497 29.0915 34.8756 28.9067C34.8016 28.7218 34.7885 28.5181 34.8382 28.3253C34.888 28.1325 34.998 27.9606 35.1523 27.8347C35.3066 27.7087 35.497 27.6354 35.6959 27.6252C35.8948 27.6151 36.0917 27.6687 36.258 27.7783C36.4243 27.8879 36.5512 28.0477 36.6203 28.2345C36.6874 28.4131 36.6978 28.6082 36.6502 28.7929C36.6025 28.9777 36.499 29.1433 36.3538 29.2672Z" fill="#003D73"/>
<path d="M16.4096 44.4296C16.3916 44.2152 16.3745 44.0106 16.3606 43.8182L16.3305 43.3952C16.0908 41.4928 16.1527 39.5644 16.5139 37.6813C16.9214 36.0421 17.6453 35.0159 18.6641 34.6295C19.6003 34.3576 20.6046 34.449 21.4763 34.8855C21.8658 35.243 22.3662 35.456 22.8939 35.489C23.4216 35.5219 23.9446 35.3728 24.3756 35.0664C25.6855 34.2432 27.1282 35.3354 27.1885 35.3819C27.2085 35.3976 27.2297 35.4115 27.2521 35.4235C28.346 36.0209 30.1946 35.659 31.1092 35.1691C32.2471 34.5701 33.2299 33.7144 33.9797 32.6697C34.7296 31.6251 35.2258 30.4201 35.4293 29.1504C35.5859 28.0799 35.4671 26.9871 35.0842 25.9753C34.7013 24.9634 34.0668 24.0658 33.2407 23.3672C30.2362 20.7238 29.9803 18.5181 29.9803 18.5181V11.9476C29.9717 11.8321 29.9181 11.7247 29.831 11.6485C29.7439 11.5722 29.6304 11.5333 29.5148 11.54H22.9606V7.82393H29.0421C29.1583 7.83063 29.2724 7.79112 29.3596 7.71401C29.4468 7.6369 29.5 7.52845 29.5075 7.4123V2.06194C29.494 1.94799 29.4392 1.84296 29.3534 1.76674C29.2676 1.69053 29.1568 1.64844 29.0421 1.64844C28.9273 1.64844 28.8166 1.69053 28.7308 1.76674C28.645 1.84296 28.5902 1.94799 28.5767 2.06194V7.00067H22.4951C22.3789 6.99397 22.2648 7.03348 22.1776 7.11059C22.0904 7.1877 22.0373 7.29615 22.0297 7.4123V11.9476C22.0373 12.0637 22.0904 12.1722 22.1776 12.2493C22.2648 12.3264 22.3789 12.3659 22.4951 12.3592H29.0437V18.554C29.0527 18.6551 29.2997 21.0702 32.5796 23.9549C33.3068 24.5719 33.8647 25.3641 34.2007 26.2566C34.5367 27.1491 34.6397 28.1125 34.5 29.0558C34.3182 30.1972 33.873 31.2804 33.1999 32.2199C32.5267 33.1593 31.644 33.9291 30.6218 34.4681C29.7406 34.9203 28.7199 35.0183 27.7689 34.742C27.2147 34.3054 26.5441 34.0416 25.8409 33.9836C25.1378 33.9256 24.4331 34.076 23.8148 34.416C23.5631 34.6033 23.2522 34.6935 22.9393 34.6702C22.6264 34.6468 22.3324 34.5114 22.1112 34.2888C22.0811 34.2596 22.0471 34.2346 22.0102 34.2146C20.8671 33.6204 19.5364 33.4989 18.3047 33.8764C16.9899 34.3711 16.0811 35.5946 15.6034 37.5109C15.2204 39.4691 15.1519 41.4758 15.4004 43.4555L15.4306 43.8769C15.4445 44.0717 15.4616 44.2804 15.4803 44.498C15.6613 46.641 15.9091 49.5753 13.5616 50.3342C12.5738 50.6062 11.5396 50.6662 10.5269 50.5103C10.4115 50.4872 10.2916 50.5089 10.1915 50.5709C10.0915 50.633 10.0188 50.7308 9.98814 50.8445C9.98005 50.9008 9.98353 50.9582 9.99835 51.0131C10.0132 51.068 10.039 51.1194 10.0743 51.164C10.1096 51.2086 10.1537 51.2456 10.2037 51.2726C10.2538 51.2997 10.3089 51.3162 10.3655 51.3213C10.7905 51.3853 11.2196 51.4169 11.6493 51.4158C12.4042 51.4254 13.1562 51.3215 13.8803 51.1077C16.8888 50.1353 16.5995 46.7062 16.4071 44.4369L16.4096 44.4296Z" fill="black"/>
<path d="M45.8265 29.9731C45.7393 26.9319 44.7971 24.5469 43.0258 22.8816C41.1348 21.2354 38.6995 20.3508 36.1928 20.3996C35.638 20.5043 35.0675 20.4926 34.5174 20.3652C33.9674 20.2378 33.4498 19.9975 32.9976 19.6595C32.4037 19.1151 32.0285 18.373 31.942 17.572V12.4189H37.6999C37.754 12.4189 37.8075 12.4082 37.8574 12.3873C37.9073 12.3664 37.9525 12.3358 37.9904 12.2972C38.0284 12.2587 38.0582 12.213 38.0783 12.1628C38.0984 12.1126 38.1083 12.0589 38.1075 12.0048V7.44513C38.1083 7.39106 38.0984 7.33737 38.0783 7.28716C38.0582 7.23696 38.0284 7.19126 37.9904 7.15272C37.9525 7.11418 37.9073 7.08358 37.8574 7.06269C37.8075 7.0418 37.754 7.03105 37.6999 7.03106H32.3544V2.06869C32.3544 1.9606 32.3115 1.85693 32.2351 1.7805C32.1586 1.70407 32.055 1.66113 31.9469 1.66113C31.8388 1.66113 31.7351 1.70407 31.6587 1.7805C31.5823 1.85693 31.5393 1.9606 31.5393 2.06869V7.44839C31.5387 7.55728 31.5812 7.662 31.6576 7.7396C31.734 7.81721 31.838 7.86139 31.9469 7.86247H37.2932V11.5965H31.5393C31.4853 11.5965 31.4317 11.6072 31.3818 11.6281C31.332 11.649 31.2868 11.6796 31.2488 11.7181C31.2109 11.7567 31.181 11.8024 31.1609 11.8526C31.1408 11.9028 31.1309 11.9565 31.1318 12.0105V17.6038C31.2208 18.6364 31.6968 19.5973 32.4645 20.2937C32.996 20.708 33.6086 21.0061 34.2627 21.1687C34.9167 21.3313 35.5976 21.3548 36.2612 21.2376C38.5381 21.2137 40.7462 22.0168 42.4756 23.4978C44.0798 25.0042 44.934 27.1935 45.0171 30.0334C45.0595 30.4629 45.9137 40.5833 33.9643 43.0286C33.8779 43.0474 25.2426 44.8219 20.3911 38.6939C20.3434 38.633 20.2809 38.5855 20.2095 38.5558C20.1381 38.5261 20.0603 38.5153 19.9836 38.5243C19.5475 38.5757 19.153 39.4112 19.1489 39.421C18.6984 40.7047 18.5664 42.0787 18.7642 43.4248V43.4786C18.8017 44.0442 18.8758 44.6034 18.9476 45.143C19.2079 46.4157 19.2037 47.7283 18.9353 48.9993C18.4678 50.7068 17.3508 52.1637 15.8233 53.0585C15.7288 53.1154 15.6608 53.2074 15.634 53.3143C15.6073 53.4213 15.624 53.5345 15.6806 53.6291C15.7164 53.6908 15.7678 53.742 15.8296 53.7776C15.8914 53.8132 15.9614 53.832 16.0327 53.8321C16.1063 53.8323 16.1785 53.8122 16.2414 53.7742C17.9514 52.7713 19.2012 51.1391 19.7235 49.2267C20.0234 47.8474 20.0353 46.4211 19.7586 45.037C19.6885 44.5105 19.6168 43.966 19.5809 43.4264V43.3726C19.4023 42.173 19.505 40.9482 19.8809 39.7951C19.9135 39.7356 19.9689 39.6427 20.0284 39.5506C25.2394 45.6826 34.0482 43.86 34.1297 43.8421C46.8169 41.2468 45.8412 30.0668 45.8314 29.9853L45.8265 29.9731Z" fill="black"/>
<path d="M42.1296 33.9342C42.1296 34.0262 42.1023 34.1162 42.0511 34.1928C42 34.2693 41.9273 34.329 41.8423 34.3642C41.7572 34.3994 41.6636 34.4086 41.5733 34.3907C41.4831 34.3727 41.4001 34.3284 41.335 34.2633C41.2699 34.1982 41.2256 34.1153 41.2077 34.025C41.1897 33.9347 41.1989 33.8411 41.2341 33.7561C41.2694 33.671 41.329 33.5983 41.4056 33.5472C41.4821 33.4961 41.5721 33.4688 41.6642 33.4688C41.7253 33.4688 41.7858 33.4808 41.8423 33.5042C41.8987 33.5276 41.95 33.5618 41.9933 33.6051C42.0365 33.6483 42.0708 33.6996 42.0942 33.7561C42.1175 33.8126 42.1296 33.8731 42.1296 33.9342Z" fill="#003D73"/>
<path d="M42.3194 33.1562C42.4209 33.1559 42.5195 33.1224 42.6003 33.0609C42.681 32.9994 42.7395 32.9133 42.7669 32.8155C43.9455 28.6234 41.2182 25.072 41.0975 24.9244C41.0601 24.8748 41.0132 24.833 40.9594 24.8017C40.9057 24.7704 40.8462 24.7502 40.7845 24.7422C40.7228 24.7342 40.6602 24.7385 40.6002 24.7551C40.5403 24.7716 40.4842 24.8 40.4354 24.8385C40.3865 24.8769 40.3458 24.9248 40.3157 24.9792C40.2856 25.0336 40.2667 25.0935 40.26 25.1554C40.2534 25.2172 40.2591 25.2798 40.2769 25.3393C40.2948 25.3989 40.3244 25.4544 40.3639 25.5024C40.39 25.535 42.9201 28.8215 41.8686 32.5612C41.835 32.6804 41.8499 32.8081 41.9103 32.9163C41.9707 33.0245 42.0715 33.1043 42.1906 33.1383C42.2318 33.1496 42.2742 33.1553 42.3169 33.1554L42.3194 33.1562Z" fill="#003D73"/>
<path d="M25.5721 39.2387C24.9415 39.3577 24.2892 39.2715 23.7111 38.9928C23.133 38.7141 22.6594 38.2575 22.3598 37.69C22.3021 37.5807 22.2035 37.4988 22.0855 37.4622C21.9675 37.4257 21.8398 37.4376 21.7305 37.4952C21.6212 37.5528 21.5393 37.6514 21.5028 37.7694C21.4662 37.8875 21.4781 38.0152 21.5357 38.1244C21.8661 38.7453 22.3544 39.2681 22.9513 39.6402C23.5481 40.0123 24.2325 40.2204 24.9355 40.2437C25.2165 40.2429 25.4967 40.2118 25.771 40.1508C25.8309 40.1378 25.8877 40.1131 25.9381 40.0781C25.9885 40.0432 26.0316 39.9986 26.0648 39.9471C26.0979 39.8955 26.1206 39.8379 26.1316 39.7775C26.1425 39.7172 26.1414 39.6552 26.1284 39.5953C26.1154 39.5353 26.0907 39.4785 26.0558 39.4281C26.0208 39.3777 25.9763 39.3347 25.9247 39.3015C25.8731 39.2683 25.8155 39.2456 25.7551 39.2347C25.6948 39.2238 25.6329 39.2249 25.5729 39.2379L25.5721 39.2387Z" fill="#003D73"/>
</g>
</g>
</g>
<defs>
<clipPath id="clip0_419_1451">
<rect width="55.4273" height="55.4273" fill="white" transform="translate(0.202637 0.0185547)"/>
</clipPath>
<clipPath id="clip1_419_1451">
<rect width="55.4273" height="55.4273" fill="white" transform="translate(0.202637 0.0185547)"/>
</clipPath>
<clipPath id="clip2_419_1451">
<rect width="55.4273" height="55.4273" fill="white" transform="translate(0.202637 0.0185547)"/>
</clipPath>
</defs>
</svg>
