<svg width="57" height="56" viewBox="0 0 57 56" fill="none" xmlns="http://www.w3.org/2000/svg">
<g clip-path="url(#clip0_419_1495)">
<g clip-path="url(#clip1_419_1495)">
<g clip-path="url(#clip2_419_1495)">
<path d="M7.10267 50.2557C6.97186 50.2493 6.84737 50.1976 6.75055 50.1094C6.65373 50.0212 6.59061 49.902 6.57203 49.7724C6.24872 44.8024 6.53064 39.8116 7.41159 34.9097C7.89127 32.2163 8.64537 29.579 9.66211 27.0391C11.7698 21.7372 12.8353 16.0787 12.8003 10.3734V6.81136C12.803 6.67124 12.8605 6.53776 12.9605 6.43951C13.0604 6.34125 13.1948 6.28601 13.335 6.28561C13.4052 6.28264 13.4752 6.29423 13.5407 6.31964C13.6062 6.34505 13.6658 6.38373 13.7156 6.43326C13.7655 6.48279 13.8045 6.54209 13.8303 6.60744C13.8561 6.67279 13.8682 6.74277 13.8656 6.81299V10.375C13.9125 16.2135 12.8331 22.0062 10.6867 27.436C9.67782 29.915 8.93702 32.4948 8.47694 35.1314C7.622 39.9474 7.34018 44.8477 7.63738 49.73C7.64795 49.8705 7.60241 50.0094 7.51074 50.1163C7.41907 50.2233 7.28874 50.2895 7.14832 50.3006C7.14832 50.2566 7.14832 50.2566 7.1043 50.2566L7.10267 50.2557Z" fill="black"/>
<path d="M49.801 50.2562H49.757C49.6202 50.2364 49.4953 50.1677 49.4053 50.0628C49.3154 49.9578 49.2665 49.8238 49.2679 49.6856C49.565 44.8331 49.2832 39.9625 48.4284 35.1767C47.9466 32.5291 47.2051 29.9354 46.2146 27.4332C44.0681 22.0034 42.9888 16.2106 43.0356 10.3722V6.81178C43.0432 6.67635 43.1023 6.54893 43.2008 6.45571C43.2993 6.36249 43.4298 6.31055 43.5655 6.31055C43.7011 6.31055 43.8316 6.36249 43.9302 6.45571C44.0287 6.54893 44.0878 6.67635 44.0953 6.81178V10.3738C44.0561 16.0795 45.1218 21.7388 47.2335 27.0395C48.2568 29.6077 49.0121 32.2747 49.4872 34.9982C50.3679 39.8705 50.6498 44.8321 50.3268 49.7728C50.3084 49.9026 50.2454 50.0219 50.1485 50.1103C50.0517 50.1986 49.9271 50.2505 49.7961 50.257L49.801 50.2562Z" fill="black"/>
<path d="M28.6718 41.5056C27.1003 41.4704 25.5668 41.0156 24.2302 40.1884C22.8936 39.3612 21.8026 38.1916 21.0701 36.8008C20.1584 34.9024 19.6471 32.8368 19.5678 30.7323C19.3738 27.4965 19.9335 24.2598 21.2029 21.2771L21.3358 21.013C22.3954 18.6826 23.8993 17.2749 25.6233 16.9236C27.3472 16.5723 29.2032 17.3189 31.104 19.1659C31.6735 17.9303 32.7048 16.9672 33.9765 16.4834L34.5471 16.2633C34.5911 16.2633 34.5911 16.2633 34.6359 16.2193C35.0027 16.1369 35.3871 16.1944 35.7137 16.3805C36.0403 16.5666 36.2857 16.868 36.4018 17.2256C36.5178 17.5832 36.4962 17.9712 36.3412 18.3137C36.1861 18.6561 35.9088 18.9284 35.5635 19.0771C34.6799 19.4292 34.5911 19.6925 34.1933 21.0122L34.0604 21.2322C33.952 21.5887 33.7646 21.9162 33.5121 22.1902C33.2596 22.4643 32.9486 22.6779 32.6022 22.8152C32.2584 22.9604 31.8878 23.0315 31.5147 23.024C31.1415 23.0164 30.7741 22.9302 30.4365 22.7712L28.9342 22.1117C28.8902 22.0677 28.8454 22.1117 28.8014 22.1558C28.7909 22.1633 28.7824 22.1732 28.7766 22.1847C28.7707 22.1962 28.7677 22.2089 28.7677 22.2218C28.7677 22.2347 28.7707 22.2474 28.7766 22.2588C28.7824 22.2703 28.7909 22.2802 28.8014 22.2878L31.144 26.0691C31.295 26.3103 31.3859 26.5843 31.409 26.868C31.4322 27.1517 31.3868 27.4368 31.2769 27.6993C31.162 27.9645 30.986 28.1987 30.7633 28.3828C30.5406 28.567 30.2775 28.6959 29.9955 28.7589C29.4359 28.8829 28.9083 29.1225 28.4468 29.4624L27.1206 30.4739C26.7543 30.7561 26.3183 30.9338 25.859 30.9881C25.3997 31.0423 24.9343 30.9711 24.5123 30.782C24.1657 30.634 23.869 30.3896 23.6574 30.0777C23.4458 29.7658 23.3284 29.3998 23.319 29.023C23.3235 28.4896 23.5034 27.9725 23.8308 27.5514C24.1583 27.1303 24.6151 26.8285 25.1309 26.6926L26.0145 26.4726C26.0809 26.4581 26.1496 26.4568 26.2165 26.4688C26.2834 26.4808 26.3473 26.5059 26.4045 26.5426C26.4617 26.5793 26.5112 26.6269 26.55 26.6827C26.5888 26.7386 26.6162 26.8015 26.6307 26.8679C26.6452 26.9343 26.6465 27.0029 26.6345 27.0698C26.6225 27.1368 26.5974 27.2006 26.5607 27.2579C26.524 27.3151 26.4764 27.3645 26.4206 27.4033C26.3647 27.4422 26.3018 27.4696 26.2354 27.4841L25.3518 27.7042C25.0665 27.7767 24.8128 27.9405 24.6292 28.1707C24.4457 28.4008 24.3425 28.6847 24.3354 28.979C24.3296 29.1668 24.3817 29.3518 24.4844 29.5091C24.5872 29.6664 24.7358 29.7884 24.91 29.8585C25.16 29.9719 25.436 30.0153 25.7087 29.9843C25.9814 29.9533 26.2406 29.849 26.4587 29.6825L27.7849 28.6709C28.3481 28.2469 28.9944 27.9466 29.6817 27.7898C29.8068 27.7707 29.925 27.7204 30.0255 27.6434C30.126 27.5665 30.2054 27.4654 30.2563 27.3496C30.3038 27.2369 30.3245 27.1148 30.3169 26.9927C30.3092 26.8707 30.2734 26.7521 30.2123 26.6462L27.9137 22.8649C27.7827 22.6548 27.7246 22.4073 27.7487 22.1609C27.7727 21.9145 27.8774 21.6828 28.0466 21.502C28.2023 21.3111 28.417 21.1772 28.657 21.1215C28.8971 21.0657 29.1488 21.0912 29.3728 21.1939L30.9215 21.8534C31.1256 21.9579 31.3504 22.0161 31.5796 22.0237C31.8089 22.0313 32.037 21.9882 32.2476 21.8974C32.4548 21.8075 32.6407 21.6749 32.793 21.5081C32.9452 21.3414 33.0605 21.1443 33.1312 20.9298L33.2201 20.7098C33.6619 19.3469 33.8387 18.6435 35.1649 18.1153C35.2206 18.0964 35.2719 18.0664 35.3157 18.0271C35.3595 17.9878 35.3948 17.9401 35.4196 17.8867C35.4444 17.8334 35.4581 17.7756 35.4598 17.7168C35.4616 17.658 35.4514 17.5994 35.4298 17.5447C35.4165 17.4888 35.392 17.4363 35.3578 17.3902C35.3236 17.3441 35.2803 17.3055 35.2307 17.2767C35.181 17.2479 35.126 17.2294 35.069 17.2225C35.0121 17.2157 34.9543 17.2204 34.8992 17.2366L34.3686 17.4567C33.3412 17.857 32.5145 18.6484 32.0699 19.6575C32.0071 19.8111 31.9043 19.945 31.7721 20.0453C31.6399 20.1457 31.4832 20.2088 31.3184 20.228C31.1608 20.2525 30.9996 20.2416 30.8468 20.1959C30.6939 20.1502 30.5532 20.0709 30.4348 19.9639C28.7997 18.381 27.2559 17.7216 25.8385 17.9857C24.4683 18.2498 23.2301 19.4806 22.3025 21.4597C22.2613 21.5278 22.2313 21.6021 22.2137 21.6797C21.0265 24.5144 20.497 27.5813 20.665 30.65C20.7091 32.6364 21.192 34.5885 22.0792 36.3663C22.6338 37.4625 23.4466 38.4075 24.4475 39.1199C25.4484 39.8323 26.6075 40.2907 27.8249 40.4557C29.2164 40.6566 30.6349 40.3774 31.8466 39.6643C32.5825 39.2119 33.1811 38.5676 33.5782 37.8006C33.9753 37.0335 34.1558 36.1727 34.1004 35.3108C34.0675 34.6628 33.8561 34.0365 33.4896 33.5011C33.123 32.9657 32.6157 32.5421 32.0235 32.2769C31.7286 32.1347 31.4165 32.0312 31.0951 31.9688C30.9668 31.9337 30.8577 31.849 30.7918 31.7335C30.7259 31.6179 30.7086 31.4809 30.7438 31.3526C30.7789 31.2243 30.8636 31.1152 30.9791 31.0493C31.0947 30.9834 31.2317 30.9662 31.36 31.0013C31.7357 31.1118 32.1047 31.2438 32.4653 31.3966C33.2188 31.7376 33.8645 32.2785 34.3321 32.9607C34.7997 33.6429 35.0714 34.4402 35.1176 35.2659C35.1808 36.311 34.9594 37.3537 34.4768 38.2828C33.9942 39.212 33.2686 39.9928 32.3772 40.5421C31.2417 41.1751 29.9636 41.5084 28.6636 41.5105L28.6718 41.5056Z" fill="#003D73"/>
<path d="M26.9067 34.822C26.5718 34.8238 26.2456 34.7155 25.9783 34.5139C25.767 34.3292 25.6013 34.0982 25.494 33.8389C25.3867 33.5796 25.3407 33.299 25.3596 33.019C25.3538 32.8842 25.4017 32.7526 25.4929 32.6532C25.5841 32.5537 25.711 32.4946 25.8458 32.4888C25.9806 32.4829 26.1122 32.5309 26.2116 32.622C26.3111 32.7132 26.3702 32.8402 26.3761 32.975C26.3604 33.1115 26.3762 33.2498 26.4221 33.3793C26.468 33.5089 26.5428 33.6262 26.641 33.7224C26.7198 33.775 26.8113 33.8054 26.9059 33.8104C26.9731 33.8 27.0417 33.8031 27.1077 33.8196C27.1737 33.8361 27.2357 33.8656 27.2901 33.9064C27.3445 33.9472 27.3903 33.9984 27.4246 34.0571C27.4589 34.1158 27.4812 34.1808 27.49 34.2482C27.4989 34.3157 27.4942 34.3842 27.4762 34.4498C27.4582 34.5153 27.4272 34.5767 27.3852 34.6301C27.3431 34.6836 27.2908 34.7281 27.2313 34.761C27.1718 34.794 27.1064 34.8147 27.0387 34.822C27.0387 34.7772 26.9507 34.822 26.9067 34.822Z" fill="#003D73"/>
<path d="M27.2986 50.256C27.1719 50.2592 27.0483 50.2164 26.9508 50.1355C26.8532 50.0546 26.7883 49.941 26.768 49.8159C26.5799 48.8281 26.2679 47.8679 25.8396 46.9581C25.2536 45.7745 24.3103 44.805 23.1432 44.1867C21.7492 43.4379 20.4935 42.4563 19.4304 41.2841C17.9618 39.6131 16.8511 37.6589 16.167 35.542C15.4829 33.4251 15.2398 31.1905 15.4527 28.976C15.8064 23.1717 18.5908 17.104 22.3477 13.8501C24.3584 12.0167 26.9634 10.9707 29.6836 10.9043H29.7725C31.3253 10.9334 32.8629 11.2156 34.3249 11.7398C35.4548 12.1187 36.4623 12.7942 37.2419 13.6956C38.0216 14.597 38.5449 15.6912 38.7571 16.864C38.9694 18.0367 38.8627 19.245 38.4484 20.3624C38.0341 21.4799 37.3272 22.4656 36.4017 23.2165L35.96 23.6566C35.4293 24.2272 33.7942 26.2511 34.5458 28.0541C34.8643 28.6865 35.299 29.2534 35.8271 29.7251C36.0281 29.92 36.2185 30.1254 36.3977 30.3405C37.2949 31.3295 37.9622 32.5046 38.3518 33.7818C38.7415 35.059 38.8438 36.4065 38.6514 37.7278C38.435 39.0246 37.9496 40.2618 37.2266 41.3598C36.5035 42.4579 35.5587 43.3925 34.4528 44.1036C33.1695 44.8661 32.1867 46.0457 31.6684 47.4455C31.4804 48.1928 31.3913 48.9615 31.4035 49.7319C31.396 49.8673 31.3369 49.9948 31.2384 50.088C31.1398 50.1812 31.0093 50.2332 30.8737 50.2332C30.738 50.2332 30.6076 50.1812 30.509 50.088C30.4105 49.9948 30.3514 49.8673 30.3439 49.7319C30.3299 48.8426 30.4341 47.9553 30.6536 47.0934C31.2397 45.4528 32.3809 44.0688 33.8798 43.1809C34.8607 42.5671 35.694 41.7444 36.3204 40.7715C36.9468 39.7986 37.3509 38.6995 37.5038 37.5526C37.6715 36.3815 37.5803 35.1879 37.2367 34.0559C36.893 32.9239 36.3053 31.881 35.5149 31.0008C35.338 30.8247 35.1612 30.6054 34.9843 30.4302C34.3519 29.8819 33.8404 29.2083 33.482 28.4519C32.5528 26.1696 34.2768 23.8792 35.0723 22.9997C35.2265 22.8024 35.4047 22.6252 35.6029 22.4723C36.3923 21.833 36.9962 20.9942 37.3521 20.0429C37.708 19.0916 37.8029 18.0624 37.6271 17.062C37.4512 16.0617 37.0109 15.1265 36.3519 14.3537C35.6928 13.5808 34.839 12.9983 33.879 12.6666C32.5255 12.1996 31.111 11.933 29.6804 11.8751H29.5915C27.1207 11.9561 24.7577 12.906 22.9183 14.5576C19.3383 17.6355 16.7308 23.4423 16.377 28.9801C16.1951 31.0578 16.4298 33.151 17.0673 35.1369C17.7049 37.1227 18.7325 38.9613 20.0898 40.5448C21.0734 41.6334 22.2401 42.5413 23.5369 43.2274C24.8917 43.9445 25.9888 45.0666 26.6751 46.4373C27.1781 47.4171 27.5212 48.471 27.6915 49.5591C27.7018 49.6258 27.6984 49.694 27.6815 49.7593C27.6646 49.8247 27.6346 49.886 27.5933 49.9394C27.5519 49.9927 27.5001 50.0372 27.4411 50.0699C27.382 50.1026 27.3169 50.123 27.2497 50.1297C27.3386 50.2609 27.2937 50.2609 27.2937 50.2609L27.2986 50.256Z" fill="black"/>
</g>
</g>
</g>
<defs>
<clipPath id="clip0_419_1495">
<rect width="55.4273" height="55.4273" fill="white" transform="translate(0.736328 0.579102)"/>
</clipPath>
<clipPath id="clip1_419_1495">
<rect width="55.4273" height="55.4273" fill="white" transform="translate(0.736328 0.579102)"/>
</clipPath>
<clipPath id="clip2_419_1495">
<rect width="55.4273" height="55.4273" fill="white" transform="translate(0.736328 0.579102)"/>
</clipPath>
</defs>
</svg>
