<svg width="56" height="57" viewBox="0 0 56 57" fill="none" xmlns="http://www.w3.org/2000/svg">
<g clip-path="url(#clip0_419_1765)">
<g clip-path="url(#clip1_419_1765)">
<g clip-path="url(#clip2_419_1765)">
<path d="M53.1846 0.700195H2.64796C1.29744 0.700195 0.202637 1.795 0.202637 3.14552V53.6821C0.202637 55.0327 1.29744 56.1275 2.64796 56.1275H53.1846C54.5351 56.1275 55.6299 55.0327 55.6299 53.6821V3.14552C55.6299 1.795 54.5351 0.700195 53.1846 0.700195Z" fill="white"/>
<mask id="mask0_419_1765" style="mask-type:luminance" maskUnits="userSpaceOnUse" x="2" y="9" width="52" height="39">
<path d="M53.4391 9.51855H2.39307V47.1602H53.4391V9.51855Z" fill="white"/>
</mask>
<g mask="url(#mask0_419_1765)">
<path d="M40.9704 9.51855C34.4178 9.51855 29.6095 14.1361 24.9585 18.6029C20.8096 22.5872 16.8889 26.3513 12.1686 26.3513C7.67903 26.3513 3.98089 21.9701 4.6069 18.241C5.26795 14.3073 9.40951 11.0151 14.7868 11.0151C18.6178 11.0151 21.6866 12.0804 26.6678 15.8837C24.0749 12.8475 19.0392 9.51855 14.7876 9.51855C6.8354 9.51855 2.39307 14.8485 2.39307 22.1429C2.39307 35.0004 22.88 45.8177 27.879 47.1602C27.879 47.1602 4.27596 34.8064 3.94095 22.2359C3.93753 21.628 3.99212 21.0213 4.10398 20.4239C5.43586 26.3098 10.3966 28.5978 15.4837 26.9871C19.2878 25.7824 22.6811 22.976 25.9986 19.6821C30.3586 15.3466 35.0202 11.0151 40.9704 11.0151C47.1579 11.0151 54.639 17.9989 51.9956 26.7858C52.9844 25.479 53.494 23.872 53.4391 22.2342C53.4648 20.5781 53.1616 18.9332 52.5472 17.3951C51.9327 15.8569 51.0192 14.4559 49.8595 13.2732C48.6998 12.0906 47.317 11.1497 45.7912 10.5052C44.2654 9.86073 42.6268 9.52536 40.9704 9.51855Z" fill="black"/>
<path d="M27.9745 31.2791C28.1634 30.8921 28.4588 30.5671 28.8259 30.3421C29.1931 30.1172 29.6168 30.0016 30.0473 30.0091C30.5589 30.0216 31.0532 30.197 31.4581 30.5099C31.863 30.8227 32.1575 31.2567 32.2987 31.7486C32.6818 32.7976 32.3753 35.6823 31.4616 36.4998C31.9217 35.089 31.9045 33.566 31.4127 32.1659C31.3217 31.8811 31.1444 31.6316 30.9053 31.4521C30.6662 31.2726 30.3772 31.172 30.0783 31.1642C29.7996 31.1696 29.5287 31.2577 29.3002 31.4173C29.0716 31.577 28.8956 31.8009 28.7945 32.0608C27.6656 34.6055 27.8515 40.7074 36.8413 38.4422C33.0103 40.352 29.6129 39.4815 28.541 37.8456C27.4692 36.2097 26.8089 33.4155 27.9705 31.2774" fill="#003D73"/>
<path d="M25.1227 30.333C20.603 29.4364 18.6565 36.4463 18.5448 37.0756C15.6202 37.885 17.1934 42.2588 21.1858 39.8192C21.7067 39.4368 22.1611 38.9711 22.5307 38.4409L22.5454 37.0144C22.0001 37.8965 21.2749 38.6537 20.4171 39.2364C19.7039 39.5975 18.5155 39.9252 18.0183 39.2853C17.5838 38.7245 18.5301 37.7456 19.3371 37.5263C19.4537 36.8742 21.2844 30.8742 24.5823 31.3975C26.8736 31.7602 28.5046 35.2196 26.9274 40.0499C29.5316 36.8147 28.4264 30.9875 25.1227 30.3346" fill="#003D73"/>
<path d="M50.0106 20.9106C49.3388 19.8878 48.4699 19.0091 47.4547 18.3259C46.4395 17.6426 45.2983 17.1685 44.0978 16.9313C39.0295 15.9189 34.3704 19.6097 32.5005 23.4864C29.152 26.1534 29.4398 34.4088 38.6855 35.5198C28.9189 32.2594 31.5069 25.3978 33.4933 24.1393L33.5626 23.9893C35.1854 20.4843 39.3449 17.2467 43.8549 18.1482C44.8949 18.3541 45.8833 18.7651 46.7627 19.3572C47.642 19.9493 48.3945 20.7107 48.9762 21.5969C49.5731 22.4921 49.9854 23.4972 50.1892 24.5536C50.393 25.61 50.3841 26.6965 50.1631 27.7494C49.6186 30.3805 47.0265 33.5994 44.2364 33.9654C46.2122 35.153 44.0579 37.1932 42.1522 35.0389C41.2979 35.2312 40.0329 36.7848 38.9268 38.4044C35.2327 43.8127 28.4249 47.6967 24.0307 41.6649C22.3434 39.35 22.6222 36.9617 24.0348 34.787C24.2084 34.5205 23.9003 34.2784 23.5457 34.6656C22.5617 35.7317 21.9945 37.1166 21.9479 38.5667C21.9014 40.0168 22.3786 41.4352 23.2922 42.5623C28.416 48.8256 36.0894 44.4077 39.5014 38.7598C40.6793 36.8093 41.5735 35.9371 42.391 36.0618C44.9594 38.0866 47.0559 35.6086 45.6433 34.2947C48.7024 33.0141 50.7948 30.837 51.3816 27.9996C51.6361 26.786 51.6462 25.5338 51.4114 24.3163C51.1765 23.0987 50.7014 21.9401 50.0139 20.9082" fill="#003D73"/>
<path d="M34.7428 24.8945C34.8356 25.4078 35.0633 25.8871 35.4025 26.2833C35.7417 26.6795 36.1802 26.9784 36.673 27.1491C36.5418 27.5469 35.4332 27.4271 34.7624 26.735C33.772 25.7113 34.4241 24.9068 34.7428 24.8945Z" fill="#003D73"/>
<path d="M41.2472 31.366C40.7325 31.2823 40.2492 31.0632 39.847 30.7312C39.4448 30.3991 39.1381 29.9662 38.9584 29.4766C38.5631 29.6135 38.7025 30.7204 39.4067 31.379C40.4476 32.3514 41.2407 31.6855 41.2472 31.366Z" fill="#003D73"/>
<path d="M36.3951 31.367C36.0473 31.2719 35.7286 31.0918 35.4676 30.843C35.2067 30.5941 35.0117 30.2843 34.9002 29.9414C34.8106 30.0431 34.7421 30.1616 34.6987 30.29C34.6553 30.4184 34.638 30.5542 34.6476 30.6894C34.6572 30.8246 34.6937 30.9565 34.7548 31.0775C34.816 31.1984 34.9006 31.306 35.0037 31.3939C35.0935 31.4895 35.2024 31.5652 35.3233 31.6161C35.4442 31.667 35.5744 31.6919 35.7055 31.6893C35.8367 31.6867 35.9658 31.6566 36.0846 31.6009C36.2034 31.5453 36.3091 31.4653 36.3951 31.3662" fill="#003D73"/>
<path d="M45.1179 22.0342C45.77 22.3602 45.977 22.7955 45.8514 23.2829C45.7365 23.6007 45.5008 23.8602 45.1955 24.0052C44.8903 24.1502 44.5402 24.1689 44.2212 24.0573C43.7799 23.9421 43.4023 23.6565 43.1714 23.2631C42.9404 22.8697 42.8751 22.4007 42.9896 21.9592C43.3303 20.655 44.8464 19.2734 47.5697 20.655C44.9239 18.6947 43.1258 19.9133 42.3751 21.6462C42.2446 21.9613 42.183 22.3007 42.1942 22.6416C42.2054 22.9825 42.2892 23.3171 42.44 23.623C42.5909 23.9289 42.8052 24.1991 43.0688 24.4155C43.3324 24.632 43.6391 24.7897 43.9686 24.8781C45.7512 25.4658 47.3244 23.5788 46.5142 22.3773C45.7643 21.2639 44.4707 21.7065 45.1187 22.0334" fill="#003D73"/>
</g>
</g>
</g>
</g>
<defs>
<clipPath id="clip0_419_1765">
<rect width="55.4273" height="55.4273" fill="white" transform="translate(0.202637 0.700195)"/>
</clipPath>
<clipPath id="clip1_419_1765">
<rect width="55.4273" height="55.4273" fill="white" transform="translate(0.202637 0.700195)"/>
</clipPath>
<clipPath id="clip2_419_1765">
<rect width="55.4273" height="55.4273" fill="white" transform="translate(0.202637 0.700195)"/>
</clipPath>
</defs>
</svg>
