<svg width="57" height="56" viewBox="0 0 57 56" fill="none" xmlns="http://www.w3.org/2000/svg">
<g clip-path="url(#clip0_419_1625)">
<g clip-path="url(#clip1_419_1625)">
<g clip-path="url(#clip2_419_1625)">
<path d="M53.9517 0.139648H3.41505C2.06453 0.139648 0.969727 1.23446 0.969727 2.58497V53.1216C0.969727 54.4721 2.06453 55.5669 3.41505 55.5669H53.9517C55.3022 55.5669 56.397 54.4721 56.397 53.1216V2.58497C56.397 1.23446 55.3022 0.139648 53.9517 0.139648Z" fill="white"/>
<mask id="mask0_419_1625" style="mask-type:luminance" maskUnits="userSpaceOnUse" x="6" y="8" width="45" height="40">
<path d="M50.7771 8.29102H6.67578V47.9598H50.7771V8.29102Z" fill="white"/>
</mask>
<g mask="url(#mask0_419_1625)">
<path d="M34.5604 21.7472C34.2188 21.4268 33.9629 21.1994 33.7216 20.959C32.694 20.0181 31.9698 18.7927 31.6413 17.4387C31.3128 16.0847 31.3949 14.6636 31.877 13.3565C32.2777 12.0552 33.0475 10.8983 34.0931 10.0262C35.1387 9.15411 36.415 8.60439 37.767 8.44382C39.2127 8.19145 40.698 8.29401 42.0953 8.74268C43.4926 9.19136 44.76 9.97271 45.7885 11.0196C47.8661 12.9635 49.3322 15.4709 50.0075 18.2349C51.4472 23.1368 50.896 28.4087 48.4734 32.9068C48.0806 33.6363 47.122 34.9764 47.122 34.9764C46.2238 35.9578 45.2326 36.8499 44.1623 37.6401C42.9649 38.4315 41.5925 38.9188 40.1642 39.0598C38.7359 39.2009 37.2947 38.9914 35.9656 38.4495C35.0461 38.0894 34.2177 37.5302 33.5399 36.812C33.3516 36.618 33.1478 36.4387 32.7916 36.1012C32.7916 36.6856 32.7916 37.0573 32.7916 37.4282C32.7916 40.5077 32.7916 43.5874 32.7916 46.6674C32.8309 46.9176 32.8144 47.1734 32.7435 47.4165C32.6278 47.6342 32.3482 47.8966 32.1411 47.8958C31.9341 47.895 31.6798 47.6268 31.5282 47.4173C31.4353 47.2886 31.4891 47.0489 31.4891 46.859C31.4891 41.7793 31.4752 36.6995 31.4972 31.6165C31.4812 30.4346 31.7656 29.268 32.3236 28.226C32.8816 27.184 33.695 26.3007 34.6875 25.6589C35.9775 24.7619 37.5396 24.3423 39.1054 24.4721C39.2627 24.4827 39.42 24.4892 39.6108 24.499C39.8357 24.0026 39.6165 23.5062 39.72 22.9641C39.4298 22.9356 39.2212 22.9071 39.0117 22.8965C38.4102 22.9236 37.8075 22.8872 37.2135 22.7881C36.5345 22.6203 35.818 22.6968 35.1896 23.0041C33.6617 23.5613 32.3005 24.4978 31.2339 25.7257C29.9803 27.3087 29.3259 29.2835 29.3861 31.3019C29.36 36.3816 29.3771 41.4614 29.3763 46.5444C29.3852 46.7983 29.3795 47.0524 29.3592 47.3057C29.3454 47.4786 29.2686 47.6405 29.1435 47.7606C29.0184 47.8808 28.8535 47.9509 28.6802 47.9578C28.5187 47.952 28.3654 47.8851 28.2514 47.7705C28.1374 47.6559 28.0713 47.5023 28.0664 47.3407C28.0477 47.088 28.0509 46.8337 28.0509 46.5794C28.0509 41.595 28.0689 36.6098 28.0314 31.6255C28.0214 30.6121 27.8954 29.6032 27.6556 28.6185C27.2287 26.8014 26.1045 25.2249 24.5256 24.2292C23.737 23.7585 22.9234 23.331 22.0884 22.9486C21.5149 22.6719 20.8617 22.608 20.2455 22.7685C19.4474 22.883 18.6423 22.9415 17.836 22.9438C17.705 23.4183 17.6654 23.9135 17.7195 24.4028C18.5305 24.4696 19.3171 24.4794 20.0833 24.6066C21.4505 24.8446 22.7164 25.4828 23.7209 26.4404C24.7253 27.398 25.4232 28.632 25.7262 29.9863C25.8539 30.5737 25.9208 31.1727 25.926 31.7738C25.9423 36.7582 25.9365 41.7426 25.9374 46.7278C25.9453 46.918 25.9407 47.1087 25.9235 47.2983C25.9178 47.385 25.8951 47.4697 25.8565 47.5475C25.818 47.6254 25.7645 47.6949 25.6991 47.752C25.6336 47.8091 25.5576 47.8527 25.4752 47.8803C25.3929 47.9079 25.3059 47.919 25.2193 47.9129C25.0582 47.9006 24.9081 47.8268 24.8 47.7067C24.6919 47.5867 24.6342 47.4296 24.6389 47.2682C24.6291 47.0465 24.6324 46.8239 24.6324 46.6014C24.6324 43.4899 24.6324 40.3783 24.6324 37.2668C24.6324 36.953 24.6324 36.6392 24.6324 36.1982C24.4691 36.2786 24.3163 36.3788 24.1775 36.4965C22.1218 39.056 17.7814 39.8042 14.5593 38.3305C12.3029 37.267 10.4335 35.5276 9.21055 33.3535C7.29202 30.0697 6.41969 26.2793 6.7098 22.4873C6.82426 18.81 8.10734 15.2649 10.3729 12.3661C11.7807 10.4991 13.773 9.15706 16.0322 8.55386C19.1638 7.74365 22.8359 8.82692 24.6617 11.5217C25.6645 12.9894 26.1032 14.77 25.8971 16.5356C25.691 18.3012 24.854 19.9328 23.5401 21.1301L22.8367 21.7708C24.1429 22.2512 25.3378 22.9924 26.3485 23.9492C27.3593 24.906 28.1648 26.0584 28.7161 27.3364C29.8817 24.5381 31.9716 22.9152 34.5596 21.7464M49.445 23.3497C49.397 22.8272 49.3415 21.9412 49.229 21.0625C48.9228 18.2708 47.8587 15.6161 46.152 13.3858C44.2064 10.8957 41.7325 9.38527 38.4411 9.71783C37.5732 9.76776 36.7266 10.0065 35.9605 10.4173C35.1944 10.8282 34.5272 11.4013 34.0054 12.0966C33.4836 12.7919 33.1198 13.5927 32.9395 14.4432C32.7591 15.2936 32.7665 16.1731 32.9611 17.0204C33.2754 18.3933 34.0729 19.6074 35.2081 20.4411C36.3433 21.2747 37.7405 21.6724 39.1445 21.5613C39.4113 21.5555 39.6719 21.4802 39.9006 21.3428C40.1294 21.2055 40.3183 21.0108 40.4487 20.778C40.8358 20.2028 41.2831 19.6705 41.783 19.1902C41.9461 19.0413 42.1463 18.9391 42.3626 18.8943C42.5004 18.849 42.6499 18.8555 42.7833 18.9125C42.9167 18.9695 43.0247 19.0732 43.0872 19.204C43.1654 19.3259 43.1953 19.4725 43.1712 19.6152C43.1471 19.7579 43.0706 19.8866 42.9568 19.976C42.7718 20.1479 42.5492 20.2857 42.3715 20.465C41.92 20.8885 41.5693 21.408 41.3453 21.9851C41.1213 22.5622 41.0297 23.1822 41.0772 23.7995C41.1248 24.4167 41.3103 25.0154 41.6201 25.5513C41.9299 26.0873 42.356 26.5469 42.8671 26.8962C42.9592 26.9417 43.0403 27.0067 43.1048 27.0868C43.1692 27.1668 43.2154 27.2599 43.2401 27.3596C43.2649 27.4593 43.2676 27.5632 43.2481 27.6641C43.2286 27.7649 43.1873 27.8603 43.1272 27.9436C43.0682 28.02 42.9935 28.0828 42.908 28.1277C42.8226 28.1725 42.7285 28.1984 42.6321 28.2035C42.5357 28.2086 42.4394 28.1928 42.3497 28.1573C42.26 28.1217 42.179 28.0672 42.1123 27.9974C41.6576 27.7095 41.2597 27.3404 40.9386 26.9084C40.7433 26.5633 40.4538 26.2808 40.1039 26.094C39.754 25.9073 39.3582 25.8239 38.9628 25.8537C38.5546 25.8475 38.1463 25.865 37.7401 25.9059C36.2346 26.1406 34.8812 26.9563 33.9703 28.1777C33.0595 29.3992 32.6638 30.929 32.8682 32.4389C32.9885 33.2747 33.2764 34.0776 33.7146 34.7994C34.1528 35.5212 34.7323 36.1471 35.4183 36.6394C36.1043 37.1318 36.8827 37.4805 37.7068 37.6646C38.5308 37.8488 39.3836 37.8646 40.214 37.7111C41.4387 37.5063 42.6091 37.055 43.6543 36.3846C44.6995 35.7141 45.5978 34.8385 46.2947 33.8108C48.5109 30.8234 49.3749 27.3926 49.4434 23.3546M7.94714 23.7352C8.03517 24.6808 8.07674 25.6336 8.21857 26.5718C8.59059 29.6846 9.93291 32.6014 12.0553 34.9087C14.1256 37.0728 16.6199 38.205 19.683 37.5798C21.1113 37.3456 22.4026 36.5919 23.3089 35.4635C24.2152 34.3351 24.6726 32.9116 24.5933 31.4665C24.5646 30.0046 23.9793 28.6087 22.9567 27.5636C21.9342 26.5184 20.5514 25.9028 19.0905 25.8423C18.1205 25.7942 17.1464 25.8089 16.5212 26.8587C16.1559 27.3357 15.7081 27.7434 15.1991 28.0626C15.1328 28.1222 15.0541 28.1663 14.9686 28.1917C14.8832 28.2172 14.7931 28.2233 14.705 28.2098C14.6169 28.1962 14.5329 28.1632 14.4591 28.1133C14.3852 28.0633 14.3234 27.9976 14.2781 27.9208C14.2238 27.8512 14.1844 27.7712 14.1623 27.6857C14.1401 27.6003 14.1357 27.5112 14.1493 27.424C14.1629 27.3368 14.1942 27.2533 14.2413 27.1786C14.2884 27.104 14.3503 27.0398 14.4232 26.99C14.5446 26.8889 14.684 26.8098 14.8071 26.7087C15.2972 26.3266 15.6937 25.8376 15.9664 25.2791C16.2391 24.7207 16.3809 24.1073 16.3809 23.4858C16.3809 22.8643 16.2391 22.251 15.9664 21.6925C15.6937 21.134 15.2972 20.6451 14.8071 20.2629C14.6848 20.1618 14.5096 20.086 14.4517 19.9564C14.3389 19.7465 14.2894 19.5084 14.309 19.2709C14.3258 19.2001 14.3566 19.1335 14.3998 19.075C14.443 19.0166 14.4976 18.9674 14.5603 18.9306C14.623 18.8938 14.6925 18.8701 14.7646 18.8609C14.8367 18.8518 14.91 18.8573 14.9799 18.8772C15.2297 18.9199 15.4622 19.033 15.6499 19.2032C16.1455 19.6438 16.5783 20.1504 16.9361 20.7087C17.0726 20.9735 17.2805 21.1948 17.5361 21.3476C17.7918 21.5004 18.0851 21.5787 18.3829 21.5736C19.7082 21.6644 21.0245 21.2973 22.1115 20.5338C23.1985 19.7702 23.9903 18.6565 24.3544 17.379C24.7409 16.0762 24.6684 14.6803 24.1491 13.4245C23.6298 12.1688 22.6952 11.1293 21.5015 10.48C20.4982 9.95583 19.3867 9.67237 18.255 9.652C17.1232 9.63163 16.0022 9.8749 14.9807 10.3626C13.159 11.2171 11.6337 12.5958 10.6003 14.3224C8.85231 17.1498 7.93305 20.4111 7.94714 23.7352Z" fill="black"/>
<path d="M44.7418 24.4853C44.2959 24.4038 44.0082 24.2236 43.9267 23.8332C43.8379 23.4142 44.097 23.1811 44.4761 23.0906C45.0733 23.0198 45.6275 22.7441 46.0443 22.3105C46.1389 22.1964 46.5253 22.229 46.7201 22.3171C46.7873 22.344 46.8484 22.3842 46.8996 22.4354C46.9508 22.4866 46.9911 22.5477 47.018 22.6149C47.0449 22.6821 47.0579 22.7541 47.0561 22.8265C47.0544 22.8989 47.0379 22.9702 47.0078 23.036C46.9016 23.3306 46.7115 23.5876 46.4609 23.7753C45.9014 24.0452 45.3266 24.282 44.7394 24.4844" fill="#003D73"/>
<path d="M38.1537 19.6324C37.742 19.6473 37.3351 19.5403 36.9841 19.3248C36.633 19.1093 36.3534 18.795 36.1803 18.4212C36.0877 18.2712 36.0584 18.0906 36.0987 17.919C36.1391 17.7474 36.2458 17.5989 36.3955 17.5058C36.4661 17.4526 36.5473 17.4154 36.6337 17.3967C36.7201 17.3779 36.8095 17.3782 36.8958 17.3974C36.982 17.4166 37.0631 17.4544 37.1334 17.508C37.2036 17.5616 37.2614 17.6298 37.3027 17.708C37.4107 17.899 37.5687 18.057 37.7597 18.1651C37.9506 18.2733 38.1674 18.3274 38.3868 18.3217C38.937 18.3405 39.1391 18.576 39.1204 18.9828C39.1016 19.3895 38.8482 19.5933 38.346 19.6349C38.2833 19.6398 38.2197 19.6349 38.1561 19.6349" fill="#003D73"/>
<path d="M42.1386 34.6851C41.7571 34.7005 41.4384 34.6166 41.3577 34.1764C41.2836 33.7738 41.4661 33.4999 41.9511 33.385C42.1697 33.3547 42.3792 33.2781 42.5658 33.1603C42.7523 33.0425 42.9115 32.8862 43.0328 32.7019C43.0765 32.625 43.1364 32.5584 43.2083 32.5068C43.2801 32.4552 43.3623 32.4197 43.4492 32.4029C43.5361 32.386 43.6256 32.3881 43.7115 32.409C43.7975 32.43 43.878 32.4693 43.9473 32.5242C44.3084 32.7467 44.2856 33.1078 44.1462 33.4526C43.946 33.8134 43.6559 34.1164 43.3042 34.3322C42.9525 34.548 42.551 34.6692 42.1386 34.6842" fill="#003D73"/>
<path d="M40.5198 12.9061C40.4032 13.3952 40.3445 13.7342 40.2361 14.0603C40.2131 14.1451 40.1733 14.2243 40.1189 14.2933C40.0646 14.3623 39.9969 14.4196 39.9198 14.4617C39.8428 14.5039 39.758 14.5301 39.6706 14.5387C39.5832 14.5473 39.495 14.5382 39.4112 14.5119C39.3236 14.4986 39.2403 14.4654 39.1676 14.4148C39.0948 14.3642 39.0348 14.2976 38.9919 14.2201C38.9491 14.1425 38.9246 14.0562 38.9204 13.9677C38.9162 13.8793 38.9324 13.791 38.9678 13.7098C39.0564 13.4913 39.095 13.2557 39.0809 13.0204C39.0668 12.785 39.0003 12.5557 38.8863 12.3494C38.8461 12.2798 38.8214 12.2023 38.814 12.1224C38.8065 12.0424 38.8163 11.9617 38.8429 11.8859C38.8694 11.81 38.912 11.7408 38.9678 11.6829C39.0235 11.6251 39.0911 11.5799 39.1659 11.5506C39.2319 11.5043 39.3067 11.4721 39.3858 11.4561C39.4648 11.44 39.5462 11.4404 39.6251 11.4573C39.7039 11.4741 39.7785 11.507 39.8441 11.5539C39.9096 11.6008 39.9648 11.6607 40.0062 11.7299C40.1996 12.1115 40.3699 12.5042 40.5165 12.9061" fill="#003D73"/>
<path d="M44.9464 14.8489C44.9179 14.994 44.891 15.1815 44.8421 15.3624C44.8015 15.4963 44.7189 15.6135 44.6065 15.6968C44.4942 15.7801 44.358 15.8251 44.2181 15.8251C44.0783 15.8251 43.9421 15.7801 43.8297 15.6968C43.7174 15.6135 43.6348 15.4963 43.5942 15.3624C43.5501 14.8326 43.3993 14.3172 43.1508 13.8471C43.0603 13.6906 43.2062 13.2766 43.3749 13.1193C43.5006 13.0189 43.6602 12.9707 43.8205 12.9848C43.9807 12.999 44.1294 13.0742 44.2357 13.1951C44.6696 13.64 44.9226 14.2303 44.9456 14.8514" fill="#003D73"/>
<path d="M38.481 32.6309C38.97 32.6309 39.3482 32.9797 39.2219 33.3539C39.1003 33.77 39.1134 34.214 39.2594 34.6222C39.2893 34.7626 39.2673 34.9091 39.1975 35.0346C39.1277 35.16 39.0147 35.2559 38.8796 35.3044C38.753 35.3703 38.6072 35.389 38.4682 35.3572C38.3292 35.3254 38.206 35.2451 38.1207 35.1308C37.8771 34.8037 37.7418 34.4087 37.7338 34.0009C37.7257 33.5932 37.8453 33.1931 38.0759 32.8567C38.1986 32.7599 38.3363 32.6836 38.4834 32.6309" fill="#003D73"/>
<path d="M41.3259 31.3177C40.9792 31.1639 40.6432 30.9872 40.32 30.7887C40.2582 30.7513 40.2051 30.7012 40.1643 30.6416C40.1234 30.582 40.0957 30.5144 40.083 30.4433C40.0704 30.3721 40.0731 30.2991 40.0909 30.2291C40.1087 30.1591 40.1412 30.0936 40.1864 30.0372C40.367 29.8356 40.6135 29.7047 40.8817 29.668C41.246 29.6803 41.6091 29.7155 41.969 29.7731C42.1274 29.7654 42.2834 29.8139 42.4095 29.9099C42.5356 30.0059 42.6239 30.1434 42.6586 30.2981C42.7003 30.4364 42.6884 30.5855 42.6253 30.7155C42.5622 30.8455 42.4524 30.947 42.3179 30.9999C41.995 31.1286 41.6636 31.2353 41.3259 31.3177Z" fill="#003D73"/>
<path d="M41.2415 15.8143C41.6792 15.8102 41.9229 16.0132 41.9376 16.3955C41.9547 16.8666 41.3393 17.3296 40.7149 17.3157C40.6284 17.317 40.5425 17.3004 40.4627 17.2669C40.3829 17.2335 40.3108 17.1839 40.2511 17.1213C40.1913 17.0587 40.1451 16.9845 40.1154 16.9032C40.0857 16.8219 40.073 16.7353 40.0783 16.649C40.0694 16.1917 40.5869 15.8208 41.2439 15.8135" fill="#003D73"/>
<path d="M37.8213 29.5569C37.7447 29.5406 37.5092 29.5569 37.3934 29.4501C37.2095 29.2971 37.0925 29.0783 37.0674 28.8404C37.0821 28.6448 37.3021 28.4328 37.4806 28.2926C37.5825 28.2111 37.783 28.2421 37.9387 28.2421C38.4897 28.2421 38.8166 28.4679 38.8411 28.8534C38.8679 29.2797 38.4987 29.5642 37.8165 29.5561" fill="#003D73"/>
<path d="M47.0502 27.613C47.0714 27.8348 47.0107 28.0567 46.8797 28.2369C46.7486 28.417 46.5562 28.543 46.3386 28.5912C46.2441 28.6012 46.1485 28.5905 46.0585 28.5598C45.9686 28.529 45.8865 28.4789 45.8179 28.4131C45.7493 28.3472 45.6959 28.2672 45.6616 28.1785C45.6272 28.0899 45.6126 27.9948 45.6189 27.9C45.5965 27.679 45.6558 27.4576 45.7855 27.2774C45.9153 27.0972 46.1065 26.9707 46.3231 26.9218C46.4178 26.9147 46.5131 26.9276 46.6025 26.9597C46.6919 26.9917 46.7736 27.0423 46.8422 27.1081C46.9108 27.1738 46.9648 27.2533 47.0006 27.3412C47.0364 27.4292 47.0533 27.5238 47.0502 27.6188" fill="#003D73"/>
<path d="M36.4307 31.7756C36.4149 32.0127 36.3204 32.2377 36.162 32.4149C36.0037 32.5921 35.7908 32.7113 35.557 32.7537C35.3819 32.7436 35.2177 32.6653 35.0997 32.5356C34.9816 32.406 34.919 32.2353 34.9252 32.06C34.9434 31.823 35.0407 31.599 35.2015 31.4239C35.3624 31.2489 35.5774 31.133 35.8121 31.0949C35.8991 31.0927 35.9856 31.1092 36.0657 31.1433C36.1458 31.1775 36.2176 31.2284 36.2763 31.2927C36.335 31.3571 36.3791 31.4332 36.4058 31.5161C36.4324 31.599 36.4409 31.6866 36.4307 31.7731" fill="#003D73"/>
<path d="M46.4958 19.7095C46.4888 19.884 46.416 20.0494 46.292 20.1724C46.168 20.2954 46.0019 20.3668 45.8274 20.3722C45.59 20.3675 45.3622 20.2774 45.1858 20.1184C45.0095 19.9594 44.8964 19.7422 44.8672 19.5065C44.8727 19.4199 44.8958 19.3354 44.9349 19.2579C44.974 19.1805 45.0285 19.1117 45.0949 19.0559C45.1613 19.0001 45.2384 18.9583 45.3214 18.933C45.4044 18.9078 45.4917 18.8996 45.578 18.9091C45.7998 18.9163 46.0123 19.0001 46.1794 19.1461C46.3465 19.2921 46.458 19.4915 46.495 19.7103" fill="#003D73"/>
<path d="M36.7655 14.4832C36.7607 14.6555 36.6921 14.8199 36.573 14.9444C36.4539 15.069 36.2927 15.1449 36.1208 15.1573C35.9 15.1649 35.6831 15.0975 35.5055 14.966C35.3279 14.8346 35.2 14.6469 35.1427 14.4335C35.1335 14.34 35.1452 14.2456 35.1767 14.1571C35.2082 14.0686 35.2588 13.9882 35.325 13.9214C35.3911 13.8547 35.4712 13.8034 35.5594 13.7712C35.6477 13.739 35.7419 13.7266 35.8355 13.735C36.0549 13.7253 36.2702 13.7961 36.441 13.934C36.6118 14.072 36.7264 14.2676 36.7631 14.484" fill="#003D73"/>
<path d="M19.2178 19.6377C19.0659 19.6346 18.9148 19.6136 18.7679 19.5749C18.6287 19.5361 18.5082 19.4483 18.4285 19.3278C18.3489 19.2072 18.3154 19.062 18.3342 18.9187C18.3522 18.5927 18.529 18.3237 18.8429 18.34C19.1256 18.3609 19.4085 18.3029 19.6603 18.1727C19.9121 18.0425 20.1229 17.8451 20.2693 17.6023C20.3761 17.4556 20.7999 17.4328 21.0273 17.507C21.3827 17.6235 21.408 17.9773 21.3224 18.3098C21.161 18.7284 20.8688 19.0836 20.4894 19.3228C20.1099 19.562 19.6634 19.6725 19.2162 19.6377" fill="#003D73"/>
<path d="M12.6324 24.3816C12.2366 24.3675 11.8486 24.2685 11.4944 24.0913C11.1403 23.9141 10.8284 23.6628 10.5799 23.3545C10.5165 23.2836 10.4684 23.2002 10.4387 23.1098C10.409 23.0194 10.3984 22.9237 10.4074 22.829C10.4164 22.7342 10.445 22.6423 10.4912 22.5591C10.5375 22.4759 10.6004 22.4032 10.6761 22.3455C10.928 22.14 11.2467 22.0814 11.4391 22.3406C11.8197 22.7678 12.3512 23.0307 12.9217 23.0742C13.3122 23.1557 13.564 23.3415 13.5306 23.7727C13.5005 24.1648 13.2046 24.3808 12.634 24.3808" fill="#003D73"/>
<path d="M15.2673 34.6876C14.8693 34.6746 14.4818 34.5565 14.1441 34.3453C13.8064 34.1342 13.5306 33.8375 13.3445 33.4854C13.2406 33.344 13.1956 33.1679 13.2189 32.994C13.2421 32.8201 13.3319 32.662 13.4692 32.5529C13.5419 32.4928 13.6271 32.4496 13.7185 32.4265C13.81 32.4034 13.9054 32.401 13.9979 32.4195C14.0904 32.4379 14.1776 32.4767 14.2533 32.533C14.3289 32.5894 14.391 32.6619 14.4351 32.7452C14.5663 32.9206 14.7316 33.0677 14.9209 33.1778C15.1103 33.2878 15.3198 33.3586 15.5371 33.3859C15.7123 33.3991 15.8755 33.4797 15.9924 33.6107C16.1093 33.7418 16.1708 33.913 16.164 34.0885C16.1688 34.4309 15.7955 34.6819 15.2673 34.686" fill="#003D73"/>
<path d="M17.7678 11.4794C18.4403 11.4566 18.7818 11.8869 18.5544 12.363C18.4546 12.5575 18.3959 12.7705 18.3818 12.9886C18.3678 13.2068 18.3988 13.4256 18.4729 13.6313C18.5113 13.7106 18.5323 13.7973 18.5345 13.8855C18.5366 13.9736 18.5199 14.0612 18.4854 14.1424C18.4508 14.2236 18.3994 14.2964 18.3343 14.356C18.2693 14.4156 18.1923 14.4606 18.1085 14.4879C18.0201 14.5232 17.9251 14.5393 17.8299 14.5349C17.7348 14.5306 17.6417 14.506 17.5568 14.4628C17.4719 14.4196 17.3973 14.3588 17.3378 14.2844C17.2783 14.21 17.2354 14.1238 17.2119 14.0315C17.0522 13.7025 16.9753 13.3395 16.9876 12.9741C17 12.6086 17.1013 12.2517 17.2828 11.9342C17.4205 11.7575 17.5856 11.6039 17.7719 11.4794" fill="#003D73"/>
<path d="M12.458 14.7259C12.6464 14.242 12.8706 13.7728 13.1288 13.3223C13.1774 13.2404 13.2424 13.1695 13.3198 13.114C13.3971 13.0585 13.485 13.0195 13.5781 12.9996C13.6712 12.9797 13.7674 12.9793 13.8606 12.9983C13.9539 13.0174 14.0422 13.0555 14.12 13.1103C14.4224 13.328 14.4461 13.6654 14.2162 14.1105C14.0798 14.349 13.9818 14.6076 13.926 14.8767C13.8168 15.6054 13.6252 15.8646 13.1541 15.8075C12.7417 15.7578 12.5623 15.4407 12.458 14.7259Z" fill="#003D73"/>
<path d="M19.8487 33.9764C19.6979 34.3752 19.5153 34.7612 19.3025 35.1306C19.2238 35.2522 19.1005 35.3379 18.9591 35.3693C18.8178 35.4007 18.6697 35.3753 18.5469 35.2985C18.4116 35.2479 18.3001 35.1485 18.2343 35.0199C18.1685 34.8912 18.1533 34.7426 18.1916 34.6033C18.337 34.1935 18.3499 33.7483 18.2282 33.3309C18.1842 33.1548 18.4393 32.7799 18.6358 32.7024C18.7642 32.6712 18.8984 32.6722 19.0264 32.7053C19.1544 32.7384 19.2722 32.8027 19.3694 32.8923C19.5757 33.2313 19.7369 33.5957 19.8487 33.9764Z" fill="#003D73"/>
<path d="M16.0369 31.3422C15.6823 31.2362 15.342 31.087 15.0238 30.898C14.9297 30.8214 14.8604 30.7187 14.8248 30.6028C14.7892 30.4868 14.7889 30.3629 14.8238 30.2468C14.8587 30.1306 14.9274 30.0275 15.021 29.9504C15.1147 29.8733 15.2291 29.8258 15.3498 29.8139C15.7824 29.8427 16.2167 29.7935 16.632 29.6688C16.7714 29.6085 17.1634 29.818 17.2351 29.9891C17.2829 30.1128 17.3005 30.2462 17.2863 30.378C17.2721 30.5099 17.2266 30.6365 17.1536 30.7472C16.8064 30.9887 16.431 31.1884 16.0369 31.3422Z" fill="#003D73"/>
<path d="M17.3764 16.6157C17.3867 16.7018 17.379 16.7892 17.3537 16.8721C17.3283 16.9551 17.286 17.0319 17.2293 17.0976C17.1726 17.1632 17.1028 17.2163 17.0244 17.2535C16.946 17.2907 16.8607 17.3111 16.774 17.3134C16.2303 17.3542 15.5049 16.8382 15.5098 16.4168C15.5156 16.2421 15.5885 16.0763 15.7132 15.9539C15.838 15.8314 16.005 15.7616 16.1798 15.759C16.7088 15.7476 17.3527 16.2106 17.3764 16.6181" fill="#003D73"/>
<path d="M19.5235 29.5657C19.405 29.5683 19.2867 29.556 19.1713 29.529C19.0241 29.4857 18.8885 29.4099 18.7744 29.3073C18.6661 29.2116 18.6001 29.0769 18.5909 28.9327C18.5818 28.7885 18.6302 28.6465 18.7255 28.5379C18.8793 28.3794 19.0775 28.2713 19.294 28.2276C19.5105 28.184 19.7351 28.2069 19.9384 28.2933C20.0508 28.3625 20.1482 28.4535 20.2248 28.5611C20.3014 28.6686 20.3556 28.7904 20.3842 28.9193C20.4494 29.278 20.1943 29.494 19.8291 29.5421C19.7354 29.5543 19.6408 29.5559 19.5226 29.5649" fill="#003D73"/>
<path d="M11.8252 27.8754C11.8317 27.9699 11.818 28.0648 11.7851 28.1537C11.7521 28.2426 11.7006 28.3234 11.634 28.3909C11.5674 28.4583 11.4872 28.5108 11.3988 28.5449C11.3103 28.579 11.2156 28.5939 11.121 28.5886C10.9028 28.5449 10.7084 28.4223 10.575 28.2442C10.4416 28.0661 10.3786 27.8451 10.398 27.6235C10.3955 27.529 10.4123 27.435 10.4475 27.3473C10.4827 27.2596 10.5355 27.1801 10.6027 27.1135C10.6698 27.047 10.7498 26.995 10.8379 26.9606C10.9259 26.9262 11.02 26.9102 11.1144 26.9135C11.3333 26.9525 11.5289 27.0739 11.6611 27.2526C11.7933 27.4313 11.852 27.6539 11.8252 27.8745" fill="#003D73"/>
<path d="M22.5174 32.1134C22.5152 32.2002 22.4957 32.2856 22.46 32.3648C22.4244 32.4439 22.3733 32.5151 22.3097 32.5743C22.2462 32.6334 22.1715 32.6793 22.09 32.7092C22.0085 32.7391 21.9218 32.7524 21.8351 32.7483C21.6046 32.6921 21.3994 32.5606 21.2518 32.3748C21.1042 32.189 21.0226 31.9594 21.02 31.7221C21.0165 31.6348 21.0322 31.5478 21.0659 31.4671C21.0995 31.3864 21.1504 31.3141 21.2148 31.2551C21.2793 31.1961 21.3559 31.1519 21.4393 31.1256C21.5226 31.0992 21.6107 31.0914 21.6974 31.1026C21.931 31.1483 22.1411 31.2746 22.291 31.4596C22.4409 31.6445 22.521 31.8754 22.5174 32.1134Z" fill="#003D73"/>
<path d="M12.5843 19.5571C12.5311 19.7872 12.4026 19.9929 12.2192 20.1416C12.0358 20.2903 11.808 20.3735 11.5719 20.378C11.3985 20.3581 11.2391 20.2734 11.1257 20.1408C11.0122 20.0081 10.9533 19.8375 10.9606 19.6631C11.0192 19.4496 11.1447 19.2606 11.3187 19.1237C11.4927 18.9869 11.706 18.9094 11.9273 18.9026C12.0138 18.9001 12.1 18.9151 12.1806 18.9469C12.2611 18.9787 12.3343 19.0266 12.3958 19.0876C12.4573 19.1486 12.5057 19.2215 12.5381 19.3018C12.5705 19.3821 12.5862 19.4681 12.5843 19.5547" fill="#003D73"/>
<path d="M22.3032 14.3285C22.2861 14.5518 22.1814 14.7592 22.0119 14.9055C21.8423 15.0518 21.6218 15.1251 21.3984 15.1094C21.312 15.1187 21.2247 15.1107 21.1414 15.0858C21.0581 15.0608 20.9807 15.0195 20.9137 14.9642C20.8466 14.9089 20.7913 14.8408 20.7509 14.7638C20.7106 14.6869 20.686 14.6026 20.6787 14.516C20.7109 14.296 20.8218 14.0951 20.9909 13.9508C21.1601 13.8064 21.3758 13.7283 21.5982 13.7311C21.6846 13.7184 21.7728 13.7244 21.8569 13.7484C21.9409 13.7725 22.0188 13.8142 22.0855 13.8707C22.1522 13.9272 22.2061 13.9973 22.2436 14.0762C22.2812 14.1551 22.3015 14.2411 22.3032 14.3285Z" fill="#003D73"/>
</g>
</g>
</g>
</g>
<defs>
<clipPath id="clip0_419_1625">
<rect width="55.4273" height="55.4273" fill="white" transform="translate(0.969727 0.139648)"/>
</clipPath>
<clipPath id="clip1_419_1625">
<rect width="55.4273" height="55.4273" fill="white" transform="translate(0.969727 0.139648)"/>
</clipPath>
<clipPath id="clip2_419_1625">
<rect width="55.4273" height="55.4273" fill="white" transform="translate(0.969727 0.139648)"/>
</clipPath>
</defs>
</svg>
