<svg width="57" height="56" viewBox="0 0 57 56" fill="none" xmlns="http://www.w3.org/2000/svg">
<g clip-path="url(#clip0_419_1436)">
<g clip-path="url(#clip1_419_1436)">
<g clip-path="url(#clip2_419_1436)">
<path d="M23.0769 52.2648C22.7508 51.2427 22.3588 50.0078 21.9251 48.6058C20.8247 45.0617 18.3297 45.2687 15.6839 45.4929C14.8843 45.5835 14.0786 45.6067 13.2752 45.5622C12.7237 45.5542 12.1803 45.4286 11.6811 45.1939C11.182 44.9591 10.7387 44.6206 10.3808 44.201C10.1021 43.7845 9.91245 43.315 9.8238 42.8218C9.73515 42.3286 9.74939 41.8225 9.86563 41.335C9.92921 41.0131 10.0286 40.709 10.1102 40.4384C10.3188 39.7668 10.4166 39.3992 10.2031 39.0829C10.0111 38.8548 9.87626 38.5843 9.80977 38.2937C9.74329 38.0031 9.74707 37.7008 9.82079 37.4119C9.89935 37.1968 10.024 37.0015 10.1861 36.8397C10.3482 36.6779 10.5437 36.5536 10.759 36.4754L10.7761 36.4697L11.0206 36.3947C10.8299 36.3197 10.6734 36.2512 10.5462 36.1876C9.71809 35.7573 9.99033 34.3781 10.2332 33.1554C10.1787 33.1339 10.1226 33.1167 10.0653 33.1041L10.0482 33.0984L8.19547 32.6093C7.90724 32.5363 7.6385 32.4011 7.40808 32.2132L7.39096 32.2018C7.16481 32.0117 6.98311 31.7744 6.85869 31.5065C6.69798 31.1592 6.64088 30.7729 6.69423 30.394C6.74758 30.015 6.90911 29.6595 7.15947 29.3701L11.6426 23.1557C11.654 23.0237 11.6654 22.7596 11.6654 22.4091C11.6708 22.0793 11.6572 21.7494 11.6246 21.4212L11.6189 21.4097L11.6018 21.3282C11.4251 20.5898 11.3665 19.828 11.4282 19.0712C11.4339 18.9163 11.4453 18.7672 11.4453 18.6343C11.416 13.2122 13.5238 9.14565 17.698 6.55035C20.8647 4.58024 25.1668 3.4831 30.4813 3.2997C33.1546 3.1805 35.8254 3.58447 38.3438 4.48894C40.617 5.3139 42.6918 6.60665 44.4341 8.28365C46.1763 9.96064 47.5474 11.9846 48.4585 14.2246C49.4072 16.5409 49.8892 19.0217 49.8768 21.5247C49.8784 23.6134 49.4997 25.6849 48.7593 27.638C48.0317 29.5427 46.9863 31.3102 45.6676 32.8653C42.518 36.5927 42.7845 39.2867 45.1117 45.0006L44.0406 45.431C42.906 42.6457 42.1536 40.3651 42.1708 38.2743C42.1879 36.1322 42.9932 34.2363 44.7791 32.1284C47.3189 29.18 48.7159 25.4178 48.7161 21.5263C48.7525 19.2111 48.3165 16.9128 47.4345 14.7719C46.5526 12.631 45.2432 10.6924 43.5866 9.07474C40.2341 5.86403 35.7127 4.2656 30.5196 4.45145C25.4073 4.62914 21.3024 5.66922 18.3093 7.53011C14.4938 9.90777 12.5718 13.6434 12.5889 18.6441C12.5889 18.8071 12.5832 18.9737 12.5718 19.1438C12.5157 19.7715 12.5586 20.4041 12.6989 21.0185C12.8079 21.479 12.845 21.9535 12.809 22.4254C12.809 23.494 12.7397 23.626 12.6296 23.7581L8.06506 30.0988L8.04793 30.1216C7.93718 30.2442 7.86498 30.3967 7.84034 30.5601C7.81569 30.7234 7.8397 30.8904 7.90936 31.0402C7.96218 31.1577 8.04098 31.2617 8.13982 31.3443C8.23866 31.4269 8.35494 31.486 8.47994 31.5171H8.49135L10.3441 32.0061C10.5764 32.0599 10.799 32.149 11.0043 32.2702C11.1598 32.3605 11.2834 32.4968 11.358 32.6603C11.4326 32.8239 11.4546 33.0066 11.4208 33.1832C11.4094 33.2467 11.398 33.3095 11.3801 33.3788C11.2277 33.9849 11.1594 34.6092 11.1771 35.234C11.6507 35.4296 12.1385 35.589 12.6362 35.7108C12.7891 35.75 12.9251 35.8381 13.0235 35.9616C13.1218 36.0852 13.1772 36.2374 13.1812 36.3953C13.1851 36.5531 13.1375 36.708 13.0454 36.8363C12.9534 36.9646 12.822 37.0594 12.6712 37.1063L11.16 37.5831C11.1102 37.6018 11.0645 37.6303 11.0258 37.6668C10.987 37.7033 10.9559 37.7472 10.9342 37.7958C10.9236 38.0385 11.0088 38.2756 11.1714 38.4561C11.3719 38.8131 11.4825 39.2135 11.4936 39.6228C11.5046 40.0321 11.4159 40.4379 11.235 40.8052C11.1487 41.0612 11.0771 41.3219 11.0206 41.5861C10.9358 41.9159 10.9192 42.2595 10.9719 42.5959C11.0246 42.9323 11.1455 43.2543 11.3271 43.5424C11.5892 43.8291 11.9087 44.0576 12.2648 44.2129C12.6209 44.3682 13.0057 44.4469 13.3942 44.4439C14.1303 44.4796 14.868 44.4545 15.5999 44.3689C16.9954 44.1613 18.4182 44.2336 19.7855 44.5816C21.3717 45.1098 22.437 46.3219 23.0459 48.292C23.4804 49.6931 23.8684 50.9166 24.1985 51.9388L23.0769 52.2648Z" fill="black"/>
<path d="M36.2294 29.865C34.7378 29.865 33.1654 29.5969 32.3071 28.7997C32.085 28.601 31.9102 28.3551 31.7956 28.0801C31.6809 27.805 31.6293 27.5078 31.6444 27.2102C31.4083 27.0937 31.2005 26.927 31.0353 26.7219C30.8702 26.5168 30.7518 26.2782 30.6883 26.0226C30.2538 26.05 29.8253 26.1381 29.4151 26.2843C28.5123 26.6041 27.5486 26.7148 26.5968 26.6079C25.645 26.501 24.7299 26.1794 23.9205 25.6672L23.4714 25.3526C22.9788 25.035 22.5151 24.6747 22.0857 24.2758C21.9291 24.1295 21.807 23.9502 21.7283 23.7508C21.6497 23.5515 21.6164 23.3371 21.6309 23.1233C21.5631 23.0495 21.505 22.9673 21.4581 22.8787C21.356 22.7375 21.2141 22.6299 21.0505 22.5698C20.0961 22.4155 19.1953 22.0252 18.4299 21.4344C17.9036 21.3259 17.4085 21.0999 16.9817 20.7733C16.5549 20.4467 16.2074 20.0279 15.9651 19.5482C15.7495 19.1018 15.6443 18.6102 15.6585 18.1147C15.6727 17.6192 15.8058 17.1343 16.0466 16.701C16.1 16.5971 16.1221 16.4799 16.1101 16.3636C16.0286 15.4376 16.3058 13.6159 19.1048 11.7705C19.1719 11.7281 19.2278 11.6702 19.2679 11.6017L19.2736 11.5903C19.5665 11.0765 19.9674 10.6323 20.4487 10.2886C20.93 9.94476 21.4802 9.7095 22.0612 9.59902H22.0669C22.1818 9.58672 22.2903 9.54014 22.3783 9.46534C23.1038 8.8426 25.0445 7.42758 27.2967 7.85877C27.3779 7.87483 27.4618 7.87091 27.5412 7.84736L27.5526 7.84165C29.2127 7.33934 30.988 7.36584 32.6324 7.91745C32.727 7.9564 32.8305 7.96853 32.9315 7.9525C33.5457 7.85183 34.1739 7.87731 34.7779 8.0274C35.3819 8.17748 35.949 8.44903 36.4446 8.82548C36.5276 8.88989 36.6276 8.92844 36.7323 8.93634C37.5439 9.03173 38.3185 9.32914 38.9854 9.80134C39.6522 10.2735 40.19 10.9054 40.5495 11.6392L40.5552 11.6449C40.5943 11.7133 40.6473 11.7728 40.7109 11.8194L40.7166 11.8251C41.7286 12.4782 42.4835 13.4614 42.853 14.6079C42.868 14.6791 42.8974 14.7465 42.9394 14.8059C43.6999 15.9821 45.3986 18.9336 44.9209 21.0007V21.0064C44.9031 21.0709 44.8992 21.1384 44.9095 21.2045V21.2216C45.013 22.0196 45.1108 23.993 43.8384 25.1806C43.1827 25.9309 42.322 26.4732 41.3621 26.7407C41.3412 27.0258 41.2864 27.3073 41.1991 27.5795C41.0249 28.1034 40.7098 28.5692 40.2881 28.9256C39.8665 29.2821 39.3548 29.5155 38.8092 29.6001C37.9608 29.7775 37.0962 29.8663 36.2294 29.865ZM32.806 27.1523C32.7806 27.2974 32.7932 27.4466 32.8426 27.5853C32.892 27.724 32.9766 27.8475 33.088 27.9438C33.9846 28.776 36.6476 28.8869 38.5704 28.4679C38.823 28.4323 39.0659 28.3468 39.2852 28.2166C39.5045 28.0863 39.6958 27.9139 39.8479 27.7092C40.0001 27.5045 40.1102 27.2716 40.1717 27.0241C40.2332 26.7765 40.245 26.5193 40.2063 26.2671L40.08 25.4814L40.8633 25.5979C41.2431 25.6558 41.7045 25.6036 43.0576 24.3345C43.9542 23.4958 43.8352 21.8778 43.7716 21.3887C43.7372 21.1714 43.7489 20.9492 43.8058 20.7366C44.1172 19.3974 43.0633 17.1208 41.9743 15.4384L41.9686 15.427C41.8582 15.2495 41.7783 15.0547 41.7322 14.8508C41.4038 14.0018 40.8177 13.2769 40.0564 12.7779C39.8533 12.6312 39.6842 12.4425 39.5608 12.2245C39.2916 11.6559 38.8846 11.1636 38.3766 10.7925C37.8687 10.4213 37.276 10.1831 36.6525 10.0995C36.3354 10.0728 36.0321 9.95792 35.777 9.76775C35.4053 9.48409 34.9798 9.27898 34.5264 9.16492C34.0729 9.05086 33.601 9.03022 33.1394 9.10425C32.8375 9.15138 32.5285 9.11936 32.2427 9.01133H32.2354C30.8244 8.54368 29.3029 8.52545 27.8811 8.95916C27.6219 9.03945 27.3467 9.05347 27.0807 8.99992C25.3241 8.66246 23.7289 9.83214 23.1241 10.3505C22.8604 10.5751 22.5352 10.7152 22.1908 10.7524C21.784 10.8437 21.401 11.02 21.0671 11.2698C20.7332 11.5196 20.4558 11.8371 20.2533 12.2017C20.123 12.415 19.9481 12.5977 19.7406 12.7372L19.7349 12.7429C17.3507 14.3152 17.2081 15.7237 17.2586 16.2593V16.2707C17.2899 16.6113 17.2199 16.9536 17.0573 17.2545C16.9026 17.524 16.816 17.8271 16.8049 18.1375C16.7938 18.448 16.8586 18.7565 16.9937 19.0363C17.1708 19.3764 17.4253 19.6701 17.7368 19.8937C18.0483 20.1173 18.4081 20.2645 18.7869 20.3234L18.9769 20.3527L19.1097 20.4921C19.7281 21.0001 20.4764 21.3248 21.2698 21.4295C21.7479 21.5525 22.1615 21.8522 22.4272 22.2682L22.4443 22.2976C22.4664 22.3327 22.4939 22.3641 22.5258 22.3905C22.6408 22.4883 22.7251 22.6173 22.7685 22.7619C22.8118 22.9066 22.8125 23.0606 22.7704 23.2056C22.759 23.2521 22.7476 23.3042 22.9032 23.4673C23.2842 23.808 23.6905 24.1195 24.1186 24.3989C24.2628 24.4975 24.412 24.6027 24.5677 24.7193C25.229 25.1244 25.9725 25.3765 26.7439 25.457C27.5152 25.5376 28.2948 25.4445 29.0255 25.1847C29.7828 24.8955 30.5993 24.7956 31.404 24.8937L32.1009 25.0274L31.8303 25.6909C31.7325 25.9297 32.0952 26.1563 32.3194 26.2671L32.3251 26.2728C32.4884 26.3485 32.6228 26.4752 32.7079 26.6338C32.793 26.7924 32.8243 26.9744 32.797 27.1523H32.806Z" fill="#003D73"/>
<path d="M33.8492 34.0972C33.7888 34.0973 33.7284 34.0915 33.6691 34.0801C33.4698 34.0294 33.283 33.9387 33.1199 33.8136C32.9568 33.6885 32.8209 33.5315 32.7203 33.3522C32.3759 32.8163 32.0872 32.2465 31.8587 31.6519C31.5423 30.6671 30.923 29.8073 30.0891 29.1952C29.488 28.7516 29.0053 28.1669 28.6834 27.4927C28.3616 26.8185 28.2106 26.0754 28.2437 25.3291L29.402 25.422C29.3809 25.9684 29.4934 26.5116 29.7297 27.0047C29.9661 27.4977 30.3192 27.9256 30.7583 28.2513C31.7712 28.9844 32.5286 30.0166 32.9241 31.2028C33.1247 31.728 33.3784 32.2314 33.6813 32.705C33.7211 32.7648 33.7658 32.8213 33.815 32.8737C33.8604 32.8016 33.8883 32.7198 33.8965 32.6349C33.7725 31.6816 33.7199 30.7204 33.7392 29.7592C33.7278 29.2873 33.7221 28.799 33.7098 28.6702L34.8681 28.548C34.8852 28.7167 34.8917 29.0892 34.9088 29.7356C34.9054 30.6084 34.9462 31.4809 35.0311 32.3496C35.0808 32.6334 35.0542 32.9254 34.9539 33.1955C34.8537 33.4656 34.6834 33.7043 34.4605 33.8869C34.2844 34.0203 34.0701 34.0937 33.8492 34.0964V34.0972Z" fill="#003D73"/>
<path d="M32.7875 25.863C32.2178 25.8632 31.6498 25.8006 31.0938 25.6763L31.3733 24.5466C32.2849 24.7548 33.233 24.7428 34.139 24.5115C37.97 23.2481 39.7632 23.8766 40.4903 24.3656C40.7383 24.5147 40.9481 24.7197 41.1028 24.9643C41.2575 25.2088 41.3528 25.4861 41.3812 25.7741L40.223 25.8556C40.2028 25.7457 40.1584 25.6416 40.0929 25.5509C40.0275 25.4603 39.9427 25.3853 39.8448 25.3315C39.4022 25.0348 37.9936 24.4643 34.5001 25.6168C33.9456 25.7864 33.3682 25.8688 32.7884 25.8613L32.7875 25.863Z" fill="#003D73"/>
<path d="M21.1669 22.1371C21.1061 21.5875 21.2044 21.0321 21.45 20.5368C21.6957 20.0414 22.0784 19.6271 22.5526 19.3429C22.9441 19.0716 23.3104 18.7658 23.6473 18.4291C23.9298 18.0652 24.2958 17.7747 24.7144 17.5822C25.1329 17.3896 25.5917 17.3008 26.0519 17.3231C26.0738 17.3235 26.0955 17.3273 26.1163 17.3345C27.2182 17.4963 28.342 17.2698 29.2952 16.6938C29.4061 16.6237 29.5104 16.5658 29.6155 16.5071C29.662 16.4778 29.7142 16.455 29.7614 16.4256C31.7756 15.2788 33.2485 15.5347 34.128 15.9537C34.722 16.2288 35.2309 16.659 35.6009 17.1992L34.6113 17.8162C34.3474 17.455 33.9944 17.1683 33.5867 16.984C33.0498 16.7922 32.4744 16.7334 31.9097 16.8124C31.345 16.8915 30.8079 17.1061 30.3442 17.438C30.2978 17.4673 30.2456 17.4958 30.1926 17.5252C30.094 17.5831 30.0003 17.6361 29.9073 17.6882C28.7254 18.4017 27.3327 18.6837 25.9663 18.4862C25.9465 18.4858 25.9269 18.4819 25.9084 18.4748C25.3957 18.4104 25.0762 18.69 24.4592 19.2728C24.0728 19.6539 23.6539 20.0006 23.2072 20.3088C22.921 20.471 22.6863 20.7104 22.5297 20.9997C22.3732 21.289 22.3012 21.6164 22.322 21.9447V21.939L21.1669 22.1371Z" fill="#003D73"/>
<path d="M36.3916 48.2287C36.2808 48.0542 36.1585 47.879 36.0305 47.6988C35.1103 46.371 33.9699 44.718 34.0449 40.887C34.1729 34.7737 33.5559 33.3766 33.5322 33.3244C33.5353 33.3297 33.5372 33.3355 33.5379 33.3416L34.5625 32.7881C34.644 32.934 35.3426 34.424 35.2089 40.9155C35.1388 44.374 36.1226 45.7882 36.9907 47.0402C37.1244 47.2326 37.2467 47.4128 37.3689 47.5994L36.3916 48.2287Z" fill="black"/>
</g>
</g>
</g>
<defs>
<clipPath id="clip0_419_1436">
<rect width="55.4273" height="55.4273" fill="white" transform="translate(0.969727 0.0185547)"/>
</clipPath>
<clipPath id="clip1_419_1436">
<rect width="55.4273" height="55.4273" fill="white" transform="translate(0.969727 0.0185547)"/>
</clipPath>
<clipPath id="clip2_419_1436">
<rect width="55.4273" height="55.4273" fill="white" transform="translate(0.969727 0.0185547)"/>
</clipPath>
</defs>
</svg>
