<svg width="57" height="56" viewBox="0 0 57 56" fill="none" xmlns="http://www.w3.org/2000/svg">
<g clip-path="url(#clip0_419_1483)">
<g clip-path="url(#clip1_419_1483)">
<g clip-path="url(#clip2_419_1483)">
<path d="M35.3275 21.7487C37.3864 15.941 37.1207 13.2292 36.6765 10.9485C36.2792 8.91219 35.3249 7.02596 33.9198 5.49951C33.2253 4.7795 32.3896 4.21075 31.4649 3.82895C30.5403 3.44715 29.5468 3.26053 28.5466 3.28079H27.8065C26.8069 3.26098 25.814 3.44782 24.8899 3.82961C23.9659 4.2114 23.1307 4.7799 22.4366 5.49951C21.034 7.02545 20.0807 8.90961 19.6823 10.9436C19.2365 13.2259 18.974 15.9443 21.033 21.7438C21.4444 22.8471 21.9129 23.9283 22.4366 24.983C22.4947 25.1072 22.5868 25.2125 22.7021 25.2866C22.8175 25.3608 22.9515 25.4007 23.0887 25.402C23.2024 25.4021 23.3144 25.3741 23.4147 25.3205C23.5903 25.2236 23.722 25.0631 23.7827 24.872C23.8433 24.6809 23.8283 24.4738 23.7407 24.2934C23.2411 23.2911 22.7938 22.2635 22.4007 21.2148C20.4754 15.7886 20.7094 13.3164 21.1128 11.2493C21.3095 10.3042 21.6336 9.39029 22.0763 8.53252C22.0812 8.76401 22.0942 8.98246 22.1122 9.18461C22.4243 12.5852 23.4652 15.4699 25.8242 19.4745C25.9578 19.6995 26.0997 19.9351 26.2497 20.1755C26.3003 20.2566 26.3669 20.3267 26.4453 20.3815C26.5237 20.4363 26.6124 20.4747 26.706 20.4944C26.7996 20.5142 26.8963 20.5148 26.9901 20.4962C27.084 20.4777 27.1731 20.4404 27.2522 20.3866C27.414 20.2723 27.5266 20.1012 27.5675 19.9074C27.6085 19.7137 27.5748 19.5116 27.4731 19.3417C27.3288 19.1102 27.1935 18.8852 27.0656 18.67C24.8061 14.839 23.8532 12.2307 23.5606 9.0387C23.5054 8.17147 23.5311 7.30099 23.6372 6.43851C24.7582 5.3664 26.2573 4.78048 27.8081 4.8083H28.5482C30.0991 4.78048 31.5982 5.3664 32.7192 6.43851C32.8242 7.30136 32.849 8.17208 32.7933 9.03952C32.5015 12.225 31.5511 14.8357 29.2884 18.6692C28.8474 19.4191 28.289 20.2921 27.5929 21.3183L23.7619 26.654C18.8949 33.1316 13.1346 40.0429 13.0767 40.113C12.9878 40.221 12.929 40.3505 12.9064 40.4885C12.8838 40.6266 12.8981 40.7681 12.9479 40.8988L17.052 51.699C17.0984 51.8266 17.1794 51.9389 17.2859 52.0232C17.3924 52.1075 17.5202 52.1606 17.6552 52.1766C17.6801 52.178 17.7052 52.178 17.7302 52.1766C17.8525 52.1758 17.9727 52.1439 18.0794 52.0839C18.1861 52.0239 18.2757 51.9377 18.3398 51.8334C18.3961 51.7438 24.0236 42.8053 28.8123 34.4545L32.658 27.4878C33.6692 25.6328 34.5613 23.7153 35.3291 21.747L35.3275 21.7487ZM27.553 33.6908C23.8296 40.1815 19.5919 47.0374 17.8883 49.7737L14.4648 40.7692C15.7038 39.2726 20.6499 33.2702 24.9104 27.5954L24.9194 27.5832L28.7716 22.2263C29.4978 21.1536 30.0758 20.2529 30.5314 19.4753C32.8952 15.4732 33.9312 12.5893 34.2434 9.18542C34.2621 8.98164 34.2744 8.76238 34.2793 8.53334C34.722 9.39111 35.0461 10.3051 35.2427 11.2501C35.6503 13.3172 35.8801 15.7894 33.954 21.2148C33.2158 23.1097 32.3585 24.9561 31.3873 26.7428L27.553 33.6908Z" fill="black"/>
<path d="M43.6706 39.9241C43.625 39.8744 39.1484 34.9283 34.2382 28.7425C34.1101 28.5813 33.9232 28.4776 33.7187 28.4542C33.5142 28.4309 33.3087 28.4897 33.1476 28.6178C32.9864 28.7458 32.8827 28.9327 32.8594 29.1372C32.836 29.3418 32.8948 29.5472 33.0229 29.7084C37.2044 34.9723 41.0761 39.3519 42.1961 40.6055L38.5599 49.7519C37.0161 47.4141 33.4924 42.0149 29.7999 35.9016C29.6936 35.7253 29.5215 35.5984 29.3217 35.549C29.1218 35.4995 28.9105 35.5315 28.7342 35.6379C28.5579 35.7442 28.4311 35.9163 28.3816 36.1161C28.3322 36.316 28.3641 36.5273 28.4705 36.7036C33.4035 44.8743 38.0448 51.7782 38.0888 51.8467C38.1598 51.952 38.2555 52.0383 38.3676 52.098C38.4798 52.1577 38.6049 52.1889 38.7319 52.189C38.7591 52.189 38.7862 52.189 38.8134 52.189C38.9542 52.1734 39.0882 52.1196 39.2006 52.0334C39.3131 51.9472 39.3999 51.8319 39.4516 51.7L43.8125 40.7368C43.868 40.6012 43.884 40.4527 43.8586 40.3085C43.8332 40.1642 43.7675 40.0301 43.669 39.9217L43.6706 39.9241Z" fill="black"/>
<path d="M32.3713 9.29186C32.4149 9.19937 32.4397 9.09918 32.4445 8.99705C32.4492 8.89492 32.4337 8.79286 32.3988 8.69674C32.364 8.60062 32.3105 8.51233 32.2414 8.43695C32.1724 8.36157 32.0891 8.30058 31.9964 8.25749C30.8656 7.72772 29.6333 7.44962 28.3846 7.44238C27.0732 7.4567 25.7817 7.76563 24.6058 8.34634C24.4499 8.42413 24.3249 8.55219 24.2508 8.70984C24.1767 8.86749 24.1579 9.04551 24.1975 9.21514C24.2371 9.38478 24.3327 9.53611 24.4689 9.64469C24.6051 9.75327 24.774 9.81275 24.9481 9.81353C25.0643 9.81221 25.1786 9.78433 25.2823 9.73202C26.2224 9.26906 27.2542 9.02273 28.302 9.01116C29.3498 8.9996 30.3869 9.22308 31.337 9.66518C31.4294 9.70906 31.5297 9.73414 31.632 9.73898C31.7342 9.74381 31.8364 9.7283 31.9326 9.69335C32.0288 9.6584 32.1172 9.6047 32.1925 9.53536C32.2678 9.46602 32.3286 9.38242 32.3713 9.28942V9.29186Z" fill="#04356F"/>
</g>
</g>
</g>
<defs>
<clipPath id="clip0_419_1483">
<rect width="55.4273" height="55.4273" fill="white" transform="translate(0.669434 0.0185547)"/>
</clipPath>
<clipPath id="clip1_419_1483">
<rect width="55.4273" height="55.4273" fill="white" transform="translate(0.669434 0.0185547)"/>
</clipPath>
<clipPath id="clip2_419_1483">
<rect width="55.4273" height="55.4273" fill="white" transform="translate(0.669434 0.0185547)"/>
</clipPath>
</defs>
</svg>
