<svg width="56" height="56" viewBox="0 0 56 56" fill="none" xmlns="http://www.w3.org/2000/svg">
<g clip-path="url(#clip0_419_1544)">
<g clip-path="url(#clip1_419_1544)">
<g clip-path="url(#clip2_419_1544)">
<path d="M29.6042 28.4269C29.6134 29.2414 29.3803 30.0402 28.9345 30.7219C28.4887 31.4036 27.8503 31.9373 27.1004 32.2554C26.3506 32.5734 25.5231 32.6614 24.7232 32.5081C23.9232 32.3548 23.1869 31.9672 22.6077 31.3945C22.0285 30.8217 21.6327 30.0898 21.4705 29.2916C21.3083 28.4934 21.387 27.665 21.6966 26.9116C22.0063 26.1582 22.5329 25.5139 23.2095 25.0605C23.8862 24.6071 24.6824 24.3651 25.4969 24.3652C26.5783 24.3654 27.616 24.7919 28.3849 25.5523C29.1539 26.3127 29.592 27.3456 29.6042 28.4269Z" fill="#003D73"/>
<path d="M34.5167 43.573C34.3897 43.3832 34.2171 43.2281 34.0148 43.1218C33.8125 43.0156 33.5869 42.9617 33.3584 42.965C33.1865 42.9586 33.0149 42.9863 32.8536 43.0463C32.6923 43.1063 32.5445 43.1975 32.4184 43.3146C32.2924 43.4318 32.1907 43.5727 32.1191 43.7292C32.0475 43.8857 32.0075 44.0548 32.0013 44.2268V44.79C30.8386 45.242 29.632 45.5718 28.401 45.7738C27.9602 45.6592 27.577 45.3865 27.3242 45.0076C27.2974 44.9394 27.2868 44.866 27.2932 44.793C27.2995 44.7201 27.3227 44.6495 27.3609 44.587C27.4603 44.5691 27.5598 44.5601 27.6682 44.5512C28.7278 44.4525 30.0475 44.0148 30.5455 43.075C30.6988 42.7601 30.7653 42.41 30.7382 42.0609C30.7112 41.7117 30.5914 41.3761 30.3915 41.0886C30.3308 40.9862 30.2328 40.9112 30.1181 40.8794C30.0033 40.8477 29.8808 40.8616 29.7761 40.9182C29.6731 40.9765 29.5972 41.073 29.565 41.1869C29.5328 41.3008 29.5469 41.4227 29.6041 41.5263C29.727 41.6841 29.8046 41.8725 29.8285 42.0711C29.8523 42.2698 29.8215 42.4712 29.7394 42.6536C29.5136 42.934 29.2322 43.1647 28.9129 43.3311C28.5937 43.4975 28.2434 43.5959 27.8842 43.6203C28.083 43.2507 28.1644 42.8292 28.1175 42.4121C28.0706 41.995 27.8977 41.6021 27.6217 41.2858C27.5335 41.2044 27.417 41.1606 27.2969 41.164C27.1769 41.1673 27.0629 41.2175 26.9794 41.3038C26.9387 41.3465 26.9069 41.3969 26.8857 41.4521C26.8645 41.5072 26.8545 41.566 26.8562 41.625C26.8579 41.684 26.8712 41.7421 26.8954 41.796C26.9196 41.8498 26.9543 41.8984 26.9974 41.9388C27.0063 41.9477 27.5581 42.5207 26.7895 43.7817C25.4629 44.0522 24.2835 44.8042 23.4785 45.8928C21.9828 45.7239 20.5146 45.3662 19.1087 44.8283V44.2292C19.0954 43.8824 18.945 43.555 18.6906 43.3189C18.4361 43.0828 18.0985 42.9573 17.7516 42.9699C17.5145 42.9666 17.2806 43.0249 17.0728 43.1392C16.865 43.2536 16.6906 43.4199 16.5664 43.6219C14.6673 42.526 12.9867 41.0891 11.6089 39.3834C12.1477 38.9896 12.5317 38.4198 12.6947 37.7727C12.7112 37.7051 12.7234 37.6365 12.7314 37.5673C13.0574 37.7996 13.3101 38.0417 13.328 38.1664L13.319 38.2113C13.2504 38.4503 13.2336 38.7013 13.2697 38.9473C13.3059 39.1934 13.3942 39.4289 13.5287 39.6381C13.6632 39.8473 13.8408 40.0254 14.0497 40.1604C14.2585 40.2954 14.4938 40.3843 14.7398 40.421C14.839 40.4379 14.9332 40.4763 15.016 40.5335C15.0988 40.5906 15.1681 40.6652 15.2191 40.752C15.2981 40.9729 15.2917 41.2153 15.2011 41.4318C15.1573 41.5414 15.1585 41.6639 15.2042 41.7728C15.25 41.8817 15.3367 41.9682 15.4457 42.0137C15.4996 42.0384 15.5584 42.0507 15.6176 42.0496C15.7067 42.0496 15.7937 42.0233 15.8678 41.974C15.9419 41.9247 15.9998 41.8546 16.0342 41.7725C16.1274 41.5483 16.1747 41.3077 16.1732 41.0649C16.1716 40.8221 16.1213 40.582 16.0252 40.3591C15.9168 40.1566 15.766 39.9799 15.5831 39.8409C15.4003 39.702 15.1897 39.604 14.9656 39.5537C14.0787 39.3035 14.1244 38.9098 14.1969 38.3107L14.2059 38.2569C14.2605 37.8273 13.9793 37.3888 13.3557 36.9152C13.1203 36.7394 12.8724 36.5808 12.614 36.4409C12.4366 35.9033 12.1571 35.4051 11.7907 34.9737C11.5268 34.6536 11.285 34.3159 11.0669 33.9629C12.1373 33.5883 13.0259 32.822 13.5538 31.8184C14.1349 33.7507 15.1764 35.5131 16.5889 36.9541C18.0015 38.3951 19.7427 39.4716 21.6631 40.0911C23.5835 40.7106 25.6256 40.8546 27.6139 40.5107C29.6022 40.1668 31.4773 39.3452 33.078 38.1167C32.8881 37.8844 32.7072 37.6513 32.5262 37.41C30.9852 38.593 29.1706 39.3681 27.2505 39.6637C25.3304 39.9593 23.3667 39.7659 21.5412 39.1012C19.7157 38.4366 18.0873 37.3223 16.8067 35.8614C15.5261 34.4004 14.6346 32.6401 14.2148 30.7433C14.3951 30.4257 14.6172 30.1337 14.8751 29.8752C14.8539 30.2129 14.9051 30.5512 15.0253 30.8675C15.1455 31.1838 15.3319 31.4707 15.572 31.7092C15.9429 31.9953 15.8703 32.2642 15.8524 32.3083L15.8614 32.2993L16.6936 32.6571C16.8013 32.3607 16.8054 32.0365 16.7052 31.7375C16.605 31.4385 16.4064 31.1822 16.1418 31.0106C15.8698 30.6599 15.7463 30.2165 15.7978 29.7757C16.4544 30.0647 16.9733 30.5971 17.2454 31.2608C17.2881 31.372 17.3724 31.4621 17.4804 31.5122C17.5885 31.5623 17.7117 31.5683 17.8241 31.529C17.8794 31.5094 17.9303 31.4791 17.9739 31.4398C18.0175 31.4005 18.0529 31.353 18.0781 31.3C18.1033 31.247 18.1178 31.1895 18.1208 31.1309C18.1238 31.0723 18.1152 31.0137 18.0956 30.9584C17.8851 30.4017 17.5333 29.9093 17.0748 29.5297C16.6164 29.1501 16.067 28.8964 15.4807 28.7935C15.2012 28.7721 14.921 28.8235 14.6673 28.9426C14.4136 29.0617 14.1951 29.2446 14.0331 29.4733C14.0062 29.1334 13.9882 28.7846 13.9882 28.4357C13.9882 28.1496 13.9972 27.8651 14.0249 27.5766C14.4235 27.5497 14.8115 27.5586 15.1832 27.5676C16.2779 27.5945 17.4084 27.6214 17.9065 26.5895C17.9326 26.5366 17.948 26.479 17.9517 26.4201C17.9553 26.3612 17.9473 26.3022 17.9279 26.2464C17.9086 26.1907 17.8784 26.1393 17.839 26.0954C17.7996 26.0514 17.7519 26.0157 17.6986 25.9904C17.5909 25.9378 17.4667 25.9298 17.3531 25.9683C17.2396 26.0068 17.1458 26.0885 17.0922 26.1958C16.8574 26.6791 16.2868 26.6848 15.2101 26.6612C14.8661 26.6522 14.5132 26.6433 14.1423 26.6612C14.5874 23.8794 16.0511 21.3625 18.2488 19.5999C19.729 18.4042 21.4824 17.5938 23.3522 17.241C23.4427 17.4643 23.4973 17.6168 23.5152 17.6437C23.551 17.7241 23.6094 17.7923 23.6834 17.84C23.7574 17.8876 23.8437 17.9126 23.9317 17.9118C23.9939 17.913 24.0556 17.9007 24.1127 17.876C24.1669 17.8527 24.216 17.819 24.2572 17.7767C24.2984 17.7345 24.3308 17.6845 24.3526 17.6296C24.3744 17.5748 24.3852 17.5162 24.3843 17.4572C24.3834 17.3982 24.3709 17.34 24.3474 17.2858C24.3205 17.232 24.2928 17.1603 24.2659 17.0984C24.6807 17.0547 25.0976 17.0338 25.5147 17.0356C25.813 17.0356 26.1032 17.0446 26.3925 17.0715C26.5387 17.1479 26.6632 17.26 26.7545 17.3975C26.8635 17.5901 26.9018 17.8147 26.8629 18.0325C26.8478 18.0898 26.8442 18.1495 26.8525 18.2081C26.8608 18.2668 26.8807 18.3232 26.9111 18.3741C26.9414 18.4249 26.9817 18.4692 27.0294 18.5044C27.0771 18.5395 27.1313 18.5647 27.1889 18.5786C27.2272 18.589 27.2666 18.595 27.3063 18.5965C27.4049 18.5962 27.5007 18.5638 27.5791 18.504C27.6575 18.4443 27.7143 18.3606 27.7407 18.2656C27.8209 17.9305 27.8019 17.5794 27.6861 17.2549C30.5489 17.7992 33.1013 19.403 34.8338 21.7461C33.8876 21.6018 32.9201 21.7098 32.029 22.0591C31.9733 22.0797 31.9223 22.1112 31.8788 22.1518C31.8354 22.1923 31.8005 22.2411 31.7761 22.2952C31.7516 22.3493 31.7382 22.4078 31.7366 22.4672C31.7349 22.5266 31.7451 22.5857 31.7665 22.6411C31.8106 22.7532 31.8972 22.8434 32.0074 22.8919C32.1176 22.9405 32.2426 22.9435 32.3551 22.9003C33.383 22.481 34.5325 22.4714 35.5674 22.8734C35.7304 23.1595 35.8845 23.4554 36.0198 23.7594C35.7285 23.8065 35.431 23.8004 35.1419 23.7415C35.0273 23.7108 34.9051 23.7265 34.8019 23.785C34.6987 23.8436 34.6226 23.9404 34.5901 24.0545C34.5597 24.169 34.5761 24.2908 34.6356 24.3932C34.695 24.4956 34.7927 24.5702 34.9072 24.6006C35.1417 24.6528 35.3817 24.6768 35.622 24.6723C35.871 24.6722 36.1194 24.6481 36.3637 24.6006C36.652 25.3989 36.8495 26.2271 36.9523 27.0696C37.2327 27.4453 37.5041 27.8301 37.7576 28.2107C37.7943 28.2555 37.8391 28.3004 37.875 28.3452C37.8939 28.3683 37.9152 28.3893 37.9385 28.408C37.9388 27.0131 37.6966 25.6289 37.2229 24.317C37.627 24.139 38.0023 23.9016 38.3363 23.6127C38.4089 23.6127 38.4814 23.6217 38.5531 23.6217C39.0401 23.6421 39.5255 23.5535 39.9739 23.3625C40.1218 23.294 40.2567 23.2002 40.3724 23.0853C40.599 23.2997 40.6072 23.6045 40.4173 24.0789C40.3782 24.1631 40.3565 24.2543 40.3537 24.3471C40.3535 24.4064 40.3651 24.465 40.3878 24.5198C40.4105 24.5745 40.4439 24.6241 40.486 24.6658C40.5281 24.7074 40.5781 24.7403 40.6331 24.7624C40.688 24.7845 40.7468 24.7955 40.8061 24.7946C40.9097 24.7945 41.0102 24.759 41.0909 24.6939C41.1716 24.6288 41.2275 24.5381 41.2495 24.4368C41.2518 24.4233 41.258 24.4108 41.2674 24.4009C41.4017 24.0815 41.4635 23.7363 41.4484 23.3902C41.9675 23.5952 42.4346 23.9128 42.8161 24.3202C43.14 25.662 43.3042 27.0374 43.3052 28.4178C43.3046 29.1811 43.2532 29.9436 43.1511 30.7001C42.8602 30.6358 42.5614 30.6146 42.2643 30.6373C42.3302 30.2443 42.2805 29.8406 42.1213 29.4752C41.9622 29.1099 41.7004 28.7986 41.3677 28.5791C40.8248 28.311 40.789 28.1944 40.8517 27.8814C40.8885 27.7355 40.8938 27.5834 40.8673 27.4353C40.8407 27.2871 40.7829 27.1463 40.6977 27.0223C40.4132 26.6799 40.0151 26.4514 39.5761 26.3784C39.4591 26.3592 39.3393 26.387 39.2427 26.4557C39.1461 26.5243 39.0805 26.6284 39.0601 26.7452C39.0502 26.8031 39.0519 26.8624 39.0653 26.9196C39.0786 26.9768 39.1033 27.0307 39.1379 27.0782C39.1725 27.1257 39.2162 27.1658 39.2666 27.1961C39.3169 27.2264 39.3728 27.2463 39.431 27.2546C39.628 27.2866 39.8108 27.3769 39.9559 27.5138C39.9738 27.538 39.985 27.5666 39.9881 27.5965C39.9913 27.6265 39.9863 27.6567 39.9739 27.6842C39.8927 28.0385 39.9494 28.4105 40.1326 28.7245C40.3158 29.0385 40.6117 29.271 40.9601 29.3747C41.3677 29.5801 41.3946 30.2786 41.3587 30.7343C41.2172 30.746 41.0751 30.749 40.9332 30.7433C40.4162 30.694 39.9206 30.5121 39.4946 30.2151C39.8364 30.6353 40.1366 31.0876 40.3912 31.5657C40.5432 31.5998 40.6973 31.6238 40.8525 31.6374C41.1728 31.6541 41.4938 31.639 41.8111 31.5926H41.8568C42.2421 31.5165 42.6386 31.5165 43.024 31.5926C42.8694 32.4144 42.6577 33.2244 42.3906 34.0167C42.843 34.5449 43.2954 35.0764 43.7299 35.6184C45.1538 32.0966 45.5017 28.2318 44.7297 24.5123C43.9577 20.7929 42.1005 17.3857 39.3927 14.7215C38.0225 13.3662 36.462 12.2179 34.7604 11.3127V6.28516H32.0461V10.1504C27.8718 8.71048 23.3379 8.69471 19.1536 10.1056V6.28597H16.4393V11.2687C14.6904 12.1767 13.0891 13.3441 11.6896 14.7313C9.86364 16.5132 8.41173 18.6417 7.41905 20.992C6.42637 23.3423 5.91289 25.8672 5.90872 28.4185C5.90454 30.9699 6.40975 33.4964 7.39474 35.8499C8.37972 38.2035 9.82465 40.3367 11.6448 42.1246C13.0441 43.512 14.6455 44.6794 16.3944 45.5872V50.3017H19.1087V46.7495C23.293 48.1604 27.8269 48.1446 32.0013 46.7047V50.3009H34.7156V45.5326C35.8789 44.9186 36.9764 44.1872 37.9907 43.3497C37.5204 42.956 37.059 42.5533 36.6246 42.1327C35.9557 42.6605 35.2514 43.1417 34.5167 43.573ZM36.8601 23.497C36.8422 23.4611 36.8333 23.4252 36.8153 23.3894C36.8699 23.4073 36.9237 23.4163 36.9873 23.4342C36.9467 23.4585 36.9042 23.4795 36.8601 23.497ZM42.3613 22.871C41.9994 22.6737 41.6106 22.5042 41.212 22.3248C41.0857 22.271 40.9495 22.2083 40.8232 22.1545C41.1005 21.8551 41.449 21.6308 41.8364 21.5024C42.0353 21.9499 42.2072 22.4063 42.3613 22.871ZM39.656 18.3259C39.5476 18.0129 39.5207 17.8695 39.6111 17.7439C40.3243 18.662 40.9456 19.6479 41.4663 20.6873C40.8847 20.8874 40.377 21.2584 40.0097 21.7518C39.5822 21.529 39.1891 21.2457 38.8425 20.9106C38.7308 20.8029 38.628 20.6862 38.5352 20.5618C38.9786 20.2308 40.0097 19.3277 39.6568 18.3251L39.656 18.3259ZM24.3483 11.0438C24.4128 11.003 24.4634 10.9436 24.4933 10.8734C24.8284 10.8555 25.1536 10.8465 25.4886 10.8465C27.714 10.8428 29.9204 11.2556 31.994 12.0634V12.3585C32.0067 12.7058 32.1568 13.0338 32.4113 13.2704C32.6658 13.507 33.0038 13.6329 33.3511 13.6203C33.5395 13.6213 33.7262 13.5845 33.9002 13.5123C34.0742 13.4401 34.232 13.3338 34.3643 13.1997C36.1251 14.2075 37.7008 15.5086 39.0234 17.047C38.8228 17.2509 38.6919 17.5132 38.6497 17.7962C38.6075 18.0792 38.6562 18.3682 38.7887 18.6218C38.915 18.9886 38.3999 19.5184 38.02 19.8119C37.603 19.0031 37.3682 18.1128 37.3321 17.2035C37.3321 17.0835 37.2844 16.9685 37.1996 16.8836C37.1148 16.7988 36.9997 16.7511 36.8797 16.7511C36.7597 16.7511 36.6447 16.7988 36.5598 16.8836C36.475 16.9685 36.4273 17.0835 36.4273 17.2035C36.4664 18.8165 37.0938 20.3596 38.1912 21.5423C38.6073 21.9412 39.076 22.2812 39.5842 22.5531C39.5741 22.5626 39.5613 22.5689 39.5476 22.571C39.1036 22.728 38.6293 22.7799 38.1619 22.7226H38.1529C37.617 22.6977 37.0899 22.5765 36.5969 22.3648C36.4616 22.293 36.3075 22.2213 36.1534 22.1504C35.1414 20.4788 33.7499 19.0691 32.0916 18.0353C30.4334 17.0016 28.555 16.3729 26.6085 16.2001C26.4338 16.1233 26.252 16.0635 26.0657 16.0216C25.9178 15.9912 25.7725 15.9493 25.6312 15.8961C25.8032 15.905 25.9931 15.914 26.1741 15.9409C26.4036 15.9974 26.6458 15.9698 26.8567 15.863C27.0675 15.7562 27.2331 15.5774 27.3234 15.3589C27.4139 15.1959 27.4587 15.1087 27.6307 15.0459C27.9111 14.9473 28.3186 15.2334 28.7074 15.5203C28.9265 15.6891 29.1597 15.8388 29.4044 15.9678C29.5731 16.0523 29.7585 16.0982 29.9472 16.1023C30.1837 16.09 30.4131 16.0168 30.613 15.8899C30.8129 15.7629 30.9767 15.5865 31.0884 15.3777C31.1172 15.3261 31.1355 15.2692 31.142 15.2104C31.1485 15.1516 31.1431 15.0921 31.1263 15.0354C31.1094 14.9788 31.0813 14.926 31.0438 14.8804C31.0062 14.8347 30.9598 14.797 30.9074 14.7696C30.802 14.7124 30.6783 14.699 30.563 14.7324C30.4478 14.7658 30.3504 14.8433 30.292 14.9481C30.2284 15.0557 30.0573 15.297 29.803 15.1715C29.606 15.0652 29.4184 14.9425 29.2422 14.8047C28.9979 14.553 28.6941 14.3669 28.3588 14.2638C28.0236 14.1606 27.6677 14.1437 27.3242 14.2145C26.9746 14.3384 26.6882 14.5957 26.5279 14.9302C26.501 14.975 26.4643 15.0378 26.4463 15.0647C26.3978 15.0696 26.3488 15.0666 26.3013 15.0557C25.8317 14.99 25.3565 14.9753 24.8838 15.0117C24.8748 14.9758 24.8748 14.9489 24.8658 14.9131C24.8426 14.7669 24.8063 14.6232 24.7574 14.4835C24.5765 14.027 23.7255 12.4172 23.5723 12.1303C23.703 11.6924 23.9772 11.3112 24.3507 11.0478L24.3483 11.0438ZM23.9228 14.8193C23.9407 14.8731 23.9594 14.9709 23.9863 15.0785C24.0302 15.4928 24.201 15.8834 24.4754 16.1969L23.9505 16.2507C23.6945 15.4668 23.5274 14.6567 23.4525 13.8355C23.6611 14.2561 23.851 14.6506 23.9228 14.8193ZM13.1927 30.7082C12.5773 31.7279 11.8714 32.8821 10.7319 33.1234C10.71 33.1264 10.6886 33.1325 10.6683 33.1413C10.4528 32.4196 10.459 31.6497 10.6863 30.9315C10.7132 30.8068 10.7409 30.6723 10.7678 30.5378C10.8067 30.4785 10.8315 30.411 10.8403 30.3406C10.9076 29.7722 11.1285 29.2329 11.4792 28.7805C11.8298 28.3282 12.2971 27.9799 12.8308 27.773C12.9228 27.7438 13.0164 27.7198 13.1112 27.7013C13.0933 27.9458 13.0933 28.1846 13.0933 28.4259C13.0921 29.1458 13.1556 29.8644 13.2832 30.5729C13.2565 30.62 13.2263 30.6658 13.1927 30.7082ZM11.0571 38.671C8.88499 35.6973 7.71464 32.11 7.71518 28.4275C7.72397 25.3136 8.56098 22.258 10.1403 19.5743C11.7197 16.8906 13.9845 14.6753 16.7026 13.1557C16.8341 13.3038 16.9959 13.422 17.177 13.5023C17.3581 13.5826 17.5543 13.6231 17.7524 13.6211C17.9244 13.6274 18.0959 13.5998 18.2572 13.5398C18.4185 13.4798 18.5664 13.3886 18.6924 13.2714C18.8185 13.1543 18.9202 13.0134 18.9918 12.8569C19.0633 12.7004 19.1034 12.5313 19.1096 12.3593V12.0284C20.4055 11.5372 21.7531 11.1951 23.1264 11.0087C22.0945 12.4938 22.5925 14.9269 23.0449 16.4031C20.5321 16.8985 18.2352 18.1623 16.4718 20.0199C14.7085 21.8774 13.5658 24.2369 13.2017 26.7721C12.985 26.811 12.7706 26.8616 12.5594 26.9237C11.8928 27.1332 11.303 27.5351 10.8639 28.0787C10.7864 27.6686 10.5855 27.2921 10.288 26.9994C9.99054 26.7067 9.61074 26.5119 9.19949 26.4411C9.08014 26.4266 8.95987 26.4598 8.8649 26.5335C8.76993 26.6073 8.70796 26.7156 8.69249 26.8348C8.6863 26.8931 8.69172 26.9521 8.70843 27.0083C8.72515 27.0646 8.75284 27.1169 8.78989 27.1624C8.82695 27.2079 8.87264 27.2455 8.92434 27.2733C8.97603 27.301 9.03271 27.3182 9.09109 27.3239C9.20846 27.3418 10.2583 27.5472 10.0415 29.4171C9.97792 29.9265 9.88745 30.365 9.8149 30.7498L9.73339 31.1524C9.60958 31.1394 9.49096 31.0958 9.38821 31.0255C9.28547 30.9552 9.20184 30.8605 9.14488 30.7498C9.11594 30.6703 9.10425 30.5856 9.11057 30.5013C9.11689 30.417 9.1411 30.335 9.18156 30.2607C9.35387 30.0955 9.48779 29.8944 9.57384 29.6717C9.6599 29.4491 9.696 29.2102 9.67959 28.972C9.67982 28.9128 9.66823 28.8541 9.64552 28.7994C9.6228 28.7447 9.5894 28.695 9.54728 28.6534C9.50517 28.6117 9.45517 28.5789 9.40022 28.5567C9.34526 28.5346 9.28644 28.5237 9.22721 28.5245C9.10801 28.5243 8.99355 28.5712 8.90881 28.6551C8.82406 28.7389 8.7759 28.8528 8.77482 28.972C8.78023 29.1637 8.73999 29.354 8.65745 29.5271C8.47111 29.6906 8.33359 29.9025 8.26009 30.1392C8.18659 30.376 8.17996 30.6285 8.24093 30.8688C8.32988 31.1775 8.50767 31.4532 8.75218 31.6617C8.99668 31.8701 9.2971 32.002 9.61601 32.0409C9.57118 32.9807 9.86055 33.9735 11.0995 35.5206C11.3629 35.7856 11.5637 36.1061 11.6874 36.4586C11.8111 36.8112 11.8544 37.1869 11.8144 37.5584C11.7002 38.0063 11.431 38.3993 11.0547 38.6677L11.0571 38.671ZM25.4967 46.007C25.1797 46.007 24.8724 45.998 24.5651 45.98C25.0746 45.4544 25.7006 45.056 26.3925 44.8169C26.3914 44.9908 26.4221 45.1634 26.483 45.3263C26.5874 45.5649 26.7416 45.7784 26.9354 45.9523C26.4556 45.9877 25.976 46.0056 25.4967 46.0061V46.007Z" fill="black"/>
<path d="M43.4823 41.257C43.6303 41.1284 43.8201 41.0583 44.0162 41.0597C44.1361 41.0593 44.2547 41.0847 44.3639 41.134C44.4732 41.1834 44.5706 41.2556 44.6495 41.3458L49.9241 47.4738V44.7114L46.0246 40.1932C45.5954 39.6944 44.9949 39.3745 44.3414 39.2966L33.0228 26.1367L31.2769 27.6039C30.6802 28.1052 30.7609 28.9007 31.6478 31.3078C32.1548 32.6853 32.806 34.2242 33.15 35.0206C33.356 35.4984 33.6336 35.942 33.9733 36.3362L38.4066 41.4803L38.9495 41.3458C39.7951 41.2613 40.6459 41.4428 41.3834 41.865C41.3801 42.4882 41.6018 43.0917 42.0078 43.5645L47.632 50.0952H49.9143V49.6566L49.7423 49.8001L43.3731 42.4014C43.2373 42.2352 43.1725 42.0222 43.1928 41.8085C43.2131 41.5949 43.3168 41.3979 43.4815 41.2602L43.4823 41.257ZM41.9801 40.1655C41.167 39.7649 40.2777 39.5426 39.3717 39.5134C39.2723 39.5134 39.1818 39.5134 39.0824 39.5224L35.3459 35.1828C35.1273 34.9237 34.9475 34.6343 34.812 34.3237C33.973 32.5171 33.2772 30.6475 32.731 28.732L32.8125 28.6603L42.4031 39.8077L41.9801 40.1655Z" fill="#003D73"/>
</g>
</g>
</g>
<defs>
<clipPath id="clip0_419_1544">
<rect width="55.4273" height="55.4273" fill="white" transform="translate(0.202637 0.579102)"/>
</clipPath>
<clipPath id="clip1_419_1544">
<rect width="55.4273" height="55.4273" fill="white" transform="translate(0.202637 0.579102)"/>
</clipPath>
<clipPath id="clip2_419_1544">
<rect width="55.4273" height="55.4273" fill="white" transform="translate(0.202637 0.579102)"/>
</clipPath>
</defs>
</svg>
