<svg width="56" height="56" viewBox="0 0 56 56" fill="none" xmlns="http://www.w3.org/2000/svg">
<g clip-path="url(#clip0_419_1470)">
<g clip-path="url(#clip1_419_1470)">
<g clip-path="url(#clip2_419_1470)">
<path d="M7.13481 12.4855H7.27419C12.993 12.9746 17.3872 13.4009 22.0594 14.176L22.4083 14.2461C24.64 14.5983 26.8718 14.9504 28.4759 16.429C28.9945 16.9202 29.4618 17.4629 29.8706 18.0486C30.9865 19.387 32.1725 20.9357 34.1907 21.4289C34.5337 21.5103 34.884 21.5576 35.2364 21.5699C36.1613 21.5494 37.0593 21.2552 37.8171 20.7246C38.4745 20.3141 39.0379 19.7694 39.4705 19.1263C39.9031 18.4831 40.1952 17.756 40.3276 16.9922C40.5929 15.2938 40.2578 13.556 39.3801 12.0779C38.5023 10.5999 37.1368 9.474 35.5185 8.89416C34.3615 8.50286 33.1707 8.21989 31.9613 8.04889C26.1741 7.41229 19.967 6.7113 12.9229 6.01112L9.15464 5.79512C8.59711 5.79512 8.03877 5.72502 7.48123 5.72502C7.3645 5.71846 7.24762 5.7352 7.13741 5.77426C7.02721 5.81333 6.92588 5.87394 6.83933 5.95255C6.75279 6.03117 6.68275 6.12623 6.63331 6.23219C6.58387 6.33814 6.55601 6.45288 6.55136 6.56971C6.54671 6.68654 6.56536 6.80313 6.60622 6.91268C6.64708 7.02223 6.70933 7.12256 6.78935 7.20781C6.86937 7.29306 6.96556 7.36153 7.07231 7.40923C7.17906 7.45693 7.29424 7.48291 7.41113 7.48565C7.96866 7.48565 8.52701 7.55575 9.08455 7.55575C10.3398 7.62585 11.5951 7.69676 12.8503 7.83778C19.8244 8.54203 26.1015 9.24628 31.8195 9.88044C32.914 10.0203 33.9899 10.28 35.0278 10.6548C36.2507 11.1153 37.2782 11.982 37.9384 13.1098C38.5986 14.2375 38.8513 15.5578 38.6542 16.8496C38.4216 17.8878 37.797 18.796 36.9107 19.3846C36.6077 19.6177 36.2548 19.7772 35.8796 19.8505C35.5044 19.9238 35.1174 19.9088 34.749 19.8068C33.2818 19.3846 32.3037 18.2581 31.3321 16.9898C30.8542 16.3535 30.3171 15.764 29.7279 15.2292C27.7717 13.3984 25.125 12.9754 22.7539 12.5532L22.405 12.4831C17.5959 11.6378 12.9905 11.2156 7.40706 10.7224C7.19757 10.7224 6.98891 10.7224 6.91799 10.7925C6.8024 10.8058 6.6906 10.842 6.58917 10.899C6.48774 10.956 6.3987 11.0327 6.32727 11.1245C6.25584 11.2164 6.20346 11.3216 6.17318 11.4339C6.14291 11.5463 6.13536 11.6635 6.15098 11.7788C6.18778 12.0017 6.31136 12.2009 6.49466 12.3329C6.67797 12.4648 6.90608 12.5189 7.1291 12.4831L7.13481 12.4855Z" fill="black"/>
<path d="M44.9353 18.2598H45.3535C45.9546 18.278 46.5429 18.0836 47.0149 17.7109C47.4869 17.3382 47.8124 16.811 47.9341 16.222C48.21 15.1882 48.3506 14.1229 48.3523 13.0529C48.372 11.1987 47.8902 9.37369 46.9576 7.77099C46.6075 7.16392 46.0764 6.68146 45.4386 6.39106C44.8008 6.10067 44.0882 6.01686 43.4005 6.15137C43.0017 6.17704 42.6151 6.29949 42.2742 6.50812C41.9334 6.71675 41.6485 7.00529 41.4442 7.34876C41.2924 7.71297 41.2322 8.10882 41.2687 8.5017C41.3052 8.89457 41.4374 9.27253 41.6537 9.60253C42.6349 11.3374 43.0951 13.3185 42.979 15.3083C42.8429 16.9222 43.5407 18.0495 44.9353 18.2598ZM42.979 8.18914C43.1637 8.06019 43.3816 7.98693 43.6067 7.97802H43.9555C44.2539 7.97167 44.5484 8.04707 44.807 8.19606C45.0656 8.34506 45.2785 8.56196 45.4227 8.82329C46.2117 10.1162 46.6223 11.6044 46.6079 13.1189C46.595 14.0447 46.4779 14.9662 46.259 15.8658C46.1982 16.1036 46.0487 16.309 45.8412 16.44C45.6337 16.571 45.3839 16.6175 45.1432 16.5701C44.9337 16.5701 44.5848 16.5 44.6541 15.6547C44.8447 13.2975 44.3094 10.9383 43.1201 8.8942C43.0457 8.66586 42.9989 8.42942 42.9807 8.18995L42.979 8.18914Z" fill="#003D73"/>
<path d="M46.7479 22.4859C46.0544 21.9422 45.2587 21.5435 44.408 21.3136C43.5573 21.0837 42.6691 21.0272 41.7961 21.1475C40.0441 21.4393 38.3776 22.1124 36.9144 23.1192C36.3085 23.4739 35.7854 23.9542 35.3804 24.5277C35.107 24.9108 34.9163 25.3464 34.8201 25.8071C34.724 26.2677 34.7247 26.7433 34.8221 27.2037C34.983 27.6813 35.2394 28.1211 35.5757 28.4963C35.912 28.8716 36.3212 29.1745 36.7783 29.3866C38.0181 29.8825 39.1715 30.5719 40.1953 31.4292C40.516 31.7403 40.8187 32.0697 41.1017 32.4155C41.4587 32.8858 41.6762 33.4471 41.7293 34.0351V34.1052C41.9091 34.7533 42.0487 35.4118 42.1474 36.077C42.3916 37.4275 42.5549 38.7915 42.6365 40.1615C42.7066 40.7956 42.7759 46.7109 42.7759 48.8945C42.7775 49.1168 42.866 49.3296 43.0224 49.4875C43.1788 49.6454 43.3908 49.736 43.613 49.7398C43.7284 49.7356 43.8418 49.7085 43.9466 49.6601C44.0514 49.6116 44.1455 49.5428 44.2234 49.4576C44.3013 49.3724 44.3615 49.2725 44.4004 49.1638C44.4394 49.0551 44.4562 48.9397 44.4501 48.8244C44.4501 48.4723 44.38 40.7956 44.3107 39.9512C44.2118 38.5094 44.0256 37.0749 43.7532 35.6556C43.6313 34.9655 43.468 34.2834 43.2641 33.6129V33.5428C43.1004 32.7528 42.7666 32.0079 42.286 31.36C41.9567 30.9017 41.5829 30.4771 41.1701 30.0925C40.0141 29.1315 38.7212 28.3483 37.3342 27.7686C37.098 27.6707 36.8838 27.5265 36.7042 27.3445C36.5246 27.1625 36.3833 26.9464 36.2884 26.7089C36.254 26.5008 36.2609 26.288 36.3087 26.0825C36.3565 25.8771 36.4444 25.6831 36.5672 25.5116C36.8394 25.1535 37.1701 24.8441 37.5453 24.5962C38.8286 23.7257 40.2762 23.1265 41.7994 22.8356C42.4232 22.7209 43.0645 22.7434 43.6788 22.9014C44.293 23.0595 44.8655 23.3494 45.3565 23.7509C46.7512 24.9483 47.0299 27.1312 47.1701 29.2439L48.4254 48.888C48.427 49.1103 48.5155 49.3231 48.6719 49.481C48.8283 49.6389 49.0403 49.7295 49.2625 49.7333H49.3326C49.448 49.7291 49.5614 49.702 49.6662 49.6536C49.771 49.6051 49.8651 49.5363 49.943 49.4511C50.0209 49.3659 50.0811 49.266 50.12 49.1573C50.159 49.0486 50.1758 48.9332 50.1697 48.8179L48.9144 29.1738C48.9797 26.7114 48.6348 24.1756 46.7479 22.4859Z" fill="black"/>
<path d="M34.4058 31.0775C33.9921 30.9719 33.5608 30.955 33.1401 31.0277C32.7194 31.1005 32.3188 31.2614 31.9646 31.4998C31.6111 31.7173 31.3052 32.0041 31.0656 32.343C30.8259 32.6818 30.6573 33.0657 30.5699 33.4715L30.2912 34.8099C30.2055 35.1078 30.1587 35.4154 30.1518 35.7253L30.0124 36.8518C29.9517 37.1529 29.9282 37.4603 29.9423 37.7671L29.8722 38.4714C29.8722 38.8235 29.8021 39.1055 29.8021 39.4577V41.0773C29.7907 41.4541 29.8142 41.8312 29.8722 42.2038C29.8801 42.6064 29.9267 43.0074 30.0116 43.4012V43.6832C30.0817 44.0353 30.0817 44.3874 30.151 44.7428C30.2203 45.0982 30.2904 45.5172 30.3605 45.8025L30.8495 47.9152C30.9516 48.3185 31.1855 48.6762 31.5141 48.9313C31.8427 49.1865 32.2471 49.3246 32.6631 49.3237H32.7332C32.9757 49.3144 33.2134 49.2529 33.43 49.1435C33.6466 49.034 33.8371 48.8792 33.9885 48.6896C34.3218 48.3255 34.4976 47.8444 34.4776 47.3512L34.4075 45.8025V44.4641C34.3961 44.1805 34.4196 43.8966 34.4776 43.6188V43.3368C34.4897 43.0041 34.5364 42.6735 34.6169 42.3505C34.6293 42.0642 34.6761 41.7803 34.7563 41.5052L34.8264 41.2232L35.0359 40.1635C35.106 39.9524 35.1753 39.6745 35.2454 39.4593L35.9431 37.3465C36.0063 37.1233 36.1001 36.9099 36.2219 36.7124L36.64 35.515L36.8495 34.8808C37.027 34.0524 36.8695 33.1875 36.4113 32.4749C35.9531 31.7622 35.2316 31.2599 34.4042 31.0775H34.4058ZM35.1036 34.5287C35.0864 34.6346 35.0378 34.7328 34.9642 34.8107L34.546 35.9372C34.4411 36.167 34.348 36.4021 34.2673 36.6415L33.9168 37.5536C33.8467 37.7647 33.7774 38.0427 33.7073 38.2578L33.4978 38.892C33.4277 39.174 33.3584 39.4552 33.2883 39.6663C33.2182 40.0185 33.1489 40.3706 33.0788 40.7928L33.0087 41.1449C32.9334 41.445 32.8868 41.7515 32.8694 42.0603C32.7993 42.4124 32.7993 42.7646 32.73 43.12V43.402C32.73 43.7541 32.6599 44.0361 32.6599 44.3173V45.7258L32.73 47.3455C32.7228 47.3989 32.6981 47.4485 32.6599 47.4865C32.5898 47.4865 32.5898 47.4164 32.5205 47.4164L32.0314 45.3737C31.9613 45.0917 31.8921 44.7396 31.822 44.3874C31.7519 44.1054 31.7518 43.7533 31.6826 43.4012V43.19C31.6245 42.8175 31.601 42.4404 31.6125 42.0636C31.6125 41.7114 31.5424 41.3593 31.5424 41.0039V39.5253C31.531 39.2185 31.5545 38.9114 31.6125 38.6099L31.6826 37.9758C31.6826 37.6938 31.7527 37.4126 31.7527 37.1305L31.8921 36.0709C31.9622 35.7889 31.9621 35.5077 32.0314 35.2256L32.3102 33.9581C32.4094 33.5906 32.6307 33.2678 32.9378 33.0428C33.1676 32.8995 33.4341 32.8261 33.7048 32.8317C33.8255 32.8206 33.9467 32.845 34.0537 32.9018C34.2376 32.9237 34.4143 32.986 34.5713 33.0843C34.7282 33.1825 34.8615 33.3142 34.9616 33.47C35.0617 33.6258 35.1261 33.8018 35.1502 33.9854C35.1744 34.169 35.1576 34.3556 35.1011 34.532L35.1036 34.5287Z" fill="#003D73"/>
</g>
</g>
</g>
<defs>
<clipPath id="clip0_419_1470">
<rect width="55.4273" height="55.4273" fill="white" transform="translate(0.436035 0.0185547)"/>
</clipPath>
<clipPath id="clip1_419_1470">
<rect width="55.4273" height="55.4273" fill="white" transform="translate(0.436035 0.0185547)"/>
</clipPath>
<clipPath id="clip2_419_1470">
<rect width="55.4273" height="55.4273" fill="white" transform="translate(0.436035 0.0185547)"/>
</clipPath>
</defs>
</svg>
