<svg width="56" height="56" viewBox="0 0 56 56" fill="none" xmlns="http://www.w3.org/2000/svg">
<g clip-path="url(#clip0_419_1556)">
<g clip-path="url(#clip1_419_1556)">
<g clip-path="url(#clip2_419_1556)">
<path d="M29.8478 23.2227C29.6621 22.1865 29.2611 21.2008 28.6708 20.3291C28.4309 19.9881 28.122 19.7014 27.764 19.4877C27.406 19.274 27.0071 19.1379 26.5931 19.0885C26.4221 18.1327 25.9779 17.2469 25.3143 16.5381C24.6506 15.8293 23.7959 15.3279 22.8534 15.0945V9.65039C22.7963 9.01027 22.5016 8.41472 22.0274 7.98095C21.5532 7.54719 20.9338 7.30664 20.2911 7.30664C19.6485 7.30664 19.0291 7.54719 18.5549 7.98095C18.0806 8.41472 17.786 9.01027 17.7288 9.65039V15.0937C16.779 15.3267 15.9158 15.8265 15.2408 16.5342C14.5659 17.2419 14.1075 18.1279 13.9198 19.0877C13.4809 19.1395 13.0596 19.2904 12.6876 19.529C12.3156 19.7677 12.0028 20.0878 11.7728 20.4652C11.2453 21.312 10.8704 22.2448 10.6651 23.2211C10.0778 23.3408 9.54998 23.66 9.17126 24.1246C8.79254 24.5892 8.58625 25.1705 8.58741 25.7699V45.9585C8.58751 46.2943 8.65394 46.6268 8.78289 46.9368C8.91183 47.2468 9.10075 47.5284 9.33879 47.7652C9.57683 48.002 9.85931 48.1895 10.17 48.3169C10.4807 48.4442 10.8135 48.509 11.1493 48.5074H29.2936C29.6294 48.509 29.9622 48.4442 30.2729 48.3169C30.5835 48.1895 30.866 48.002 31.1041 47.7652C31.3421 47.5284 31.531 47.2468 31.66 46.9368C31.7889 46.6268 31.8554 46.2943 31.8555 45.9585V25.7031C31.9093 25.1096 31.7296 24.5185 31.3546 24.0553C30.9796 23.5922 30.4388 23.2935 29.847 23.2227H29.8478ZM30.61 41.9637H10.0424V32.938C10.6651 32.2492 13.5742 29.2178 18.8374 31.0086C22.626 32.2728 26.6591 32.6269 30.61 32.0422V41.9637ZM18.5602 16.3343C18.7203 16.306 18.8648 16.2206 18.9667 16.0939C19.0686 15.9673 19.1211 15.8079 19.1145 15.6455V9.65039C19.1689 9.37812 19.3159 9.13311 19.5306 8.95705C19.7452 8.78099 20.0143 8.68478 20.2919 8.68478C20.5696 8.68478 20.8386 8.78099 21.0533 8.95705C21.268 9.13311 21.415 9.37812 21.4694 9.65039V15.6447C21.4757 15.8037 21.533 15.9565 21.6328 16.0805C21.7326 16.2046 21.8696 16.2932 22.0236 16.3334C22.7631 16.4386 23.4567 16.7543 24.0216 17.243C24.5864 17.7317 24.9987 18.3727 25.2091 19.0893H15.3748C15.5611 18.3598 15.9661 17.7047 16.5356 17.2121C17.105 16.7195 17.8115 16.4129 18.5602 16.3334V16.3343ZM12.9499 21.1556C13.1047 20.9339 13.3127 20.7547 13.5548 20.6343C13.7969 20.514 14.0654 20.4564 14.3355 20.4669H26.2467C26.5003 20.4524 26.7535 20.5015 26.9833 20.6099C27.2131 20.7182 27.4121 20.8823 27.5623 21.0872C27.9886 21.7388 28.2924 22.4628 28.4589 23.2236H12.1201C12.3127 22.5034 12.5918 21.8093 12.9515 21.1564L12.9499 21.1556ZM11.0107 24.5318C11.2186 24.6011 29.3612 24.6011 29.5699 24.5318C29.8505 24.5796 30.1064 24.7217 30.2952 24.9347C30.4841 25.1477 30.5946 25.4188 30.6083 25.7031V30.6638C26.8233 31.2412 22.9552 30.9115 19.3224 29.702C14.7521 28.1859 11.6359 29.7713 10.0432 31.0111V25.6314C10.0654 25.3681 10.1715 25.1189 10.346 24.9205C10.5205 24.7221 10.7541 24.585 11.0123 24.5294L11.0107 24.5318ZM29.3629 47.0638H11.2186C11.064 47.0655 10.9106 47.0365 10.7674 46.9783C10.6242 46.9201 10.494 46.834 10.3845 46.7249C10.2749 46.6159 10.1881 46.4861 10.1293 46.3432C10.0704 46.2003 10.0406 46.0471 10.0416 45.8925V43.4097H30.6091V45.89C30.608 46.0499 30.5743 46.2079 30.5103 46.3544C30.4463 46.5009 30.3532 46.6329 30.2367 46.7424C30.1202 46.8519 29.9827 46.9367 29.8325 46.9915C29.6823 47.0463 29.5225 47.0701 29.3629 47.0614V47.0638Z" fill="black"/>
<path d="M42.5903 39.8278C42.7473 40.2642 43.0615 40.6262 43.4715 40.8429C43.8815 41.0596 44.3577 41.1153 44.8066 40.9991C45.0805 40.9383 45.3374 40.8174 45.5587 40.645C45.78 40.4726 45.9602 40.2531 46.0861 40.0025C46.2121 39.7518 46.2806 39.4762 46.2869 39.1958C46.2931 38.9153 46.2369 38.637 46.1222 38.381L44.8759 35.4181C44.7772 35.1489 44.7385 34.8615 44.7624 34.5758C44.7864 34.2902 44.8724 34.0132 45.0145 33.7642L45.0837 33.6949C45.1536 33.5179 45.1536 33.321 45.0837 33.1439L40.4433 20.8774L41.4826 20.4698C41.7757 20.3541 42.0428 20.1814 42.2687 19.9616C42.4945 19.7419 42.6745 19.4796 42.7982 19.1898C42.9219 18.9 42.9869 18.5885 42.9894 18.2735C42.9919 17.9584 42.9319 17.6459 42.8128 17.3542C42.6937 17.0625 42.5179 16.7973 42.2955 16.5741C42.0732 16.3508 41.8088 16.1738 41.5176 16.0535C41.2264 15.9331 40.9142 15.8717 40.5991 15.8728C40.2841 15.874 39.9723 15.9376 39.682 16.0601L36.843 8.82603C36.6384 8.32083 36.3358 7.86117 35.9525 7.47362C35.5693 7.08606 35.113 6.7783 34.6101 6.56811C34.1073 6.35792 33.5677 6.24947 33.0227 6.24902C32.4776 6.24858 31.9379 6.35615 31.4347 6.56552C30.9314 6.77489 30.4747 7.0819 30.0908 7.46883C29.7069 7.85576 29.4035 8.31492 29.1981 8.81979C28.9927 9.32466 28.8894 9.86522 28.8942 10.4102C28.899 10.9553 29.0117 11.494 29.2258 11.9952L32.1341 19.2985C31.8411 19.4143 31.5739 19.587 31.348 19.8067C31.1222 20.0264 30.9422 20.2888 30.8185 20.5786C30.6948 20.8684 30.6298 21.1798 30.6273 21.4949C30.6248 21.81 30.6848 22.1224 30.8039 22.4141C30.923 22.7058 31.0988 22.971 31.3212 23.1943C31.5435 23.4176 31.8079 23.5945 32.0991 23.7149C32.3903 23.8353 32.7025 23.8967 33.0176 23.8955C33.3327 23.8944 33.6444 23.8307 33.9347 23.7083L34.9731 23.295L39.6127 35.4906C39.6462 35.5991 39.71 35.6956 39.7967 35.7689C39.8834 35.8421 39.9893 35.889 40.1018 35.9039C40.3834 35.9693 40.6472 36.0958 40.8745 36.2744C41.1018 36.453 41.2871 36.6793 41.4174 36.9374L42.5903 39.8278ZM30.4697 11.4409C30.1967 10.7632 30.2038 10.0049 30.4894 9.33249C30.7751 8.66006 31.3159 8.12847 31.9931 7.85442C32.6642 7.5861 33.4129 7.58673 34.0836 7.85619C34.7543 8.12564 35.2953 8.64318 35.5943 9.30124L38.4333 16.6046L33.3796 18.6717L30.4697 11.4409ZM33.3087 22.3275C33.1852 22.3861 33.0511 22.419 32.9146 22.4241C32.778 22.4291 32.6418 22.4063 32.5143 22.3569C32.3869 22.3076 32.2709 22.2328 32.1733 22.137C32.0758 22.0413 31.9988 21.9267 31.947 21.8002C31.8953 21.6737 31.8699 21.5379 31.8724 21.4013C31.8749 21.2646 31.9053 21.1299 31.9616 21.0054C32.018 20.8809 32.0991 20.7692 32.2001 20.6771C32.3011 20.585 32.4198 20.5145 32.549 20.4698C32.6183 20.4698 40.7205 17.0937 40.2355 17.3007C40.3577 17.2507 40.4885 17.2253 40.6205 17.2259C40.7525 17.2264 40.8831 17.253 41.0049 17.3041C41.1266 17.3551 41.2371 17.4296 41.3301 17.5234C41.423 17.6172 41.4966 17.7283 41.5466 17.8505C41.5966 17.9727 41.622 18.1035 41.6214 18.2355C41.6208 18.3675 41.5943 18.4982 41.5432 18.6199C41.4922 18.7416 41.4176 18.8521 41.3239 18.9451C41.2301 19.038 41.119 19.1116 40.9968 19.1616L33.3087 22.3275ZM40.718 34.5916L36.1534 22.6706L39.2003 21.43L43.7673 33.3485C43.5579 33.7495 43.4371 34.1908 43.4132 34.6425C43.3893 35.0942 43.4628 35.5458 43.6288 35.9666L44.8751 38.9296C44.9235 39.0763 44.9147 39.236 44.8505 39.3765C44.7863 39.5171 44.6713 39.6282 44.5286 39.6876C44.4009 39.7117 44.2688 39.6905 44.1551 39.6275C44.0414 39.5646 43.9532 39.4639 43.9059 39.3428L42.6596 36.3799C42.478 35.9631 42.2119 35.5885 41.8782 35.2799C41.5444 34.9712 41.1502 34.7351 40.7205 34.5867L40.718 34.5916Z" fill="black"/>
<path d="M43.9049 42.443C43.4159 42.9255 41.0659 45.3366 41.0659 46.9904C41.0659 47.872 41.4161 48.7175 42.0395 49.3409C42.6629 49.9643 43.5083 50.3144 44.3899 50.3144C45.2715 50.3144 46.117 49.9643 46.7403 49.3409C47.3637 48.7175 47.7139 47.872 47.7139 46.9904C47.7139 45.3366 45.3591 42.857 44.8749 42.443C44.8121 42.3776 44.7368 42.3256 44.6535 42.2901C44.5702 42.2546 44.4805 42.2363 44.3899 42.2363C44.2993 42.2363 44.2097 42.2546 44.1263 42.2901C44.043 42.3256 43.9677 42.3776 43.9049 42.443ZM44.394 48.9883C44.1399 48.9893 43.888 48.9402 43.6529 48.8438C43.4178 48.7473 43.204 48.6054 43.0239 48.4262C42.8437 48.2469 42.7007 48.0339 42.6031 47.7992C42.5054 47.5646 42.4551 47.313 42.4548 47.0589C42.4548 46.3701 43.4933 44.9918 44.394 43.9615C45.2906 44.9951 46.3331 46.3726 46.3331 47.0589C46.3333 47.3133 46.2833 47.5653 46.1858 47.8003C46.0884 48.0353 45.9454 48.2487 45.7652 48.4283C45.5851 48.6078 45.3712 48.7501 45.1358 48.8467C44.9005 48.9434 44.6484 48.9926 44.394 48.9915V48.9883Z" fill="#003D73"/>
</g>
</g>
</g>
<defs>
<clipPath id="clip0_419_1556">
<rect width="55.4273" height="55.4273" fill="white" transform="translate(0.436035 0.579102)"/>
</clipPath>
<clipPath id="clip1_419_1556">
<rect width="55.4273" height="55.4273" fill="white" transform="translate(0.436035 0.579102)"/>
</clipPath>
<clipPath id="clip2_419_1556">
<rect width="55.4273" height="55.4273" fill="white" transform="translate(0.436035 0.579102)"/>
</clipPath>
</defs>
</svg>
