<svg width="57" height="57" viewBox="0 0 57 57" fill="none" xmlns="http://www.w3.org/2000/svg">
<g clip-path="url(#clip0_419_1754)">
<g clip-path="url(#clip1_419_1754)">
<g clip-path="url(#clip2_419_1754)">
<path d="M38.3377 34.2237C38.2726 34.168 38.1968 34.1263 38.1149 34.1011C38.033 34.0758 37.9469 34.0676 37.8617 34.077C37.7759 34.087 37.6931 34.1143 37.6182 34.1571C37.5432 34.2 37.4777 34.2576 37.4256 34.3264C37.3172 34.4685 37.2669 34.6465 37.2851 34.8243C37.3033 35.002 37.3885 35.1662 37.5234 35.2834L41.1425 38.1965L33.3338 39.3491L31.7851 37.8542C31.7248 37.7956 31.6533 37.75 31.5748 37.72C31.4963 37.6901 31.4125 37.6764 31.3285 37.68C31.2446 37.6836 31.1622 37.7043 31.0866 37.7409C31.0109 37.7774 30.9435 37.829 30.8884 37.8925C30.7734 38.0252 30.7132 38.1967 30.72 38.3721C30.7268 38.5476 30.8002 38.7139 30.9251 38.8372L31.7402 39.5977L25.6432 40.5033L24.282 39.1877C24.2216 39.1285 24.1497 39.0822 24.0708 39.0519C23.9918 39.0216 23.9075 39.0077 23.823 39.0113C23.7384 39.0149 23.6556 39.0358 23.5794 39.0728C23.5033 39.1097 23.4356 39.1619 23.3805 39.226C23.2657 39.3586 23.2056 39.53 23.2125 39.7052C23.2193 39.8805 23.2925 40.0466 23.4172 40.1699L24.0122 40.7511L17.8337 41.6648L14.6874 39.1453C14.6221 39.0922 14.5466 39.053 14.4656 39.0303C14.3845 39.0076 14.2996 39.0018 14.2163 39.0133C14.1323 39.0253 14.0516 39.0541 13.979 39.0981C13.9064 39.1421 13.8435 39.2003 13.794 39.2692C13.6911 39.4108 13.6459 39.5864 13.6679 39.7601C13.6899 39.9338 13.7772 40.0926 13.9122 40.2042L16.0641 41.9159L12.6977 42.4107C12.521 42.4292 12.3586 42.5166 12.2458 42.6538C12.1329 42.7911 12.0786 42.9673 12.0945 43.1442C12.0987 43.2319 12.1202 43.3179 12.1577 43.3972C12.1953 43.4766 12.2482 43.5477 12.3133 43.6065C12.3785 43.6653 12.4546 43.7106 12.5374 43.7398C12.6202 43.769 12.7079 43.7816 12.7955 43.7768H12.8836L17.4971 43.0937L20.0728 45.1527C20.1386 45.2064 20.2148 45.246 20.2965 45.2689C20.3783 45.2919 20.464 45.2977 20.5481 45.2861C20.6322 45.2745 20.7131 45.2456 20.7856 45.2013C20.8581 45.1571 20.9207 45.0983 20.9694 45.0288C21.0724 44.887 21.1176 44.7114 21.0956 44.5375C21.0737 44.3637 20.9863 44.2047 20.8512 44.093L19.2699 42.8288L25.2365 41.9746L26.9482 43.6317C27.0086 43.6909 27.0805 43.7372 27.1595 43.7675C27.2384 43.7979 27.3228 43.8117 27.4073 43.8081C27.4918 43.8045 27.5747 43.7836 27.6508 43.7466C27.7269 43.7097 27.7946 43.6575 27.8497 43.5934C27.9648 43.4606 28.0249 43.2889 28.0176 43.1133C28.0116 42.9381 27.9384 42.772 27.8131 42.6495L26.8594 41.7268L32.9564 40.8212L34.4888 42.299C34.5491 42.3575 34.6207 42.4031 34.6992 42.433C34.7778 42.4629 34.8616 42.4764 34.9455 42.4727C35.0295 42.4691 35.1118 42.4483 35.1874 42.4117C35.2631 42.3751 35.3304 42.3234 35.3854 42.2599C35.5002 42.1272 35.5603 41.9559 35.5534 41.7807C35.5466 41.6054 35.4735 41.4393 35.3487 41.316L34.5825 40.5726L42.5942 39.385L44.7379 41.0967C44.8034 41.1526 44.8798 41.1945 44.9621 41.2197C45.0444 41.2449 45.1311 41.2529 45.2167 41.2433C45.3023 41.2336 45.3849 41.2065 45.4596 41.1637C45.5343 41.1208 45.5994 41.063 45.6509 40.994C45.7589 40.8519 45.8089 40.6742 45.7907 40.4966C45.7725 40.3191 45.6876 40.1551 45.553 40.0379L44.4038 39.1062L47.3055 38.6791C47.3938 38.6725 47.4796 38.6473 47.5575 38.6051C47.6353 38.563 47.7033 38.5049 47.7571 38.4346C47.8124 38.3621 47.8529 38.2795 47.8761 38.1913C47.8993 38.1032 47.9049 38.0113 47.8924 37.9211C47.8805 37.8314 47.8507 37.7451 47.8048 37.6673C47.7589 37.5894 47.6977 37.5216 47.6251 37.4679C47.5541 37.4161 47.4728 37.3802 47.3868 37.3625C47.3007 37.3448 47.2119 37.3457 47.1262 37.3651L42.9936 37.9797L38.3377 34.2237Z" fill="#003D73"/>
<path d="M50.2129 30.3671L54.7115 19.1944C54.7366 19.1343 54.7531 19.0709 54.7604 19.0061C54.7836 18.7247 54.7505 18.4415 54.6632 18.173C54.5759 17.9044 54.436 17.656 54.2518 17.442C54.0252 17.1784 53.7318 16.9806 53.4024 16.8696C53.0731 16.7585 52.7198 16.7383 52.3799 16.8109C52.04 16.8836 51.7259 17.0464 51.4707 17.2824C51.2154 17.5184 51.0285 17.8187 50.9294 18.1519L46.7887 28.2307C45.4275 25.0445 46.1121 21.286 46.7887 17.6303C47.5467 13.5303 48.2559 9.66096 46.1855 6.6793C46.1385 6.60925 46.0776 6.54959 46.0066 6.50402C45.9356 6.45844 45.856 6.42791 45.7727 6.41432C45.6894 6.40072 45.6043 6.40434 45.5224 6.42496C45.4406 6.44558 45.3639 6.48276 45.297 6.5342C45.1599 6.6426 45.0691 6.79923 45.0434 6.97218C45.0176 7.14513 45.0588 7.32139 45.1585 7.46505C46.9028 9.98455 46.2426 13.5727 45.5416 17.3825C44.7265 21.6536 43.9603 26.0226 46.1448 29.8112L45.8595 30.5032C44.4005 30.0352 42.8759 29.8046 41.3438 29.8202C37.7773 29.9146 34.2199 30.2255 30.6911 30.751C31.6062 28.2134 31.834 25.479 31.3514 22.8249L37.4402 11.8487C37.678 11.3762 37.7964 10.8526 37.7852 10.3238C37.7739 9.79494 37.6334 9.27689 37.3758 8.81487C37.133 8.36099 36.7736 7.97999 36.3346 7.71108C35.8957 7.44216 35.393 7.29504 34.8784 7.28483C34.3637 7.27462 33.8556 7.40169 33.4063 7.65298C32.9571 7.90428 32.5828 8.27072 32.3222 8.71462L18.4654 33.3749C12.0097 35.314 7.48587 37.9101 4.91909 41.0703L4.73161 41.2928C3.97356 42.147 1.9521 44.5386 2.80796 46.754C3.57416 48.7355 6.34553 49.8718 11.2688 50.2215C13.1761 50.3576 15.4258 50.4261 17.8711 50.4261C31.1892 50.4261 50.3939 48.4185 52.5042 44.3609C53.8002 41.8666 53.5639 38.2533 51.9255 35.358C51.1248 33.9443 50.0091 32.734 48.6651 31.8213L50.0508 30.6336C50.1252 30.5595 50.1811 30.4687 50.2138 30.3687L50.2129 30.3671ZM33.4218 9.35366C33.6278 8.97167 33.9757 8.68597 34.3904 8.55819C34.8052 8.43041 35.2536 8.47078 35.6388 8.6706C35.8483 8.78242 36.033 8.93556 36.1817 9.12078C36.3303 9.30599 36.4398 9.51943 36.5037 9.74818C36.6379 10.2167 36.5819 10.7193 36.348 11.1469L30.1206 22.3619C30.076 22.4436 30.048 22.5332 30.0382 22.6256C30.0284 22.7181 30.037 22.8116 30.0635 22.9007C30.0635 22.9007 31.0416 26.3772 29.118 31.289V31.3404C29.0446 31.5278 28.9794 31.7071 28.8979 31.8954C26.1428 38.3022 19.9317 37.8743 17.6339 37.5246L33.4218 9.35366ZM50.8235 36.0305C52.2173 38.4994 52.4537 41.6596 51.3777 43.7177C49.3481 47.6221 24.6023 49.8253 11.3487 48.9026C5.95346 48.5187 4.36319 47.2537 4.0127 46.2633C3.4087 44.8116 5.03972 42.9214 5.67551 42.1878L5.89559 41.9319C8.08823 39.1898 12.0007 36.8782 17.5263 35.0385L16.0592 37.6468C16.004 37.7377 15.9704 37.84 15.9611 37.9458C15.9518 38.0517 15.9669 38.1583 16.0054 38.2574C16.0419 38.3546 16.1013 38.4415 16.1787 38.5108C16.256 38.58 16.349 38.6295 16.4496 38.6551H16.6534L16.8897 38.7065H16.9957L17.2484 38.7497H17.3544L17.7375 38.801H21.7649L22.1806 38.7326H22.3925L23.012 38.5964L23.224 38.5369L23.6641 38.409L23.9086 38.3275L24.3325 38.1734L24.5689 38.0797L25.0824 37.849L25.221 37.7805C25.4329 37.6697 25.6448 37.558 25.8486 37.43L26.0279 37.3102L26.4762 37.011L26.6882 36.848L27.1039 36.5065L27.2995 36.3435C27.4788 36.1837 27.6527 36.0158 27.8212 35.8397L27.8782 35.7802C28.0731 35.578 28.2554 35.364 28.4243 35.1396L28.5792 34.935C28.7096 34.772 28.8319 34.5934 28.9542 34.4141L29.1253 34.1492C29.2394 33.9699 29.3535 33.7734 29.4595 33.5786L29.6062 33.3227C29.753 33.0325 29.8997 32.7415 30.0382 32.4261L30.1524 32.1441C33.8544 31.5659 37.5894 31.2237 41.3348 31.1195C42.6935 31.1048 44.0463 31.3006 45.3451 31.6998L44.53 33.6985C44.4742 33.8349 44.4638 33.9857 44.5003 34.1286C44.5369 34.2714 44.6185 34.3987 44.733 34.4916C44.8448 34.5806 44.9842 34.6278 45.127 34.625C45.2699 34.6221 45.4073 34.5695 45.5155 34.4761L47.5859 32.6828C48.9325 33.5079 50.0461 34.6633 50.821 36.0394L50.8235 36.0305ZM47.4245 31.1186L47.0577 30.9646L52.1195 18.6304C52.1598 18.4838 52.2469 18.3543 52.3676 18.2618C52.4882 18.1692 52.6358 18.1186 52.7879 18.1177C52.9711 18.1239 53.1449 18.2 53.2738 18.3303C53.4026 18.4607 53.4767 18.6354 53.4807 18.8187L49.0963 29.693L47.4245 31.1186Z" fill="black"/>
</g>
</g>
</g>
<defs>
<clipPath id="clip0_419_1754">
<rect width="55.4273" height="55.4273" fill="white" transform="translate(0.969727 0.700195)"/>
</clipPath>
<clipPath id="clip1_419_1754">
<rect width="55.4273" height="55.4273" fill="white" transform="translate(0.969727 0.700195)"/>
</clipPath>
<clipPath id="clip2_419_1754">
<rect width="55.4273" height="55.4273" fill="white" transform="translate(0.969727 0.700195)"/>
</clipPath>
</defs>
</svg>
