<svg width="57" height="57" viewBox="0 0 57 57" fill="none" xmlns="http://www.w3.org/2000/svg">
<g clip-path="url(#clip0_419_1796)">
<g clip-path="url(#clip1_419_1796)">
<g clip-path="url(#clip2_419_1796)">
<path opacity="0.31" d="M53.6514 0.700195H3.11475C1.76424 0.700195 0.669434 1.795 0.669434 3.14552V53.6821C0.669434 55.0327 1.76424 56.1275 3.11475 56.1275H53.6514C55.0019 56.1275 56.0967 55.0327 56.0967 53.6821V3.14552C56.0967 1.795 55.0019 0.700195 53.6514 0.700195Z" fill="white"/>
<path d="M21.0195 34.0649C21.8484 31.2218 20.453 30.1173 18.5799 26.7452C18.5799 26.7452 15.4091 22.0567 16.1402 17.7986C16.4736 16.1292 17.3963 14.6355 18.7399 13.5901C20.0834 12.5448 21.7582 12.0177 23.4583 12.1051C30.0288 12.1051 32.8442 16.73 32.3144 21.0517C31.8253 25.0351 26.7113 30.8118 20.2043 24.3048" stroke="#003D73" stroke-width="1.30417" stroke-linecap="round" stroke-linejoin="round"/>
<path d="M29.1525 24.3042C34.846 24.3042 35.6595 21.0511 35.6595 20.2376C35.6595 19.4242 35.6595 16.9845 29.966 16.9845C22.6463 16.9845 21.0194 25.1177 15.3258 25.9312C9.63231 26.7446 8.00537 22.6781 8.00537 19.4242C8.00537 16.1702 10.4458 11.291 16.952 11.291C24.2717 11.291 25.8986 16.9845 25.8986 19.4242C25.8986 21.8638 25.0835 28.3708 18.5789 28.3708C11.2593 28.3708 10.4458 13.7306 16.9487 13.7306C21.832 13.7306 21.0186 24.3042 29.1525 24.3042Z" stroke="#003D73" stroke-width="1.30417" stroke-linecap="round" stroke-linejoin="round"/>
<path d="M23.4588 47.0786C23.4588 36.4684 18.5788 38.9455 16.1392 33.252" stroke="black" stroke-width="1.30417" stroke-linecap="round" stroke-linejoin="round"/>
<path d="M29.1535 36.5049C30.7837 43.0119 41.3532 43.8245 42.9801 43.0119C44.6071 42.1992 43.7953 38.9453 43.7953 38.9453C43.7953 38.9453 45.4255 38.9453 45.4255 38.1302C45.3403 37.512 45.0538 36.9391 44.6104 36.5C45.2365 36.4413 45.818 36.1506 46.2406 35.6849C46.2406 34.8698 45.4255 34.0547 45.4255 33.2453C45.4255 32.4359 48.6786 30.8057 48.6786 30.8057C45.4255 27.5526 43.7985 25.9256 42.985 20.2321C41.3516 12.9181 34.8454 8.85156 28.3384 8.85156" stroke="black" stroke-width="1.30417" stroke-linecap="round" stroke-linejoin="round"/>
<path d="M35.6753 42.7148V47.6055" stroke="black" stroke-width="1.30417" stroke-linecap="round" stroke-linejoin="round"/>
</g>
</g>
</g>
<defs>
<clipPath id="clip0_419_1796">
<rect width="55.4273" height="55.4273" fill="white" transform="translate(0.669434 0.700195)"/>
</clipPath>
<clipPath id="clip1_419_1796">
<rect width="55.4273" height="55.4273" fill="white" transform="translate(0.669434 0.700195)"/>
</clipPath>
<clipPath id="clip2_419_1796">
<rect width="55.4273" height="55.4273" fill="white" transform="translate(0.669434 0.700195)"/>
</clipPath>
</defs>
</svg>
