<svg width="56" height="56" viewBox="0 0 56 56" fill="none" xmlns="http://www.w3.org/2000/svg">
<g clip-path="url(#clip0_419_1664)">
<g clip-path="url(#clip1_419_1664)">
<g clip-path="url(#clip2_419_1664)">
<path d="M53.1846 0.139648H2.64796C1.29744 0.139648 0.202637 1.23446 0.202637 2.58497V53.1216C0.202637 54.4721 1.29744 55.5669 2.64796 55.5669H53.1846C54.5351 55.5669 55.6299 54.4721 55.6299 53.1216V2.58497C55.6299 1.23446 54.5351 0.139648 53.1846 0.139648Z" fill="white"/>
<mask id="mask0_419_1664" style="mask-type:luminance" maskUnits="userSpaceOnUse" x="5" y="6" width="46" height="44">
<path d="M50.3059 6.66016H5.90869V49.697H50.3059V6.66016Z" fill="white"/>
</mask>
<g mask="url(#mask0_419_1664)">
<path d="M38.0769 19.0451C37.4457 18.7478 36.7468 18.6236 36.0518 18.685C35.3568 18.7464 34.6905 18.9914 34.1212 19.3947C33.5245 19.8095 33.0511 20.3778 32.751 21.0396C32.7252 21.0734 32.7038 21.1104 32.6874 21.1497C32.6768 21.1814 32.6703 21.2181 32.6605 21.2507C32.5155 21.626 32.4273 22.0208 32.3989 22.422C32.3793 22.5443 32.3573 22.6666 32.3418 22.7888C31.779 22.3168 31.3266 21.7269 31.0167 21.0609C30.7069 20.3948 30.5471 19.6688 30.5486 18.9342V8.26445C30.548 7.83942 30.3788 7.43199 30.0783 7.13145C29.7777 6.83091 29.3703 6.66178 28.9453 6.66113H27.2694C26.8441 6.66156 26.4363 6.83071 26.1356 7.13145C25.8349 7.43219 25.6657 7.83995 25.6653 8.26526V19.226C25.6632 19.9069 25.5061 20.5784 25.2059 21.1895C24.9056 21.8006 24.4701 22.3353 23.9324 22.753C23.9087 22.7709 23.8843 22.7636 23.8574 22.7448C23.8468 22.6633 23.8305 22.5818 23.8183 22.5003C23.7956 22.0421 23.695 21.5911 23.5207 21.1668C23.5207 21.1611 23.5207 21.1554 23.5159 21.1497C23.511 21.144 23.502 21.1293 23.4971 21.1171C23.1772 20.3721 22.6407 19.7405 21.9574 19.3043C21.3943 18.9412 20.7483 18.7269 20.0798 18.6816C19.4113 18.6363 18.7423 18.7613 18.1353 19.0451C8.61244 23.4898 4.62005 32.7046 6.27145 46.4326C6.34654 47.0434 6.57201 47.6259 6.92765 48.1281C7.28329 48.6302 7.75799 49.0363 8.30918 49.3098C8.86038 49.5834 9.47084 49.7158 10.0858 49.6954C10.7008 49.6749 11.3011 49.5022 11.8329 49.1926L19.5015 44.7389C20.817 43.9717 21.9088 42.8736 22.6685 41.5538C23.4283 40.2339 23.8294 38.7383 23.8321 37.2154V30.5201C23.8386 29.9822 23.8639 29.37 23.8916 28.7204C23.9705 28.3389 24.1357 27.9806 24.3746 27.673C24.6136 27.3654 24.9199 27.1166 25.27 26.9459L27.3998 25.9213C27.6204 25.8146 27.8623 25.7592 28.1074 25.7592C28.3524 25.7592 28.5943 25.8146 28.8149 25.9213L30.9447 26.9459C31.2849 27.112 31.5838 27.3519 31.8196 27.6479C32.0555 27.944 32.2225 28.2889 32.3084 28.6576C32.3378 29.3317 32.3638 29.9675 32.3712 30.5242C32.3739 30.5426 32.3777 30.5608 32.3826 30.5788V37.2211C32.3853 38.744 32.7864 40.2396 33.5462 41.5595C34.3059 42.8793 35.3978 43.9774 36.7133 44.7446L44.3818 49.1926C44.9137 49.5017 45.5139 49.6742 46.1287 49.6944C46.7436 49.7147 47.3539 49.5821 47.9049 49.3086C48.456 49.0352 48.9306 48.6293 49.2864 48.1274C49.6421 47.6255 49.8678 47.0432 49.9433 46.4326C51.5947 32.7046 47.6023 23.4898 38.0769 19.0451ZM22.801 37.2162C22.7986 38.5587 22.4449 39.8771 21.7751 41.0405C21.1053 42.2039 20.1427 43.1718 18.983 43.8479L11.3153 48.3017C10.9295 48.5263 10.4938 48.6514 10.0476 48.6657C9.6013 48.6799 9.15853 48.5828 8.75916 48.3832C8.35967 48.1896 8.01565 47.8981 7.75912 47.5359C7.50259 47.1736 7.34188 46.7523 7.29197 46.3112C5.67724 32.8888 9.36642 24.2764 18.5706 19.9832C18.958 19.7999 19.381 19.7041 19.8096 19.7028C20.3747 19.704 20.9276 19.8669 21.4031 20.1723C21.9122 20.4972 22.312 20.9675 22.5508 21.5222C22.6628 21.892 22.7446 22.2704 22.7953 22.6535C22.7953 22.6772 22.7994 22.7008 22.7994 22.7253C22.7999 22.8329 22.817 22.9398 22.8499 23.0423C22.986 24.8357 22.9928 26.6366 22.8703 28.431C22.8703 28.4897 22.8654 28.5459 22.863 28.6038C22.8228 28.8112 22.8016 29.0218 22.7994 29.2331L22.801 37.2162ZM31.3914 26.0167L29.2615 24.9929C28.9016 24.8186 28.5069 24.728 28.1069 24.728C27.707 24.728 27.3123 24.8186 26.9523 24.9929L24.8192 26.0175C24.5096 26.1669 24.2235 26.3608 23.9699 26.5929C23.9968 25.6376 23.9699 24.975 23.9462 24.08C24.1413 23.8991 24.3456 23.7285 24.5584 23.5689C25.2207 23.0547 25.7573 22.3964 26.1273 21.6439C26.4974 20.8914 26.6911 20.0645 26.694 19.226V8.26445C26.694 8.11312 26.7541 7.96799 26.8611 7.86099C26.9681 7.75399 27.1132 7.69387 27.2645 7.69387H28.9404C29.0917 7.69387 29.2368 7.75399 29.3439 7.86099C29.4509 7.96799 29.511 8.11312 29.511 8.26445V18.9342C29.5175 19.8724 29.7386 20.7968 30.1573 21.6364C30.5761 22.476 31.1814 23.2087 31.9269 23.7784C32.0226 23.8492 32.1311 23.9007 32.2465 23.93C32.2016 24.7785 32.2033 25.6759 32.2285 26.5775C31.9779 26.3506 31.696 26.161 31.3914 26.0142M48.9162 46.3104C48.8663 46.7515 48.7056 47.1728 48.4491 47.5351C48.1925 47.8973 47.8485 48.1888 47.449 48.3824C47.0497 48.582 46.6069 48.6791 46.1606 48.6649C45.7144 48.6506 45.2787 48.5255 44.8929 48.3009L37.2243 43.8471C36.0648 43.1708 35.1024 42.2029 34.4328 41.0395C33.7631 39.8761 33.4096 38.5578 33.4072 37.2154C33.4072 37.2154 33.1048 23.2942 33.6281 21.5939C33.8461 21.0468 34.2203 20.5759 34.704 20.24C35.1261 19.9403 35.6202 19.7582 36.1358 19.7122C36.6514 19.6662 37.17 19.7581 37.6384 19.9783C46.8418 24.2731 50.5318 32.8864 48.917 46.3063" fill="black"/>
<path d="M19.573 35.4655C18.7422 35.7782 17.824 35.7665 17.0014 35.4329C16.7626 35.339 16.5461 35.1962 16.3657 35.0137C16.1854 34.8312 16.0451 34.6131 15.9539 34.3733L16.0061 34.057C16.4552 31.3142 16.8432 28.9455 19.2771 27.9568C19.3413 27.9324 19.4 27.8955 19.4497 27.8482C19.4994 27.8008 19.5391 27.744 19.5666 27.6811C19.594 27.6182 19.6086 27.5504 19.6095 27.4818C19.6104 27.4132 19.5976 27.3451 19.5718 27.2815C19.546 27.2179 19.5077 27.1601 19.4593 27.1114C19.4108 27.0628 19.3532 27.0244 19.2896 26.9984C19.2261 26.9724 19.158 26.9593 19.0894 26.96C19.0208 26.9607 18.953 26.975 18.89 27.0023C18.0315 27.3384 17.2808 27.9019 16.7185 28.6325L16.7112 28.6382C15.5863 29.9334 14.6416 30.2325 13.5478 29.6383C13.4881 29.6025 13.4217 29.5791 13.3527 29.5696C13.2837 29.56 13.2135 29.5646 13.1464 29.583C13.0792 29.6014 13.0164 29.6332 12.9619 29.6765C12.9074 29.7199 12.8622 29.7738 12.8291 29.8351C12.796 29.8964 12.7757 29.9637 12.7694 30.0331C12.763 30.1024 12.7708 30.1723 12.7923 30.2386C12.8138 30.3049 12.8484 30.3661 12.8942 30.4185C12.94 30.471 12.9959 30.5137 13.0587 30.5439C13.5251 30.8106 14.0514 30.9548 14.5886 30.9629C14.9581 30.9604 15.3236 30.886 15.6646 30.7436C15.4498 31.4466 15.2818 32.163 15.1617 32.8882C14.3554 32.8412 13.5523 33.0218 12.8437 33.4093C12.1352 33.7969 11.5499 34.3758 11.1546 35.08C11.0934 35.2022 11.0833 35.3438 11.1265 35.4735C11.1697 35.6032 11.2626 35.7104 11.3849 35.7716C11.5071 35.8328 11.6487 35.8429 11.7784 35.7997C11.9081 35.7565 12.0153 35.6636 12.0765 35.5413C12.3642 35.0273 12.7886 34.603 13.3026 34.3153C13.8166 34.0275 14.4003 33.8877 14.9889 33.9111C14.5593 36.5341 14.1094 39.2419 11.6159 40.7197C11.5577 40.7542 11.5069 40.7999 11.4663 40.8541C11.4257 40.9082 11.3962 40.9699 11.3794 41.0355C11.3626 41.101 11.3589 41.1693 11.3686 41.2363C11.3782 41.3033 11.4009 41.3678 11.4354 41.426C11.4699 41.4842 11.5156 41.5351 11.5697 41.5757C11.6239 41.6163 11.6856 41.6458 11.7512 41.6626C11.8167 41.6793 11.885 41.683 11.952 41.6734C12.019 41.6638 12.0835 41.6411 12.1417 41.6065C14.4484 40.2396 15.2456 38.0201 15.6996 35.7956C15.9633 36.0385 16.2665 36.2345 16.5963 36.3752C16.7728 36.4493 16.9545 36.5103 17.1399 36.5578C17.1473 36.5578 17.1522 36.5659 17.1595 36.5676C17.3124 36.6295 17.4455 36.7321 17.5442 36.8643C17.6429 36.9965 17.7035 37.1532 17.7195 37.3175C17.7632 37.535 17.7447 37.7606 17.666 37.9681C17.5872 38.1756 17.4515 38.3566 17.2744 38.4904C17.2193 38.5296 17.1724 38.5793 17.1365 38.6367C17.1006 38.694 17.0763 38.7579 17.0651 38.8246C17.0539 38.8913 17.0559 38.9596 17.071 39.0255C17.0862 39.0915 17.1141 39.1538 17.1534 39.2089C17.1926 39.264 17.2423 39.3109 17.2997 39.3468C17.357 39.3827 17.4208 39.407 17.4876 39.4183C17.5543 39.4295 17.6226 39.4275 17.6885 39.4123C17.7545 39.3972 17.8168 39.3692 17.8719 39.3299C18.2087 39.0848 18.4687 38.7487 18.6214 38.3611C18.7741 37.9735 18.8133 37.5504 18.7343 37.1414C18.7071 36.9917 18.6651 36.845 18.6088 36.7037C19.096 36.6897 19.5762 36.5832 20.0238 36.3899C20.1469 36.3305 20.2414 36.2247 20.2865 36.0957C20.3316 35.9667 20.3236 35.825 20.2642 35.7019C20.2049 35.5788 20.0991 35.4843 19.9701 35.4392C19.841 35.3941 19.6994 35.4021 19.5763 35.4614" fill="#003D73"/>
<path d="M46.7278 39.3424C46.8833 39.1312 46.9906 38.8884 47.042 38.6313C47.0935 38.3741 47.088 38.1088 47.0258 37.8541C46.9636 37.5993 46.8463 37.3613 46.6822 37.1568C46.5181 36.9523 46.311 36.7862 46.0757 36.6704L45.5655 36.4177C45.5364 36.4035 45.5141 36.3783 45.5036 36.3476C45.4281 36.13 45.308 35.9304 45.1509 35.7619C44.9939 35.5934 44.8032 35.4596 44.5914 35.3692C44.3795 35.2787 44.1511 35.2335 43.9208 35.2365C43.6904 35.2395 43.4633 35.2906 43.2539 35.3866L42.9572 35.5227C42.6035 35.6848 42.2196 35.7704 41.8307 35.7738L41.1908 35.7795C41.033 35.7804 40.8788 35.8272 40.7471 35.914C40.6153 36.0009 40.5115 36.1241 40.4485 36.2687C40.3854 36.4134 40.3656 36.5733 40.3916 36.7289C40.4176 36.8846 40.4883 37.0293 40.595 37.1456L40.9357 37.519C41.1197 37.7207 41.2175 37.9864 41.2084 38.2592C41.1992 38.5321 41.0839 38.7906 40.8868 38.9796L40.5518 39.3008C40.4739 39.3754 40.418 39.4699 40.3899 39.5741C40.3619 39.6782 40.3629 39.7881 40.3928 39.8917C40.4227 39.9954 40.4803 40.0889 40.5594 40.1621C40.6386 40.2354 40.7363 40.2856 40.8419 40.3074L41.6945 40.4827C42.0011 40.5458 42.2789 40.7068 42.486 40.9416L42.7305 41.2187C42.8467 41.3517 42.9995 41.4473 43.1698 41.4938C43.3401 41.5403 43.5203 41.5354 43.6878 41.4799C43.8554 41.4243 44.0028 41.3206 44.1117 41.1816C44.2205 41.0427 44.2859 40.8747 44.2996 40.6987C44.316 40.5003 44.408 40.3158 44.5565 40.1832C44.705 40.0507 44.8986 39.9802 45.0976 39.9863L45.3821 39.9952C45.6421 40.0035 45.9002 39.9484 46.1342 39.8348C46.3681 39.7212 46.571 39.5525 46.7254 39.3431" fill="#003D73"/>
<path d="M44.1194 42.3856C44.0272 42.4522 43.9507 42.5381 43.8953 42.6374C43.8399 42.7367 43.8068 42.8469 43.7985 42.9603C43.7902 43.0737 43.8068 43.1876 43.8471 43.2939C43.8875 43.4002 43.9507 43.4963 44.0321 43.5756L44.209 43.7476C44.219 43.7572 44.2249 43.7705 44.2253 43.7843C44.2276 43.8843 44.2507 43.9827 44.2932 44.0732C44.3358 44.1638 44.3968 44.2444 44.4723 44.3099C44.5478 44.3755 44.6362 44.4245 44.7318 44.4538C44.8274 44.4832 44.928 44.4922 45.0274 44.4804L45.1684 44.4633C45.336 44.4432 45.506 44.4588 45.6672 44.509L45.9322 44.5904C45.9979 44.6113 46.0683 44.6125 46.1347 44.594C46.2012 44.5754 46.2607 44.5379 46.3061 44.486C46.3515 44.4341 46.3808 44.37 46.3904 44.3017C46.4 44.2334 46.3894 44.1638 46.3601 44.1014L46.2688 43.9017C46.2196 43.7939 46.2145 43.6712 46.2546 43.5598C46.2946 43.4483 46.3766 43.3569 46.4831 43.3051L46.6641 43.217C46.7061 43.1965 46.7417 43.1649 46.767 43.1256C46.7924 43.0863 46.8065 43.0409 46.808 42.9942C46.8094 42.9474 46.798 42.9012 46.7751 42.8605C46.7522 42.8197 46.7186 42.786 46.678 42.763L46.3519 42.5772C46.2337 42.5102 46.1404 42.4066 46.0862 42.2821L46.0218 42.1345C45.9913 42.0644 45.9408 42.0048 45.8766 41.9632C45.8125 41.9216 45.7375 41.8997 45.661 41.9004C45.5845 41.9011 45.5099 41.9243 45.4465 41.9671C45.3832 42.0099 45.3337 42.0704 45.3045 42.141C45.2713 42.2208 45.2088 42.2849 45.1297 42.3199C45.0507 42.3549 44.9613 42.3583 44.8798 42.3294L44.7633 42.2878C44.657 42.2499 44.543 42.2384 44.4313 42.2543C44.3196 42.2702 44.2133 42.313 44.1218 42.3791" fill="#003D73"/>
<path d="M42.8065 42.8117C42.7564 42.7713 42.6981 42.7423 42.6356 42.7268C42.5732 42.7113 42.5081 42.7097 42.4449 42.7221C42.3818 42.7344 42.3221 42.7604 42.2701 42.7983C42.2181 42.8362 42.175 42.885 42.1438 42.9413L42.0761 43.0635C42.0743 43.067 42.0718 43.0701 42.0687 43.0727C42.0656 43.0752 42.062 43.077 42.0582 43.0782C42.004 43.0945 41.9538 43.1219 41.9108 43.1587C41.8678 43.1954 41.8329 43.2408 41.8084 43.2918C41.7839 43.3428 41.7702 43.3983 41.7683 43.4548C41.7664 43.5114 41.7763 43.5677 41.7974 43.6203L41.8275 43.6944C41.8634 43.7831 41.88 43.8784 41.8765 43.974L41.8708 44.1313C41.8695 44.1697 41.8792 44.2076 41.8988 44.2406C41.9185 44.2736 41.9471 44.3002 41.9815 44.3174C42.0158 44.3346 42.0543 44.3415 42.0925 44.3374C42.1307 44.3333 42.1669 44.3184 42.1968 44.2943L42.2922 44.2128C42.3437 44.1699 42.41 44.1488 42.4769 44.1542C42.5438 44.1595 42.6059 44.1908 42.65 44.2413L42.725 44.3269C42.7424 44.3469 42.765 44.3618 42.7903 44.3699C42.8156 44.378 42.8426 44.379 42.8684 44.3727C42.8942 44.3665 42.9178 44.3533 42.9367 44.3346C42.9555 44.3159 42.9688 44.2924 42.9752 44.2666L43.0274 44.0596C43.0463 43.9851 43.0889 43.9187 43.1489 43.8705L43.2198 43.8134C43.2532 43.7862 43.2781 43.7498 43.2911 43.7087C43.3041 43.6676 43.3048 43.6235 43.2931 43.582C43.2814 43.5405 43.2578 43.5033 43.2252 43.475C43.1926 43.4468 43.1525 43.4287 43.1097 43.423C43.0617 43.4161 43.0182 43.3912 42.9879 43.3534C42.9576 43.3155 42.9429 43.2675 42.9467 43.2192L42.9516 43.1499C42.9564 43.0862 42.9456 43.0223 42.9202 42.9636C42.8947 42.905 42.8555 42.8534 42.8057 42.8133" fill="#003D73"/>
<path d="M38.2326 38.4713C38.2778 38.5221 38.3337 38.5623 38.3962 38.5892C38.4587 38.616 38.5263 38.6289 38.5943 38.6268C38.6623 38.6247 38.729 38.6077 38.7898 38.577C38.8505 38.5464 38.9037 38.5028 38.9458 38.4493L39.0371 38.3336C39.0396 38.3302 39.0428 38.3274 39.0465 38.3253C39.0501 38.3232 39.0541 38.3219 39.0583 38.3214C39.1176 38.3139 39.1747 38.294 39.2259 38.2631C39.2771 38.2322 39.3213 38.191 39.3556 38.142C39.3899 38.093 39.4136 38.0374 39.4251 37.9787C39.4367 37.9201 39.4358 37.8596 39.4226 37.8013L39.4039 37.7198C39.3827 37.6209 39.3827 37.5187 39.4039 37.4198L39.4365 37.2568C39.4445 37.2167 39.4408 37.1751 39.4257 37.1371C39.4106 37.099 39.3848 37.0662 39.3514 37.0425C39.3181 37.0188 39.2785 37.0052 39.2377 37.0035C39.1968 37.0017 39.1563 37.0119 39.121 37.0327L39.0077 37.0995C38.9467 37.1355 38.8739 37.1462 38.8051 37.1293C38.7362 37.1124 38.6767 37.0692 38.6393 37.009L38.5757 36.9071C38.5611 36.8832 38.5401 36.8637 38.5151 36.8509C38.4901 36.8381 38.4621 36.8324 38.434 36.8344C38.406 36.8364 38.3791 36.8461 38.3562 36.8623C38.3334 36.8786 38.3154 36.9009 38.3043 36.9267L38.2138 37.1337C38.1814 37.2084 38.1256 37.2704 38.0549 37.3106L37.9734 37.3579C37.9336 37.3804 37.9013 37.4141 37.8805 37.4548C37.8597 37.4955 37.8513 37.5415 37.8564 37.587C37.8616 37.6324 37.8799 37.6753 37.9093 37.7104C37.9386 37.7455 37.9777 37.7711 38.0215 37.7842C38.0719 37.7989 38.1146 37.8326 38.1405 37.8783C38.1664 37.924 38.1734 37.978 38.16 38.0287L38.1429 38.1005C38.127 38.1661 38.1273 38.2346 38.1438 38.3C38.1603 38.3655 38.1924 38.426 38.2374 38.4762" fill="#003D73"/>
<path d="M37.9583 40.5535C37.9207 40.5806 37.8896 40.6156 37.867 40.6559C37.8444 40.6963 37.8309 40.7411 37.8275 40.7873C37.8241 40.8334 37.8308 40.8797 37.8472 40.923C37.8636 40.9663 37.8893 41.0054 37.9224 41.0377L37.9941 41.1078C37.9981 41.1117 38.0004 41.1169 38.0007 41.1225C38.0016 41.1631 38.0111 41.2031 38.0284 41.2398C38.0457 41.2766 38.0705 41.3093 38.1012 41.336C38.1318 41.3626 38.1677 41.3825 38.2066 41.3945C38.2454 41.4064 38.2863 41.4101 38.3267 41.4054L38.3837 41.3988C38.452 41.3907 38.5211 41.3971 38.5867 41.4176L38.6943 41.451C38.7208 41.4591 38.7491 41.4594 38.7758 41.4518C38.8024 41.4442 38.8264 41.4291 38.8447 41.4083C38.863 41.3875 38.8749 41.3618 38.879 41.3344C38.8832 41.307 38.8793 41.279 38.8679 41.2537L38.8312 41.1722C38.8108 41.1282 38.8085 41.0778 38.8248 41.0321C38.8411 40.9863 38.8747 40.9488 38.9184 40.9277L38.9918 40.8918C39.009 40.8836 39.0236 40.8707 39.034 40.8547C39.0444 40.8387 39.0502 40.8201 39.0508 40.801C39.0514 40.782 39.0467 40.7631 39.0374 40.7465C39.028 40.7299 39.0142 40.7161 38.9975 40.7068L38.8638 40.631C38.8156 40.6039 38.7776 40.5618 38.7554 40.5112L38.7293 40.4517C38.7173 40.4229 38.6971 40.3983 38.6711 40.381C38.6451 40.3637 38.6146 40.3545 38.5834 40.3545C38.5522 40.3545 38.5217 40.3637 38.4958 40.381C38.4698 40.3983 38.4495 40.4229 38.4375 40.4517C38.4241 40.4842 38.3986 40.5103 38.3665 40.5246C38.3343 40.5389 38.2979 40.5402 38.2647 40.5283L38.2175 40.5112C38.1742 40.4958 38.1278 40.4912 38.0824 40.4978C38.037 40.5043 37.9938 40.5218 37.9566 40.5487" fill="#003D73"/>
</g>
</g>
</g>
</g>
<defs>
<clipPath id="clip0_419_1664">
<rect width="55.4273" height="55.4273" fill="white" transform="translate(0.202637 0.139648)"/>
</clipPath>
<clipPath id="clip1_419_1664">
<rect width="55.4273" height="55.4273" fill="white" transform="translate(0.202637 0.139648)"/>
</clipPath>
<clipPath id="clip2_419_1664">
<rect width="55.4273" height="55.4273" fill="white" transform="translate(0.202637 0.139648)"/>
</clipPath>
</defs>
</svg>
