<svg width="56" height="56" viewBox="0 0 56 56" fill="none" xmlns="http://www.w3.org/2000/svg">
<g clip-path="url(#clip0_419_1683)">
<g clip-path="url(#clip1_419_1683)">
<g clip-path="url(#clip2_419_1683)">
<path opacity="0.31" d="M53.418 0.139648H2.88136C1.53084 0.139648 0.436035 1.23446 0.436035 2.58497V53.1216C0.436035 54.4721 1.53084 55.5669 2.88136 55.5669H53.418C54.7685 55.5669 55.8633 54.4721 55.8633 53.1216V2.58497C55.8633 1.23446 54.7685 0.139648 53.418 0.139648Z" fill="white"/>
<mask id="mask0_419_1683" style="mask-type:luminance" maskUnits="userSpaceOnUse" x="8" y="4" width="41" height="49">
<path d="M48.5276 4.21484H8.5874V52.3062H48.5276V4.21484Z" fill="white"/>
</mask>
<g mask="url(#mask0_419_1683)">
<path d="M11.2427 19.8389L14.552 20.5488L13.7369 22.7072L17.4 23.3675" stroke="#003D73" stroke-width="1.30417" stroke-linecap="round" stroke-linejoin="round"/>
<path d="M9.29639 27.3922L12.653 26.9414L12.6326 29.2441L16.3047 28.6262" stroke="#003D73" stroke-width="1.30417" stroke-linecap="round" stroke-linejoin="round"/>
<path d="M11.2515 36.6815L13.5802 34.2362L14.9895 36.0702L17.4609 33.2988" stroke="#003D73" stroke-width="1.30417" stroke-linecap="round" stroke-linejoin="round"/>
<path d="M46.1205 19.8389L42.8112 20.5488L43.6263 22.7072L39.9624 23.3675" stroke="#003D73" stroke-width="1.30417" stroke-linecap="round" stroke-linejoin="round"/>
<path d="M48.0673 27.3922L44.7107 26.9414L44.7311 29.2441L41.0591 28.6262" stroke="#003D73" stroke-width="1.30417" stroke-linecap="round" stroke-linejoin="round"/>
<path d="M46.1133 36.6815L43.7845 34.2362L42.3752 36.0702L39.9038 33.2988" stroke="#003D73" stroke-width="1.30417" stroke-linecap="round" stroke-linejoin="round"/>
<path d="M31.8156 51.0195V39.282C31.8318 38.8825 31.9616 38.496 32.1899 38.1678C32.4182 37.8396 32.7354 37.5833 33.1043 37.4292C33.9216 37.0674 34.5936 36.4414 35.0124 35.6517C35.4312 34.862 35.5725 33.9545 35.4135 33.0749C35.2307 32.2451 34.8015 31.4899 34.1822 30.9081C33.5629 30.3264 32.7824 29.9452 31.9428 29.8145C31.0752 29.6583 30.1811 29.7496 29.363 30.0778C28.9272 30.2556 28.4391 30.2556 28.0034 30.0778C27.1852 29.7496 26.2912 29.6583 25.4236 29.8145C24.584 29.9452 23.8034 30.3264 23.1841 30.9081C22.5648 31.4899 22.1357 32.2451 21.9528 33.0749C21.7937 33.9546 21.9349 34.8623 22.3537 35.6522C22.7724 36.442 23.4446 37.0682 24.262 37.4301C24.6309 37.5842 24.9481 37.8405 25.1763 38.1687C25.4046 38.4968 25.5345 38.8833 25.5507 39.2828V51.0203" stroke="black" stroke-width="1.30417" stroke-linecap="round" stroke-linejoin="round"/>
<path d="M31.8156 5.50391V17.2414C31.8318 17.6409 31.9616 18.0275 32.1899 18.3557C32.4182 18.6839 32.7354 18.9401 33.1043 19.0942C33.9218 19.4561 34.5939 20.0822 35.0127 20.8721C35.4315 21.6619 35.5727 22.5696 35.4135 23.4493C35.2307 24.2791 34.8015 25.0343 34.1822 25.6161C33.5629 26.1979 32.7824 26.5791 31.9428 26.7097C31.0752 26.8659 30.1811 26.7747 29.363 26.4465C28.9272 26.2686 28.4391 26.2686 28.0034 26.4465C27.1852 26.7747 26.2912 26.8659 25.4236 26.7097C24.584 26.579 23.8035 26.1977 23.1842 25.616C22.565 25.0342 22.1358 24.279 21.9528 23.4493C21.7937 22.5696 21.9349 21.6619 22.3537 20.8721C22.7724 20.0822 23.4446 19.4561 24.262 19.0942C24.6309 18.94 24.9481 18.6838 25.1763 18.3556C25.4046 18.0274 25.5345 17.6409 25.5507 17.2414V5.50391" stroke="black" stroke-width="1.30417" stroke-linecap="round" stroke-linejoin="round"/>
</g>
</g>
</g>
</g>
<defs>
<clipPath id="clip0_419_1683">
<rect width="55.4273" height="55.4273" fill="white" transform="translate(0.436035 0.139648)"/>
</clipPath>
<clipPath id="clip1_419_1683">
<rect width="55.4273" height="55.4273" fill="white" transform="translate(0.436035 0.139648)"/>
</clipPath>
<clipPath id="clip2_419_1683">
<rect width="55.4273" height="55.4273" fill="white" transform="translate(0.436035 0.139648)"/>
</clipPath>
</defs>
</svg>
