<svg width="57" height="56" viewBox="0 0 57 56" fill="none" xmlns="http://www.w3.org/2000/svg">
<g clip-path="url(#clip0_419_1610)">
<g clip-path="url(#clip1_419_1610)">
<g clip-path="url(#clip2_419_1610)">
<path d="M32.2536 19.784C32.2444 19.486 32.2977 19.1894 32.4099 18.9132C32.5221 18.637 32.6907 18.3873 32.9051 18.1801C33.1194 17.9729 33.3747 17.8127 33.6546 17.71C33.9344 17.6072 34.2326 17.564 34.5301 17.5832H36.7945C37.5183 17.5832 37.8835 18.0079 38.4655 18.7578C38.7602 19.2694 39.1787 19.6987 39.6826 20.0063C40.1865 20.314 40.7596 20.4901 41.3493 20.5184C41.5439 20.5184 41.7305 20.4412 41.8681 20.3036C42.0057 20.166 42.0829 19.9794 42.0829 19.7848C42.0829 19.5903 42.0057 19.4037 41.8681 19.2661C41.7305 19.1285 41.5439 19.0513 41.3493 19.0513C40.6263 19.0513 40.2612 18.6274 39.68 17.8775C39.605 17.7813 39.5284 17.6819 39.4477 17.5816H43.6308C43.8254 17.5816 44.012 17.5043 44.1496 17.3667C44.2871 17.2292 44.3644 17.0426 44.3644 16.848C44.3644 16.6535 44.2871 16.4669 44.1496 16.3293C44.012 16.1917 43.8254 16.1144 43.6308 16.1144H42.4897C42.5712 16.0158 42.6462 15.9164 42.7203 15.821C43.3023 15.0711 43.6667 14.6472 44.3897 14.6472C44.486 14.6472 44.5814 14.6283 44.6704 14.5914C44.7594 14.5545 44.8403 14.5005 44.9084 14.4324C44.9765 14.3642 45.0306 14.2834 45.0674 14.1944C45.1043 14.1054 45.1233 14.01 45.1233 13.9136C45.1233 13.8173 45.1043 13.7219 45.0674 13.6329C45.0306 13.5439 44.9765 13.463 44.9084 13.3949C44.8403 13.3268 44.7594 13.2727 44.6704 13.2359C44.5814 13.199 44.486 13.18 44.3897 13.18C43.8 13.2084 43.2269 13.3845 42.723 13.6922C42.2191 13.9998 41.8006 14.4291 41.5058 14.9407C40.9255 15.6889 40.5603 16.112 39.8398 16.1144H34.5318C34.0375 16.089 33.5432 16.1655 33.0798 16.3391C32.6163 16.5128 32.1935 16.7799 31.8376 17.1239C31.4818 17.468 31.2005 17.8815 31.0112 18.3388C30.8219 18.7962 30.7288 19.2875 30.7375 19.7824C30.7375 21.3107 31.9854 23.2539 33.4273 25.5053C35.0119 27.975 36.8076 30.7725 36.8076 32.9871C36.8518 33.5853 36.7302 34.1841 36.4561 34.7177C36.182 35.2512 35.766 35.6988 35.254 36.0112C34.9719 33.0907 32.0319 30.7847 28.4519 30.7847C24.872 30.7847 21.931 33.0898 21.6498 36.0096C21.1389 35.6967 20.7241 35.2491 20.4509 34.7159C20.1777 34.1827 20.0567 33.5846 20.1011 32.9871C20.1011 30.7725 21.8944 27.9742 23.4814 25.5053C24.9249 23.2539 26.1712 21.3107 26.1712 19.7824C26.1799 19.2875 26.0868 18.7962 25.8975 18.3388C25.7082 17.8815 25.4269 17.468 25.0711 17.1239C24.7152 16.7799 24.2924 16.5128 23.8289 16.3391C23.3655 16.1655 22.8712 16.089 22.3769 16.1144H17.064C16.3427 16.1144 15.9791 15.6889 15.398 14.9407C15.1032 14.4296 14.6848 14.0008 14.1813 13.6935C13.6777 13.3861 13.105 13.2101 12.5157 13.1817C12.3212 13.1817 12.1346 13.259 11.997 13.3965C11.8594 13.5341 11.7822 13.7207 11.7822 13.9153C11.7822 14.1098 11.8594 14.2964 11.997 14.434C12.1346 14.5716 12.3212 14.6489 12.5157 14.6489C13.2396 14.6489 13.6039 15.0727 14.1851 15.8226C14.2593 15.918 14.3359 16.0174 14.4158 16.1161H13.2746C13.08 16.1161 12.8935 16.1933 12.7559 16.3309C12.6183 16.4685 12.541 16.6551 12.541 16.8496C12.541 17.0442 12.6183 17.2308 12.7559 17.3684C12.8935 17.506 13.08 17.5832 13.2746 17.5832H17.4553C17.3738 17.6835 17.2972 17.7829 17.223 17.8791C16.641 18.629 16.2766 19.0529 15.5536 19.0529C15.3591 19.0529 15.1725 19.1302 15.0349 19.2677C14.8973 19.4053 14.8201 19.5919 14.8201 19.7865C14.8201 19.981 14.8973 20.1676 15.0349 20.3052C15.1725 20.4428 15.3591 20.5201 15.5536 20.5201C16.1434 20.4917 16.7165 20.3156 17.2204 20.008C17.7243 19.7003 18.1428 19.271 18.4375 18.7594C19.0195 18.0095 19.3838 17.5849 20.1077 17.5849H22.3785C22.6765 17.5648 22.9754 17.6074 23.2559 17.7098C23.5364 17.8122 23.7924 17.9722 24.0074 18.1795C24.2224 18.3868 24.3916 18.6368 24.5041 18.9134C24.6167 19.19 24.67 19.4872 24.6608 19.7857C24.6608 20.8958 23.4088 22.8472 22.1976 24.735C20.5062 27.3702 18.5899 30.3592 18.5899 32.9904C18.5296 34.0137 18.8068 35.0285 19.379 35.8791C19.9512 36.7296 20.7868 37.3688 21.7574 37.6985C22.2229 40.1055 23.9012 43.3471 26.1794 44.754V49.1279C26.1884 49.3231 26.2723 49.5072 26.4137 49.6422C26.555 49.7771 26.7429 49.8524 26.9382 49.8524C27.1336 49.8524 27.3215 49.7771 27.4628 49.6422C27.6042 49.5072 27.6881 49.3231 27.6971 49.1279V45.3784C28.1974 45.4849 28.7145 45.4849 29.2148 45.3784V49.1279C29.2239 49.3231 29.3078 49.5072 29.4491 49.6422C29.5904 49.7771 29.7783 49.8524 29.9737 49.8524C30.1691 49.8524 30.357 49.7771 30.4983 49.6422C30.6396 49.5072 30.7235 49.3231 30.7326 49.1279V44.7532C33.0149 43.3471 34.6891 40.1071 35.1545 37.6985C36.1263 37.3694 36.9632 36.7305 37.5367 35.8799C38.1103 35.0292 38.3887 34.0138 38.3294 32.9896C38.3294 30.3576 36.413 27.3653 34.7217 24.7342C33.5105 22.8464 32.2584 20.8942 32.2584 19.7848L32.2536 19.784ZM28.4519 43.9927C25.6528 43.9927 23.1399 38.8852 23.1399 36.4733C23.1399 34.147 25.5232 32.2552 28.4519 32.2552C31.3806 32.2552 33.764 34.147 33.764 36.4733C33.764 38.8844 31.2502 43.9927 28.4519 43.9927ZM14.4109 27.8536C10.0166 27.8536 6.44238 22.9173 6.44238 16.8496C6.44238 10.782 10.0166 5.8457 14.4109 5.8457C18.2166 5.8457 21.4208 9.42239 22.2041 14.5421C22.2179 14.6389 22.2123 14.7375 22.1874 14.8321C22.1626 14.9267 22.1191 15.0154 22.0595 15.093C21.9998 15.1705 21.9253 15.2353 21.8403 15.2836C21.7552 15.332 21.6614 15.3628 21.5642 15.3743C21.3682 15.405 21.1679 15.3573 21.0067 15.2415C20.8455 15.1258 20.7363 14.9512 20.7027 14.7556C20.0416 10.4429 17.3966 7.31208 14.4101 7.31208C10.8529 7.31208 7.9593 11.5906 7.9593 16.8488C7.9593 22.1071 10.8529 26.3856 14.4101 26.3856C17.3966 26.3856 20.0416 23.2556 20.7027 18.942C20.7372 18.7469 20.8467 18.573 21.0076 18.4574C21.1686 18.3419 21.3683 18.2937 21.5642 18.3234C21.6614 18.3349 21.7552 18.3657 21.8403 18.414C21.9253 18.4623 21.9998 18.5272 22.0595 18.6047C22.1191 18.6823 22.1626 18.7709 22.1874 18.8655C22.2123 18.9601 22.2179 19.0588 22.2041 19.1556C21.4208 24.2753 18.2174 27.852 14.4109 27.852V27.8536ZM50.4582 16.8496C50.4582 22.9173 46.8839 27.8536 42.4897 27.8536C38.6839 27.8536 35.4797 24.2769 34.6956 19.1572C34.6818 19.0604 34.6875 18.9618 34.7123 18.8672C34.7372 18.7726 34.7807 18.6839 34.8403 18.6063C34.8999 18.5288 34.9744 18.464 35.0595 18.4156C35.1445 18.3673 35.2383 18.3365 35.3355 18.325C35.5318 18.2934 35.7326 18.3407 35.8942 18.4566C36.0557 18.5725 36.1649 18.7476 36.1979 18.9437C36.8573 23.2564 39.5039 26.3872 42.4905 26.3872C46.0476 26.3872 48.9412 22.1087 48.9412 16.8505C48.9412 11.5922 46.0476 7.31371 42.4905 7.31371C39.5031 7.31371 36.8581 10.4437 36.1979 14.7573C36.1643 14.953 36.055 15.1277 35.8936 15.2435C35.7322 15.3593 35.5317 15.4069 35.3355 15.3759C35.2383 15.3644 35.1445 15.3336 35.0595 15.2853C34.9744 15.237 34.8999 15.1721 34.8403 15.0946C34.7807 15.017 34.7372 14.9284 34.7123 14.8338C34.6875 14.7392 34.6818 14.6405 34.6956 14.5437C35.4789 9.42402 38.6839 5.84733 42.4897 5.84733C46.8839 5.84733 50.4582 10.7836 50.4582 16.8513V16.8496Z" fill="black"/>
<path d="M28.7225 40.6277C29.6215 40.6277 30.3503 39.5712 30.3503 38.2679C30.3503 36.9647 29.6215 35.9082 28.7225 35.9082C27.8235 35.9082 27.0947 36.9647 27.0947 38.2679C27.0947 39.5712 27.8235 40.6277 28.7225 40.6277Z" fill="#003D73"/>
<path d="M46.1872 19.3121C46.7935 19.6641 46.8089 20.7146 46.2222 21.6592C45.6356 22.6038 44.6679 23.0826 44.0616 22.7306C43.4553 22.3786 43.4403 21.3274 44.0273 20.3839C44.6142 19.4405 45.5788 18.9636 46.1872 19.3121Z" fill="#003D73"/>
<path d="M41.8669 9.83749C42.4732 10.1895 42.4885 11.24 41.9019 12.1846C41.3152 13.1292 40.3476 13.608 39.7413 13.256C39.135 12.904 39.12 11.8528 39.7069 10.9093C40.2939 9.96585 41.2585 9.48899 41.8669 9.83749Z" fill="#003D73"/>
<path d="M14.2135 23.7828C13.6799 24.2313 12.6415 23.921 11.8938 23.0891C11.1462 22.2572 10.9734 21.2206 11.5075 20.7728C12.0416 20.3249 13.0795 20.6346 13.8271 21.4665C14.5748 22.2984 14.7503 23.338 14.2135 23.7828Z" fill="#003D73"/>
<path d="M17.1627 12.5475C16.6292 12.9959 15.5907 12.6856 14.8431 11.8537C14.0954 11.0218 13.9226 9.98529 14.4567 9.53743C14.9908 9.08956 16.0287 9.39928 16.7763 10.2312C17.524 11.0631 17.6995 12.1027 17.1627 12.5475Z" fill="#003D73"/>
</g>
</g>
</g>
<defs>
<clipPath id="clip0_419_1610">
<rect width="55.4273" height="55.4273" fill="white" transform="translate(0.736328 0.139648)"/>
</clipPath>
<clipPath id="clip1_419_1610">
<rect width="55.4273" height="55.4273" fill="white" transform="translate(0.736328 0.139648)"/>
</clipPath>
<clipPath id="clip2_419_1610">
<rect width="55.4273" height="55.4273" fill="white" transform="translate(0.736328 0.139648)"/>
</clipPath>
</defs>
</svg>
