<svg width="56" height="57" viewBox="0 0 56 57" fill="none" xmlns="http://www.w3.org/2000/svg">
<g clip-path="url(#clip0_419_1785)">
<g clip-path="url(#clip1_419_1785)">
<g clip-path="url(#clip2_419_1785)">
<path d="M22.433 20.9663C22.4091 20.7947 22.3372 20.6333 22.2256 20.5008C22.1139 20.3684 21.9671 20.2702 21.802 20.2176C21.6369 20.165 21.4603 20.1602 21.2926 20.2037C21.1249 20.2471 20.9729 20.3372 20.8542 20.4633C20.0141 21.3444 19.0711 22.1211 18.0453 22.7766C17.9582 22.091 17.656 21.4506 17.1821 20.9475C19.1238 19.6639 20.7267 17.9301 21.8543 15.8939C22.0654 15.4643 21.6799 13.2855 21.7532 7.37191C21.7532 7.12849 21.6565 6.89504 21.4844 6.72292C21.3123 6.5508 21.0788 6.4541 20.8354 6.4541C20.592 6.4541 20.3585 6.5508 20.1864 6.72292C20.0143 6.89504 19.9176 7.12849 19.9176 7.37191C19.9176 9.20101 19.9176 12.0718 20.101 15.3184C18.7741 17.4422 16.921 19.1873 14.7213 20.3843C12.1235 21.6281 13.9967 26.5383 16.6776 25.5512C18.2173 24.9589 19.6426 24.1039 20.89 23.0244C21.8078 29.1605 22.7256 28.8858 22.6613 34.7016C22.5235 34.7562 22.3768 34.8296 22.239 34.8752C18.7968 35.9813 17.7502 39.5116 19.5867 39.5116C20.9724 39.5116 19.9078 37.6825 22.6156 36.6954C22.1477 47.6684 19.9999 50.0729 21.8258 50.412C22.0641 50.4551 22.3099 50.4022 22.5093 50.2647C22.7088 50.1273 22.8457 49.9165 22.8903 49.6784C26.2493 30.9049 23.5513 29.5705 22.4314 20.9655L22.433 20.9663ZM15.4957 21.9566C15.6522 21.902 16.0002 22.2827 16.129 22.6976C16.2578 23.1124 16.2211 23.9137 15.8991 23.7572C15.6418 23.5931 15.4551 23.3387 15.3758 23.044C15.2943 23.044 15.2381 22.0577 15.4957 21.9566Z" fill="black"/>
<path d="M41.616 17.4281C39.2293 18.2237 37.5681 21.1499 36.1091 23.7191C34.7968 26.0324 34.1528 27.3773 31.626 28.0995C30.4933 26.9875 29.4783 25.7616 28.5971 24.4413C27.864 20.709 27.4373 16.923 27.3214 13.1211C27.6873 13.4512 28.0139 13.8223 28.2947 14.2272C30.3414 17.2904 32.4892 17.3817 32.728 17.3817C32.8481 17.3817 32.9671 17.358 33.078 17.312C33.189 17.2661 33.2898 17.1987 33.3747 17.1138C33.4596 17.0289 33.527 16.9281 33.573 16.8171C33.6189 16.7061 33.6426 16.5872 33.6426 16.4671C33.6426 16.347 33.6189 16.2281 33.573 16.1171C33.527 16.0062 33.4596 15.9054 33.3747 15.8204C33.2898 15.7355 33.189 15.6681 33.078 15.6222C32.9671 15.5762 32.8481 15.5526 32.728 15.5526C32.6637 15.5526 31.2869 15.4515 29.7937 13.2116C29.1109 12.2312 28.2367 11.3994 27.2236 10.7663V7.32406C27.2236 7.08064 27.1269 6.84719 26.9548 6.67507C26.7827 6.50295 26.5492 6.40625 26.3058 6.40625C26.0624 6.40625 25.829 6.50295 25.6568 6.67507C25.4847 6.84719 25.388 7.08064 25.388 7.32406C25.2558 13.2407 25.7388 19.1551 26.8291 24.9719C26.9848 25.6852 29.9265 29.1877 30.8125 29.8365C32.5371 31.5161 34.6306 32.7688 36.9258 33.4947C36.676 33.9126 36.5123 34.3763 36.4446 34.8584C36.3768 35.3405 36.4063 35.8314 36.5313 36.3019C33.968 35.667 31.6006 34.4106 29.638 32.6437C29.5029 32.5286 29.3374 32.455 29.1615 32.4318C28.9855 32.4087 28.8066 32.4371 28.6464 32.5135C28.4862 32.5899 28.3516 32.711 28.2588 32.8623C28.166 33.0136 28.119 33.1885 28.1235 33.3659C28.1318 38.6945 27.6406 44.0122 26.6563 49.2491C26.6359 49.3696 26.6393 49.493 26.6666 49.6122C26.6938 49.7313 26.7443 49.844 26.815 49.9437C26.8858 50.0434 26.9755 50.1281 27.0791 50.1931C27.1826 50.2581 27.2979 50.3021 27.4184 50.3226C27.539 50.343 27.6623 50.3395 27.7815 50.3123C27.9007 50.2851 28.0133 50.2346 28.113 50.1638C28.2127 50.0931 28.2975 50.0034 28.3625 49.8998C28.4275 49.7963 28.4715 49.681 28.4919 49.5605C29.3523 44.8234 29.8493 40.0274 29.9787 35.2146C30.8783 35.8582 31.8329 36.4212 32.8316 36.897C33.3282 37.9455 33.6055 39.0843 33.6467 40.2438C33.5887 41.1326 33.7766 42.0203 34.1899 42.8094C34.6031 43.5984 35.2257 44.2585 35.9893 44.7171C36.0966 44.7754 36.2145 44.8116 36.3361 44.8237C36.4577 44.8357 36.5804 44.8233 36.6971 44.7873C36.8138 44.7512 36.9221 44.6921 37.0157 44.6136C37.1092 44.535 37.1861 44.4385 37.2418 44.3298C37.2975 44.2211 37.3309 44.1024 37.3401 43.9805C37.3492 43.8587 37.3339 43.7363 37.2951 43.6205C37.2562 43.5047 37.1946 43.3978 37.1138 43.3062C37.0331 43.2145 36.9348 43.14 36.8248 43.0869C36.3671 42.7764 36.0012 42.3487 35.7655 41.8484C35.5297 41.348 35.4328 40.7936 35.4847 40.243C35.4847 36.1185 33.3655 38.4139 39.1527 38.4139C39.8572 38.343 40.5158 38.0315 41.0173 37.5317C41.5189 37.0319 41.8328 36.3745 41.9061 35.6702C42.1996 33.7686 40.9883 31.9484 39.1527 32.0585C36.9647 31.8192 34.8973 30.9342 33.2138 29.5162C34.3531 29.0502 35.3457 28.2857 36.0871 27.3031C38.0792 26.8548 38.8405 25.8857 40.6762 26.5166C40.7903 26.5551 40.9108 26.5708 41.031 26.5627C41.1512 26.5547 41.2686 26.523 41.3765 26.4696C41.4844 26.4161 41.5808 26.342 41.66 26.2513C41.7393 26.1606 41.8 26.0552 41.8385 25.9411C41.877 25.827 41.8927 25.7064 41.8846 25.5862C41.8766 25.4661 41.8449 25.3487 41.7915 25.2407C41.738 25.1328 41.6639 25.0365 41.5732 24.9572C41.4825 24.8779 41.3771 24.8173 41.263 24.7788C38.3995 23.8642 37.2339 25.4374 37.6765 24.6598C38.9807 22.3775 40.43 19.7764 42.1833 19.1733C42.298 19.1358 42.4042 19.0761 42.4958 18.9976C42.5874 18.9191 42.6627 18.8233 42.7173 18.7157C42.7719 18.6081 42.8048 18.4908 42.8141 18.3705C42.8234 18.2502 42.8089 18.1293 42.7714 18.0146C42.7339 17.8999 42.6742 17.7937 42.5957 17.7021C42.5172 17.6105 42.4214 17.5352 42.3138 17.4806C42.2062 17.426 42.0889 17.3931 41.9686 17.3838C41.8483 17.3745 41.7274 17.389 41.6127 17.4265L41.616 17.4281ZM39.4592 36.4299C38.7346 36.9695 38.1192 36.0272 38.2659 35.067C38.3392 34.5364 38.6791 33.9332 39.1837 33.8599C40.2857 33.8411 40.3493 35.7811 39.4592 36.4299Z" fill="#003D73"/>
</g>
</g>
</g>
<defs>
<clipPath id="clip0_419_1785">
<rect width="55.4273" height="55.4273" fill="white" transform="translate(0.436035 0.700195)"/>
</clipPath>
<clipPath id="clip1_419_1785">
<rect width="55.4273" height="55.4273" fill="white" transform="translate(0.436035 0.700195)"/>
</clipPath>
<clipPath id="clip2_419_1785">
<rect width="55.4273" height="55.4273" fill="white" transform="translate(0.436035 0.700195)"/>
</clipPath>
</defs>
</svg>
