<svg width="48" height="48" viewBox="0 0 48 48" fill="none" xmlns="http://www.w3.org/2000/svg">
<path d="M29.2607 36.5403L27.4692 38.5308L25.2797 39.7251C24.2844 44.3033 22.4929 40.0436 22.4929 39.7251C22.4929 39.4066 18.8436 37.4692 19.109 36.7393L18.7109 34.7488L20.1043 32.1611L21.2986 31.564L22.4929 31.1658L22.891 30.9668H24.6825L26.0759 31.3649C26.4076 31.4976 27.1507 31.8426 27.4692 32.1611C27.7877 32.4796 28.929 33.4218 29.0616 33.7535L29.2607 36.5403Z" fill="#003A70"/>
<path d="M17.5947 12.3066L21.5484 14.7269C23.0163 15.6269 24.8643 15.6269 26.3322 14.7269L30.2858 12.3066" stroke="#58595B" stroke-width="1.0072" stroke-miterlimit="10" stroke-linecap="round"/>
<path d="M16.751 14.7227L20.2809 16.8808C21.6396 17.7108 22.4652 19.1918 22.4652 20.782V29.0476" stroke="#58595B" stroke-width="1.0072" stroke-miterlimit="10" stroke-linecap="round"/>
<path d="M25.4102 29.0535V20.7879C25.4102 19.1977 26.2359 17.7167 27.5945 16.8867L31.1244 14.7285" stroke="#58595B" stroke-width="1.0072" stroke-miterlimit="10" stroke-linecap="round"/>
<path d="M18.4066 18.2358C18.4197 19.625 18.2537 20.7303 17.8605 21.674C16.6504 24.684 13.1991 24.6316 10.3725 23.1462C7.05668 21.1803 5.85966 17.1961 6.56303 13.8583C7.49793 9.4241 10.6172 5.83304 14.7281 5.68885C19.6735 5.58837 19.0619 8.76882 18.4546 10.3546" stroke="#58595B" stroke-width="1.0072" stroke-miterlimit="10" stroke-linecap="round"/>
<path d="M29.4203 10.3578C28.8131 8.77191 28.2014 5.58712 33.1469 5.69198C37.2578 5.83175 40.377 9.42719 41.3118 13.8571C42.0152 17.1948 40.8181 21.179 37.5024 23.145C34.6759 24.6303 31.2202 24.6827 30.0145 21.6727C29.6213 20.7291 29.4553 19.6281 29.4684 18.2345" stroke="#58595B" stroke-width="1.0072" stroke-miterlimit="10" stroke-linecap="round"/>
<path d="M29.303 34.7844C28.521 31.0185 23.9426 31.0841 23.9382 31.0841C23.9339 31.0841 19.3555 31.0185 18.5735 34.7844C18.4511 35.4572 18.5472 36.1605 18.8793 36.759C20.4739 39.4414 23.1781 38.3798 23.4271 41.4423C23.4489 41.7086 23.6718 41.914 23.9382 41.914C24.2047 41.914 24.4275 41.7086 24.4494 41.4423C24.694 38.3798 27.3982 39.437 28.9972 36.759C29.3336 36.1605 29.4254 35.4572 29.303 34.7844Z" stroke="#58595B" stroke-width="1.0072" stroke-miterlimit="10" stroke-linecap="round"/>
<path d="M39.1409 17.0117C37.922 20.2096 35.4668 22.2323 33.6494 21.5421" stroke="#58595B" stroke-width="0.875829" stroke-miterlimit="10" stroke-linecap="round"/>
<path d="M8.13574 17.0117C9.35462 20.2096 11.8098 22.2323 13.6272 21.5421" stroke="#58595B" stroke-width="0.875829" stroke-miterlimit="10" stroke-linecap="round"/>
</svg>
