<svg width="49" height="48" viewBox="0 0 49 48" fill="none" xmlns="http://www.w3.org/2000/svg">
<path d="M18.7244 5.28906V10.6635C18.7244 12.6401 20.3308 14.2464 22.3074 14.2464H24.0988C24.0988 14.2464 27.6818 7.67769 35.4448 10.0663C42.5033 12.24 42.6104 22.0094 42.6104 23.8009C42.6104 26.1895 41.4161 39.3269 28.279 39.3269C25.8903 39.3269 20.5159 39.3269 16.933 36.3412C16.8971 36.3113 16.8613 36.2815 16.8255 36.2516C14.2278 34.1675 10.3643 36.0784 10.3643 39.4105V42.3128" stroke="#58595B" stroke-width="0.796209" stroke-linecap="square" stroke-linejoin="round"/>
<path d="M5.58594 42.3128V39.9241C5.58594 34.9797 9.59883 30.9668 14.5433 30.9668H18.1262C18.1262 30.9668 19.9177 28.5782 23.5006 28.5782C23.5006 28.5782 23.5006 26.1895 25.8893 24.9952C25.8893 24.9952 23.5006 22.6066 24.0978 19.0237H21.7092C17.4216 19.0237 13.9461 15.5482 13.9461 11.2606V5.28906" stroke="#58595B" stroke-width="0.796209" stroke-linecap="square" stroke-linejoin="round"/>
<path d="M20.5137 33.3544C22.9023 30.9658 26.4852 31.5629 26.4852 31.5629C26.4852 27.98 28.8739 27.3828 28.8739 27.3828H38.4284C38.4284 27.3828 36.6369 35.743 28.2767 35.743C21.1108 35.743 20.5137 33.3544 20.5137 33.3544Z" fill="#003A70" stroke="#58595B" stroke-width="0.796209" stroke-linecap="square" stroke-linejoin="round"/>
</svg>
