<svg width="48" height="48" viewBox="0 0 48 48" fill="none" xmlns="http://www.w3.org/2000/svg">
<path d="M19.091 34.5495C17.4986 37.1372 18.2946 42.7107 14.1145 41.5164C10.7307 34.7486 5.55528 34.3505 5.95331 33.9524C5.95331 32.4618 5.55532 29.5734 12.8338 29.5732C14.2721 29.5732 20.4844 30.3695 19.091 34.5495Z" fill="#003A70"/>
<path d="M23.5059 18.9586L29.4914 12.7917C29.4914 12.7917 30.2175 11.7025 30.399 9.52417C30.5805 7.34587 31.8512 5.71213 33.3034 5.89366C34.7556 6.0752 35.7908 9.2887 37.1155 10.6133C38.5677 12.0656 42.3798 12.2471 42.3798 14.2439C42.3798 16.069 41.4869 17.4574 38.9307 17.6929C37.2185 17.8499 35.9037 18.1394 35.5651 18.2179C35.5112 18.2325 35.4621 18.2571 35.4179 18.2963L27.8576 25.4936H26.4054L26.0424 21.137L23.501 21.3185V18.9586H23.5059Z" stroke="#58595B" stroke-width="0.796209" stroke-miterlimit="10" stroke-linecap="round"/>
<path d="M20.4196 22.2256L12.8592 29.4229C12.82 29.4621 12.766 29.4915 12.712 29.5014C12.3735 29.5799 11.0636 29.8693 9.34644 30.0263C6.79037 30.2569 5.89746 31.6503 5.89746 33.4753C5.89746 35.4721 9.70951 35.6536 11.1617 37.1059C12.4815 38.4256 13.5216 41.644 14.9738 41.8255C16.426 42.007 17.6967 40.3732 17.8782 38.195C18.0597 36.0167 18.7858 34.9275 18.7858 34.9275L24.7713 28.7605L25.4974 28.0344H23.1376V24.9485H20.4146V22.2256H20.4196Z" stroke="#58595B" stroke-width="0.796209" stroke-miterlimit="10" stroke-linecap="round"/>
<path d="M18.8786 18.1433L16.0674 15.3271" stroke="#58595B" stroke-width="0.796209" stroke-miterlimit="10" stroke-linecap="round"/>
<path d="M21.0087 16.9085L20.8271 12.9346" stroke="#58595B" stroke-width="0.796209" stroke-miterlimit="10" stroke-linecap="round"/>
<path d="M17.6478 20.1758L13.6689 20.1954" stroke="#58595B" stroke-width="0.796209" stroke-miterlimit="10" stroke-linecap="round"/>
<path d="M29.7705 30.0459L32.5817 32.8571" stroke="#58595B" stroke-width="0.796209" stroke-miterlimit="10" stroke-linecap="round"/>
<path d="M27.6416 31.2773L27.8182 35.2513" stroke="#58595B" stroke-width="0.796209" stroke-miterlimit="10" stroke-linecap="round"/>
<path d="M31.002 28.0147L34.9808 27.9951" stroke="#58595B" stroke-width="0.796209" stroke-miterlimit="10" stroke-linecap="round"/>
</svg>
