<svg width="49" height="48" viewBox="0 0 49 48" fill="none" xmlns="http://www.w3.org/2000/svg">
<mask id="mask0_419_1350" style="mask-type:luminance" maskUnits="userSpaceOnUse" x="5" y="4" width="39" height="40">
<path d="M43.6462 4.89062H5.42822V43.1086H43.6462V4.89062Z" fill="white"/>
</mask>
<g mask="url(#mask0_419_1350)">
<path d="M9.95939 32.8651C11.5914 32.8651 12.9144 31.5421 12.9144 29.9101C12.9144 28.2781 11.5914 26.9551 9.95939 26.9551C8.32739 26.9551 7.00439 28.2781 7.00439 29.9101C7.00439 31.5421 8.32739 32.8651 9.95939 32.8651Z" fill="#003A70"/>
<path d="M39.3126 33.2591C41.0534 33.2591 42.4646 31.8479 42.4646 30.1071C42.4646 28.3663 41.0534 26.9551 39.3126 26.9551C37.5718 26.9551 36.1606 28.3663 36.1606 30.1071C36.1606 31.8479 37.5718 33.2591 39.3126 33.2591Z" fill="#003A70"/>
<path d="M19.5136 43.1086C18.1474 43.1086 16.9455 42.2344 16.4959 40.9796C16.2711 41.023 16.0463 41.0401 15.8128 41.0401C14.0143 41.0401 12.4665 39.8199 12.0256 38.1064C10.2703 37.6909 9.01658 36.1332 9.01658 34.2984C9.01658 34.108 9.03385 33.9176 9.05981 33.7272C7.46883 33.1993 6.35342 31.7021 6.35342 29.9885C6.35342 29.0884 6.66469 28.2144 7.23538 27.5133C6.11997 26.8037 5.42822 25.5574 5.42822 24.216C5.42822 22.8745 6.05942 21.7321 7.10567 21.0052C6.51771 20.1657 6.18912 19.1618 6.18912 18.1233C6.18912 16.1241 7.39964 14.3067 9.21543 13.5191C9.58726 11.8401 11.0572 10.5766 12.7692 10.4554V10.2824C12.7692 8.11873 14.5245 6.3619 16.6861 6.3619H16.8158C17.4038 5.44451 18.4154 4.89062 19.5136 4.89062C21.2775 4.89062 22.7214 6.32726 22.7214 8.10142V39.8978C22.7214 41.6719 21.2775 43.1086 19.5136 43.1086ZM16.7985 40.0365C16.8763 40.0365 16.9541 40.0536 17.0233 40.097C17.1271 40.1575 17.1963 40.2614 17.2222 40.3824C17.447 41.4645 18.4068 42.2431 19.5136 42.2431C20.8019 42.2431 21.8568 41.1961 21.8568 39.8978V8.10142C21.8568 6.81192 20.8105 5.75606 19.5136 5.75606C18.6402 5.75606 17.8447 6.24072 17.4384 7.01097C17.3519 7.16675 17.1876 7.26193 17.0061 7.24462C16.9023 7.23598 16.7899 7.22734 16.6861 7.22734C15.0087 7.22734 13.6339 8.59471 13.6339 10.2824C13.6339 10.4641 13.6511 10.6372 13.6771 10.8103C13.703 10.9401 13.6598 11.0786 13.5733 11.1737C13.4868 11.2689 13.3571 11.3295 13.2275 11.3209C13.1583 11.3209 13.0978 11.3122 13.0372 11.3122C11.5414 11.3122 10.253 12.4286 10.0196 13.8999C9.99364 14.0557 9.88986 14.1855 9.74288 14.2374C8.12598 14.8346 7.04512 16.401 7.04512 18.1233C7.04512 19.1272 7.40831 20.0878 8.05679 20.8408C8.14325 20.9446 8.17785 21.0744 8.15189 21.2043C8.12598 21.334 8.03951 21.4466 7.92708 21.5071C6.9241 22.0351 6.29287 23.0736 6.29287 24.2246C6.29287 25.3757 7.00189 26.5267 8.10866 27.0114C8.23836 27.072 8.33347 27.1931 8.35942 27.3402C8.38538 27.4874 8.33347 27.6345 8.22108 27.7297C7.58121 28.3095 7.21806 29.1317 7.21806 29.9885C7.21806 31.4338 8.23836 32.6887 9.64777 32.9743C9.76015 33.0002 9.86394 33.0695 9.92445 33.1733C9.985 33.2772 10.0023 33.3983 9.97633 33.5109C9.90718 33.7618 9.87258 34.0301 9.87258 34.2897C9.87258 35.8043 10.9534 37.0678 12.4406 37.3015C12.6222 37.3275 12.7692 37.4746 12.7951 37.6563C13.0545 39.1103 14.3169 40.1746 15.7955 40.1746C16.0895 40.1746 16.3748 40.1316 16.6602 40.0536C16.7121 40.0448 16.7553 40.0365 16.7985 40.0365Z" fill="#58595B"/>
<path d="M16.7898 40.9017C16.5823 40.9017 16.4008 40.7544 16.3662 40.5466C16.1932 39.5687 16.4094 37.4743 18.4673 36.505C18.6835 36.4012 18.9429 36.4964 19.0466 36.7127C19.1504 36.9291 19.0552 37.1887 18.8391 37.2926C16.8849 38.2099 17.2135 40.3129 17.2222 40.3997C17.2654 40.6334 17.1011 40.8583 16.8677 40.9017C16.8417 40.9017 16.8158 40.9017 16.7898 40.9017Z" fill="#58595B"/>
<path d="M15.3976 35.7094C15.3025 35.7094 15.2074 35.6748 15.1209 35.6142C14.9394 35.4671 14.9134 35.1902 15.0604 35.0084C15.1209 34.9305 16.5303 33.165 15.5273 31.4255C15.4063 31.2178 15.4755 30.9581 15.683 30.837C15.8905 30.7158 16.1499 30.7851 16.2709 30.9927C17.5766 33.2516 15.804 35.4671 15.7262 35.5623C15.6484 35.6575 15.5273 35.7094 15.3976 35.7094Z" fill="#58595B"/>
<path d="M9.5619 33.8396C9.33709 33.8396 9.14687 33.6579 9.12956 33.4328C9.11228 33.1905 9.29385 32.9915 9.53594 32.9742C10.0807 32.9395 11.6198 32.6972 12.2078 31.9443C12.4239 31.676 12.4931 31.3558 12.4239 30.975C12.3807 30.7413 12.5363 30.5163 12.7698 30.473C13.0032 30.4298 13.2281 30.5855 13.2713 30.8192C13.3837 31.451 13.254 32.0135 12.8908 32.4808C11.9397 33.6925 9.6916 33.831 9.59649 33.8396C9.57917 33.8396 9.57054 33.8396 9.5619 33.8396Z" fill="#58595B"/>
<path d="M12.2337 28.093C12.1386 28.093 12.0435 28.0584 11.9657 27.9978C10.2623 26.6131 8.23035 27.7382 8.14389 27.7814C7.93635 27.9026 7.67699 27.8247 7.55593 27.617C7.43486 27.4093 7.51269 27.1496 7.72022 27.0285C7.82397 26.9679 10.3401 25.5659 12.5104 27.3227C12.692 27.4699 12.7266 27.7468 12.571 27.9286C12.4845 28.0411 12.3634 28.093 12.2337 28.093Z" fill="#58595B"/>
<path d="M11.8091 22.9872C11.6362 22.9872 11.4719 22.8834 11.4028 22.7103C10.7975 21.1178 7.83172 21.5505 7.80576 21.5592C7.57232 21.5938 7.34751 21.438 7.31291 21.2044C7.27832 20.9707 7.43398 20.7457 7.66742 20.7111C7.81444 20.6851 11.3509 20.1399 12.2156 22.416C12.302 22.641 12.1896 22.892 11.9648 22.9785C11.9129 22.9785 11.8611 22.9872 11.8091 22.9872Z" fill="#58595B"/>
<path d="M12.8041 17.1884C11.7146 17.1884 10.7721 16.6951 10.0545 15.7344C9.42324 14.8863 9.18979 13.9776 9.18115 13.943C9.12064 13.7093 9.26762 13.4756 9.49243 13.415C9.72587 13.3545 9.95932 13.5016 10.0199 13.7266C10.0545 13.8478 10.8154 16.747 13.3747 16.2624C13.6082 16.2191 13.833 16.3749 13.8763 16.6086C13.9195 16.8422 13.7638 17.0672 13.5304 17.1105C13.2796 17.1624 13.0375 17.1884 12.8041 17.1884Z" fill="#58595B"/>
<path d="M14.9398 15.3888C14.7755 15.3888 14.6112 15.2936 14.542 15.1292C14.4469 14.9128 14.542 14.6532 14.7669 14.558C15.13 14.3936 15.3721 14.1599 15.4932 13.831C15.8131 12.9483 15.2251 11.7367 15.2165 11.7194C15.1127 11.503 15.1992 11.2433 15.4154 11.1395C15.6315 11.0356 15.8909 11.1222 15.9947 11.3386C16.0293 11.3991 16.7556 12.8963 16.306 14.1253C16.1071 14.6792 15.7007 15.0946 15.1127 15.3542C15.0609 15.3802 15.0003 15.3888 14.9398 15.3888Z" fill="#58595B"/>
<path d="M18.7267 11.6759C18.3116 11.6759 17.9398 11.5201 17.6285 11.2345C16.4526 10.1094 16.5996 7.13227 16.6169 6.80343C16.6342 6.56111 16.8331 6.37933 17.0751 6.39665C17.3173 6.41397 17.4988 6.61302 17.4816 6.85534C17.4383 7.66019 17.4729 9.89304 18.2251 10.6114C18.3894 10.7672 18.5797 10.8364 18.8131 10.8104C19.0552 10.7845 19.2628 10.9575 19.2887 11.1999C19.3146 11.4422 19.1417 11.6499 18.8996 11.6759C18.8477 11.6672 18.7872 11.6759 18.7267 11.6759Z" fill="#58595B"/>
<path d="M15.9596 29.6937C15.8299 29.6937 15.7002 29.6332 15.6137 29.5207C15.4668 29.3303 15.51 29.062 15.7002 28.9148C16.9626 27.9629 16.9108 27.2878 16.8156 26.0762C16.7637 25.3838 16.6946 24.5184 16.8848 23.4366C17.4468 20.1998 22.1074 20.3643 22.3062 20.3729C22.5484 20.3816 22.7299 20.5893 22.7212 20.8229C22.7126 21.0653 22.5138 21.247 22.2716 21.2384C22.2284 21.2384 18.1731 21.0912 17.7408 23.5837C17.5765 24.5616 17.6284 25.3319 17.6803 26.007C17.7754 27.2705 17.8619 28.3696 16.219 29.6072C16.1412 29.6591 16.0461 29.6937 15.9596 29.6937Z" fill="#58595B"/>
<path d="M17.4995 19.0406C16.7559 19.0406 16.0814 18.7377 15.9776 18.6858C15.7615 18.5819 15.6664 18.3309 15.7701 18.1146C15.8739 17.8982 16.1247 17.803 16.3408 17.9068C16.6607 18.054 17.6032 18.3655 18.122 18.0194C18.4333 17.8203 18.5889 17.3703 18.5716 16.7039C18.5543 15.7692 18.8397 15.0076 19.4104 14.4365C20.4912 13.3546 22.2119 13.3633 22.281 13.3633C22.5231 13.3633 22.7134 13.5623 22.7047 13.8047C22.7047 14.047 22.5058 14.2374 22.2637 14.2287C22.2464 14.2287 20.8284 14.2201 20.007 15.0509C19.6092 15.4577 19.4104 16.0029 19.419 16.6953C19.4363 17.6818 19.151 18.3742 18.5716 18.755C18.2604 18.9714 17.8713 19.0406 17.4995 19.0406Z" fill="#58595B"/>
<path d="M29.561 43.1086C27.797 43.1086 26.353 41.6719 26.353 39.8978V8.10142C26.353 6.3359 27.7884 4.89062 29.561 4.89062C30.659 4.89062 31.6707 5.44451 32.2587 6.3619H32.3884C34.55 6.3619 36.3053 8.11873 36.3053 10.2824V10.4554C38.026 10.5766 39.4872 11.8401 39.859 13.5191C41.6836 14.3067 42.8855 16.1241 42.8855 18.1233C42.8855 19.1618 42.5654 20.1657 41.9687 21.0052C43.0149 21.7321 43.6463 22.9265 43.6463 24.216C43.6463 25.5055 42.9544 26.8037 41.8393 27.5133C42.401 28.2057 42.7211 29.0798 42.7211 29.9885C42.7211 31.6934 41.6056 33.1993 40.0147 33.7185C40.0406 33.909 40.0579 34.0994 40.0579 34.2897C40.0579 36.1332 38.8128 37.6909 37.0489 38.0977C36.6079 39.8199 35.0602 41.0317 33.2617 41.0317C33.0369 41.0317 32.8034 41.0142 32.5786 40.9708C32.129 42.2344 30.9184 43.1086 29.561 43.1086ZM29.561 5.76474C28.2726 5.76474 27.2177 6.82055 27.2177 8.11009V39.9065C27.2177 41.1961 28.2639 42.2519 29.561 42.2519C30.6677 42.2519 31.6275 41.4645 31.8523 40.3912C31.8782 40.2701 31.9474 40.1662 32.0512 40.1057C32.1549 40.0448 32.276 40.0277 32.397 40.0623C32.6737 40.14 32.9677 40.1834 33.2617 40.1834C34.7403 40.1834 36.0027 39.1276 36.262 37.665C36.2966 37.4833 36.435 37.3448 36.6166 37.3102C38.1038 37.0765 39.1846 35.8043 39.1846 34.2984C39.1846 34.0388 39.15 33.7705 39.0809 33.5195C39.0549 33.407 39.0722 33.2858 39.1327 33.182C39.1932 33.0781 39.297 33.0089 39.4094 32.9829C40.8189 32.6973 41.8393 31.4338 41.8393 29.9971C41.8393 29.1403 41.4758 28.3095 40.8361 27.7297C40.7238 27.6345 40.6716 27.4874 40.6979 27.3402C40.7238 27.1931 40.8189 27.072 40.9483 27.0114C42.0467 26.5181 42.7645 25.4276 42.7645 24.2246C42.7645 23.0217 42.1331 22.0437 41.1127 21.5158C40.9917 21.4552 40.9141 21.3427 40.8878 21.2129C40.8619 21.0831 40.8966 20.9446 40.983 20.8494C41.6402 20.0965 41.9949 19.1358 41.9949 18.1319C41.9949 16.4097 40.9141 14.8519 39.297 14.2461C39.15 14.1942 39.0463 14.0643 39.0203 13.9086C38.7955 12.4373 37.4985 11.3209 36.0027 11.3209C35.9421 11.3209 35.8816 11.3209 35.8124 11.3295C35.6827 11.3382 35.553 11.2862 35.4666 11.1824C35.3801 11.0872 35.3369 10.9487 35.3628 10.8189C35.3974 10.6458 35.406 10.4641 35.406 10.291C35.406 8.61202 34.0399 7.23598 32.3538 7.23598C32.2414 7.23598 32.1376 7.24461 32.0339 7.25329C31.8609 7.27061 31.688 7.18406 31.6016 7.01961C31.2297 6.24072 30.4342 5.76474 29.561 5.76474Z" fill="#58595B"/>
<path d="M32.2759 40.9015C32.25 40.9015 32.224 40.9015 32.1981 40.8928C31.9646 40.8494 31.809 40.6245 31.8436 40.3908C31.8609 40.2956 32.1894 38.2012 30.2267 37.2838C30.0105 37.1799 29.9154 36.9203 30.0192 36.7039C30.1229 36.4876 30.3737 36.3924 30.5985 36.4962C32.6477 37.4569 32.8639 39.5599 32.6996 40.5377C32.665 40.7542 32.4834 40.9015 32.2759 40.9015Z" fill="#58595B"/>
<path d="M33.6684 35.7093C33.5474 35.7093 33.4177 35.6574 33.3312 35.5535C33.2534 35.4583 31.4808 33.2514 32.7864 30.984C32.9075 30.7762 33.1669 30.707 33.3744 30.8282C33.5819 30.9493 33.6511 31.209 33.5301 31.4167C32.5271 33.1562 33.9364 34.9304 33.997 34.9996C34.144 35.1813 34.118 35.4583 33.9364 35.6054C33.8587 35.6833 33.7635 35.7093 33.6684 35.7093Z" fill="#58595B"/>
<path d="M39.505 33.8396H39.479C39.3839 33.831 37.1271 33.6925 36.1847 32.4808C35.8129 32.0049 35.6832 31.451 35.8042 30.8192C35.8474 30.5855 36.0723 30.4298 36.3057 30.473C36.5392 30.5163 36.6948 30.7413 36.6516 30.975C36.5824 31.3558 36.6516 31.676 36.8677 31.9443C37.4557 32.6972 38.9948 32.9395 39.5309 32.9742C39.773 32.9915 39.9546 33.1905 39.9373 33.4328C39.9286 33.6579 39.7384 33.8396 39.505 33.8396Z" fill="#58595B"/>
<path d="M36.8332 28.093C36.7035 28.093 36.5824 28.0411 36.496 27.9286C36.349 27.7468 36.3749 27.4699 36.5565 27.3227C38.7268 25.5659 41.243 26.9679 41.3469 27.0285C41.5543 27.1496 41.6236 27.4093 41.5109 27.617C41.3899 27.8247 41.1307 27.8939 40.9229 27.7814C40.8365 27.7295 38.8132 26.6131 37.1012 27.9978C37.0234 28.067 36.9283 28.093 36.8332 28.093Z" fill="#58595B"/>
<path d="M37.2563 22.987C37.2045 22.987 37.1526 22.9783 37.1007 22.961C36.8759 22.8745 36.7635 22.6235 36.85 22.3985C37.7146 20.1224 41.2424 20.6762 41.3981 20.6936C41.6314 20.7282 41.7958 20.9532 41.7524 21.1868C41.7182 21.4205 41.4932 21.585 41.2596 21.5417C41.2166 21.533 38.2766 21.083 37.6627 22.6927C37.5935 22.8831 37.4293 22.987 37.2563 22.987Z" fill="#58595B"/>
<path d="M36.2625 17.1891C36.029 17.1891 35.7869 17.1631 35.5362 17.1198C35.3027 17.0765 35.1471 16.8515 35.1903 16.6179C35.2335 16.3842 35.4584 16.2284 35.6918 16.2717C38.2512 16.7477 39.0121 13.8571 39.0467 13.7359C39.1072 13.5022 39.3407 13.3638 39.5741 13.4244C39.8076 13.485 39.946 13.7186 39.8854 13.9523C39.8768 13.9869 39.6433 14.9043 39.0121 15.7438C38.2944 16.6958 37.3519 17.1891 36.2625 17.1891Z" fill="#58595B"/>
<path d="M34.1263 15.3888C34.0658 15.3888 34.0053 15.3802 33.9534 15.3542C33.3654 15.0946 32.9677 14.6792 32.7602 14.1253C32.3105 12.8963 33.0369 11.3991 33.0714 11.3386C33.1752 11.1222 33.4346 11.0356 33.6508 11.1395C33.8669 11.2433 33.9534 11.503 33.8496 11.7194C33.841 11.7367 33.253 12.9483 33.5729 13.831C33.694 14.1599 33.9275 14.4022 34.2993 14.558C34.5154 14.6532 34.6192 14.9128 34.5241 15.1292C34.4549 15.2936 34.2906 15.3888 34.1263 15.3888Z" fill="#58595B"/>
<path d="M30.3391 11.6757C30.2786 11.6757 30.218 11.6757 30.1662 11.667C29.9327 11.6411 29.7598 11.4334 29.7771 11.1911C29.803 10.9574 30.0106 10.7843 30.2526 10.8016C30.4861 10.8276 30.6763 10.7583 30.8406 10.6026C31.5929 9.88425 31.6361 7.64273 31.5842 6.84652C31.5669 6.60419 31.7485 6.40514 31.9906 6.38786C32.2327 6.37054 32.4316 6.55228 32.4489 6.7946C32.4662 7.13212 32.6132 10.1006 31.4372 11.2257C31.1346 11.5199 30.7541 11.6757 30.3391 11.6757Z" fill="#58595B"/>
<path d="M26.9844 26.3281H26.7596C26.5175 26.3194 26.3359 26.1117 26.3445 25.8781C26.3532 25.6357 26.5607 25.454 26.7942 25.4626C26.846 25.4626 30.9013 25.6098 31.325 23.1173C31.4893 22.1393 31.4374 21.3691 31.3855 20.6941C31.2904 19.4305 31.204 18.3314 32.8468 17.0938C33.037 16.9467 33.3051 16.9899 33.452 17.1804C33.599 17.3707 33.5558 17.639 33.3656 17.7862C32.1032 18.7381 32.1551 19.4132 32.2502 20.6248C32.302 21.3172 32.3712 22.1826 32.181 23.2644C31.6881 26.1377 27.9615 26.3281 26.9844 26.3281Z" fill="#58595B"/>
<path d="M26.7943 33.3292H26.777C26.5349 33.3292 26.3447 33.1302 26.3533 32.8878C26.3533 32.6542 26.5522 32.4638 26.7857 32.4638H26.7943C26.8635 32.4638 28.2469 32.4551 29.0424 31.6416C29.4402 31.2348 29.639 30.6896 29.6304 29.9972C29.6131 29.0107 29.8984 28.3183 30.4778 27.9375C31.4894 27.2797 32.9334 27.9202 33.0977 27.9981C33.3138 28.102 33.409 28.3529 33.3052 28.5693C33.2014 28.7857 32.9507 28.8808 32.7345 28.777C32.4146 28.6298 31.4721 28.3183 30.9533 28.6645C30.642 28.8635 30.4864 29.3135 30.5037 29.9799C30.521 30.9146 30.2356 31.6762 29.665 32.2474C28.6187 33.2946 27.0018 33.3292 26.7943 33.3292Z" fill="#58595B"/>
</g>
</svg>
