<svg width="48" height="48" viewBox="0 0 48 48" fill="none" xmlns="http://www.w3.org/2000/svg">
<path d="M13.137 8.95703L9.35497 9.55419L8.75781 9.95229V10.9476L9.15592 13.3362L9.55402 14.9286V17.1182V19.7058L9.15592 21.4973C9.02323 22.2272 8.75781 23.7267 8.75781 23.8859V28.066C8.75781 28.4641 9.15592 29.0613 9.35497 29.0613C9.51421 29.0613 10.0848 29.9902 10.3502 30.4547L10.9474 31.0518H12.3408L14.1322 30.6537L14.9284 30.0566L15.7246 27.867L15.9237 26.4736L16.5208 24.8812L16.919 23.6869L17.5161 22.4926V21.4973L16.7199 20.7011L15.7246 19.9049L14.9284 18.7106L14.1322 18.1134L13.9332 16.9191L13.5351 15.1276V13.9333L14.1322 12.54L14.5303 11.3457L14.3313 10.1513L13.5351 9.35514L13.137 8.95703Z" fill="#003A70"/>
<path d="M15.8682 26.204C15.8682 26.204 16.7638 22.0831 19.2744 20.8302C21.7803 19.5772 21.9614 19.3962 21.9614 19.3962C21.9614 19.3962 22.4997 15.99 24.291 15.4564C26.0823 14.9228 31.9944 15.0991 32.5327 15.0991C33.0711 15.0991 33.7857 15.8137 33.9667 17.0714C34.1477 18.3243 33.6094 19.401 32.1754 19.401H29.4885C29.4885 19.401 29.3075 20.4777 29.4885 21.0112C29.6695 21.5496 33.7904 25.1321 35.5817 26.7424C37.373 28.3526 38.0876 31.9399 37.7303 34.8031C37.373 37.671 36.6536 38.3856 36.6536 38.924C36.6536 39.4623 36.6536 41.0724 35.939 41.611C35.2244 42.1492 31.1035 42.6875 25.3676 40.8964C19.6365 39.105 15.8729 36.4181 15.1536 35.5225C14.4389 34.6268 14.2579 33.9122 14.2579 33.9122C14.2579 33.9122 9.59872 31.7636 8.88412 28.8957C8.16948 26.0278 8.88412 22.2689 9.42243 20.1156C9.96079 17.967 9.06514 13.8461 8.88412 11.8738C8.70306 9.90151 8.52682 9.00586 11.2137 9.00586C13.9006 9.00586 14.0816 9.3632 14.2579 9.7205C14.4342 10.0778 14.7962 11.3307 14.7962 11.3307" stroke="#58595B" stroke-width="0.796209" stroke-miterlimit="10" stroke-linecap="round"/>
<path d="M28.5879 14.7381C28.5879 14.7381 27.8733 12.9468 27.6923 12.5895C27.5113 12.2322 27.335 12.0512 27.335 12.0512C27.335 12.0512 29.3073 11.3366 29.3073 10.7982C29.3073 10.2599 28.4117 8.82592 27.6971 8.29234C26.9824 7.75399 26.4441 7.39669 25.5485 8.29234L24.4718 9.36902C24.4718 9.36902 23.6476 9.0784 23.3951 9.01172C23.1379 8.94026 22.4995 8.83066 22.4995 8.83066C22.4995 8.83066 22.8568 6.68209 22.3185 6.32479C21.7801 5.9675 19.4505 5.9675 18.7359 6.14378C18.0213 6.32479 17.483 6.68209 17.6592 7.39669C17.8403 8.11133 18.3739 9.36902 18.3739 9.36902C18.3739 9.36902 16.9399 9.72632 15.687 10.6219C14.434 11.5176 13.1811 14.0282 13.7146 16.1768C14.253 18.3254 16.0442 20.4787 16.7588 21.0123C17.4734 21.5507 17.8355 21.9079 17.8355 21.9079" stroke="#58595B" stroke-width="0.796209" stroke-miterlimit="10" stroke-linecap="round"/>
<path d="M13.6147 14.4364C13.6147 14.4364 14.5294 17.6852 17.3971 16.9945C20.2601 16.3085 20.2458 13.6504 20.2458 13.6504" stroke="#58595B" stroke-width="0.796209" stroke-miterlimit="10" stroke-linecap="round"/>
<path d="M9.15527 28.577C9.15527 28.577 10.0699 31.8258 12.9376 31.1351C15.8006 30.4492 15.7863 27.791 15.7863 27.791" stroke="#58595B" stroke-width="0.796209" stroke-miterlimit="10" stroke-linecap="round"/>
<path d="M33.0664 28.4111C33.0664 28.4111 34.4765 30.8787 34.3002 33.5226C34.1239 36.1664 33.7715 37.0477 33.7715 37.0477" stroke="#58595B" stroke-width="0.796209" stroke-miterlimit="10" stroke-linecap="round"/>
</svg>
